<svg version="1.1" xmlns="http://www.w3.org/2000/svg" viewBox="0 0 1931.2499999999993 1768.749999999999" width="1931.2499999999993" height="1768.749999999999">
  <!-- svg-source:excalidraw -->
  
  <defs>
    <style class="style-fonts">
      @font-face {
        font-family: "Virgil";
        src: url("https://excalidraw.com/Virgil.woff2");
      }
      @font-face {
        font-family: "Cascadia";
        src: url("https://excalidraw.com/Cascadia.woff2");
      }
    </style>
  </defs>
  <rect x="0" y="0" width="1931.2499999999993" height="1768.749999999999" fill="#ffffff"></rect><g stroke-linecap="round" transform="translate(996.2499999999998 10.000000000000227) rotate(0 228.7499999999999 78.74999999999989)"><path d="M415.97 31.55 C431.26 36.68, 439.12 46.51, 446.08 53.97 C453.05 61.42, 457.22 68.65, 457.75 76.28 C458.28 83.91, 455.74 92.24, 449.26 99.77 C442.77 107.3, 431.16 114.99, 418.85 121.47 C406.54 127.94, 392.73 133.66, 375.38 138.61 C358.03 143.56, 335.6 147.89, 314.74 151.16 C293.87 154.43, 272.54 157.34, 250.19 158.23 C227.83 159.12, 202.87 158.11, 180.61 156.5 C158.34 154.89, 135.92 152.44, 116.62 148.56 C97.32 144.69, 79.94 139.03, 64.8 133.25 C49.65 127.46, 36.15 120.67, 25.78 113.85 C15.41 107.03, 6.38 99.72, 2.58 92.33 C-1.22 84.94, 0.07 77.03, 2.96 69.49 C5.85 61.95, 10.68 54.01, 19.92 47.09 C29.17 40.17, 43.05 34.12, 58.43 27.99 C73.81 21.85, 92.82 14.37, 112.21 10.27 C131.59 6.18, 153.38 5.39, 174.74 3.42 C196.1 1.46, 218.25 -1.67, 240.39 -1.52 C262.52 -1.36, 286.29 1.09, 307.54 4.35 C328.79 7.6, 346.36 11.37, 367.89 18 C389.41 24.63, 423.99 37.75, 436.7 44.12 C449.41 50.49, 447.96 55.29, 444.13 56.23 M333.3 9.3 C354.57 11.11, 373.72 15.32, 389.73 20.19 C405.75 25.07, 418.94 31.2, 429.41 38.54 C439.88 45.88, 448.4 56, 452.55 64.23 C456.7 72.46, 456.33 80.75, 454.29 87.91 C452.26 95.08, 448.81 100.55, 440.34 107.23 C431.87 113.9, 418.38 121.78, 403.47 127.96 C388.55 134.15, 369.38 140.31, 350.83 144.33 C332.29 148.35, 313.18 149.69, 292.21 152.11 C271.24 154.52, 247.33 158.36, 225.02 158.82 C202.7 159.27, 179.53 157.73, 158.32 154.83 C137.11 151.93, 116.56 146.26, 97.75 141.42 C78.94 136.57, 59.23 131.51, 45.46 125.75 C31.68 119.99, 22.35 114.06, 15.08 106.86 C7.81 99.65, 2.74 90.46, 1.86 82.5 C0.97 74.54, 4.43 66.09, 9.8 59.08 C15.17 52.08, 22.95 47.01, 34.08 40.47 C45.2 33.93, 59.82 25.82, 76.54 19.83 C93.25 13.85, 114.14 7.51, 134.36 4.54 C154.59 1.57, 175.37 2.33, 197.9 2.02 C220.44 1.71, 247.25 1.69, 269.58 2.68 C291.91 3.66, 321.36 7.21, 331.89 7.92 C342.42 8.63, 334.36 5.49, 332.78 6.94" stroke="#000000" stroke-width="4" fill="none"></path></g><g transform="translate(1111.2499999999995 44) rotate(0 116 44.5)"><text x="0" y="62" font-family="Virgil, Segoe UI Emoji" font-size="69.99999999999999px" fill="#000000" text-anchor="start" style="white-space: pre;" direction="ltr">начало</text></g><g transform="translate(218.75 268.4999999999998) rotate(0 237.5 56.5)"><text x="0" y="79" font-family="Virgil, Segoe UI Emoji" font-size="89.23076923076921px" fill="#000000" text-anchor="start" style="white-space: pre;" direction="ltr">def foobar</text></g><g stroke-linecap="round" transform="translate(757.4999999999997 1601.2499999999995) rotate(0 228.7499999999999 78.74999999999989)"><path d="M237.02 -0.52 C258.77 -1.23, 284.41 3.56, 305.55 6.3 C326.69 9.05, 345.83 11.47, 363.85 15.94 C381.86 20.42, 399.86 26.92, 413.64 33.15 C427.42 39.38, 438.96 46.37, 446.53 53.32 C454.1 60.27, 458.53 67.46, 459.05 74.87 C459.56 82.28, 455.9 90.25, 449.6 97.78 C443.31 105.32, 433.14 112.99, 421.27 120.07 C409.4 127.14, 395.09 135.28, 378.38 140.25 C361.68 145.23, 341.88 147.27, 321.06 149.89 C300.25 152.52, 275.97 154.74, 253.49 155.99 C231.01 157.25, 208.41 158.88, 186.18 157.44 C163.95 156, 140.33 151.35, 120.12 147.34 C99.92 143.33, 80.46 138.6, 64.96 133.36 C49.46 128.13, 37.26 122.75, 27.12 115.94 C16.98 109.14, 8.5 100.56, 4.14 92.52 C-0.23 84.47, -1.77 75.54, 0.96 67.67 C3.68 59.8, 11.27 52.12, 20.49 45.29 C29.71 38.45, 41.81 32.43, 56.27 26.65 C70.74 20.88, 88.18 14.44, 107.29 10.62 C126.4 6.8, 144.89 5.29, 170.94 3.75 C196.99 2.2, 243.94 1.11, 263.6 1.34 C283.25 1.58, 289.71 4.27, 288.89 5.17 M138.36 4.2 C156.42 0.07, 182.57 1.66, 205.6 1.02 C228.62 0.39, 253.92 -1.08, 276.51 0.38 C299.1 1.83, 321.51 5.65, 341.11 9.76 C360.72 13.88, 378.82 19.93, 394.16 25.09 C409.5 30.25, 423.31 34.47, 433.14 40.74 C442.97 47.01, 449.22 54.7, 453.14 62.72 C457.07 70.74, 459.49 80.98, 456.69 88.86 C453.89 96.74, 445.43 102.77, 436.34 109.99 C427.25 117.21, 417.2 125.86, 402.16 132.19 C387.12 138.52, 365.27 144.58, 346.09 147.96 C326.91 151.34, 308.57 151.02, 287.09 152.45 C265.6 153.89, 239.62 156.14, 217.2 156.59 C194.77 157.04, 173.53 157.94, 152.51 155.16 C131.5 152.39, 109.87 144.53, 91.13 139.92 C72.39 135.31, 53.71 133.09, 40.06 127.52 C26.41 121.95, 15.48 113.89, 9.24 106.5 C3.01 99.11, 3.11 91.17, 2.65 83.16 C2.19 75.15, 1.17 66, 6.49 58.43 C11.81 50.86, 22.17 44.17, 34.57 37.74 C46.97 31.3, 63.1 25.01, 80.87 19.82 C98.65 14.64, 130.73 9.04, 141.22 6.64 C151.71 4.25, 142.45 4.15, 143.8 5.46" stroke="#000000" stroke-width="4" fill="none"></path></g><g transform="translate(899.9999999999994 1645.2499999999995) rotate(0 96 44.5)"><text x="0" y="62" font-family="Virgil, Segoe UI Emoji" font-size="69.99999999999999px" fill="#000000" text-anchor="start" style="white-space: pre;" direction="ltr">Конец</text></g><g stroke-linecap="round" transform="translate(1003.7499999999995 232.49999999999977) rotate(0 231.2499999999999 78.75)"><path d="M-0.86 1.25 C128.31 1.27, 256.68 2.51, 461.14 -0.86 M-0.55 0.67 C182.35 -4.33, 364.69 -3.64, 462.63 -0.82 M462.09 -3.79 C461.91 61.14, 463.98 125.85, 462.26 159.63 M464.01 1.44 C463.56 50.35, 466.59 100.06, 463.11 155.75 M461.95 155.71 C345.79 160.54, 226.88 159.2, -1.5 157.97 M461.69 157.48 C305.72 159.05, 148.86 158.81, -0.58 158.1 M1.76 159.4 C-2.59 103.23, 0.34 49.37, -3.05 0.64 M-0.23 157.93 C2.66 101.65, 4.25 46.36, 1.67 1.45" stroke="#000000" stroke-width="4" fill="none"></path></g><g transform="translate(1055.7499999999995 283.9999999999998) rotate(0 180.5 22)"><text x="180.5" y="35" font-family="Cascadia, Segoe UI Emoji" font-size="36px" fill="#000000" text-anchor="middle" style="white-space: pre;" direction="ltr">input num1 &amp; num2</text></g><g stroke-linecap="round" transform="translate(923.7499999999995 477.4999999999998) rotate(0 308.7499999999999 133.74999999999994)"><path d="M307.97 -0.7 C414.23 48.18, 522.62 97.84, 615.13 135.47 M309.08 0.99 C398.88 40.02, 488.29 77.65, 617.6 135.03 M616.45 135.27 C516.81 182.29, 409.52 224.13, 306.86 270.11 M617.69 132.98 C520.74 174.99, 423.17 217.29, 309.85 268.49 M307.54 267.75 C196.84 215.79, 90.56 172.64, 1.62 133.15 M308.25 267.14 C211.43 222.29, 116.72 182.55, -0.43 132.69 M1.78 136.13 C113.1 90.37, 227.65 36.81, 309.57 -1.65 M-0.45 134.3 C119.03 79.85, 241.8 24.94, 308.22 -0.64" stroke="#000000" stroke-width="4" fill="none"></path></g><g transform="translate(1104.9999999999995 589.2499999999998) rotate(0 127.5 22)"><text x="127.5" y="35" font-family="Cascadia, Segoe UI Emoji" font-size="36px" fill="#000000" text-anchor="middle" style="white-space: pre;" direction="ltr">num1 == 20? </text></g><g stroke-linecap="round" transform="translate(470.00000000000034 836.2499999999995) rotate(0 308.7499999999999 133.74999999999994)"><path d="M311.52 0.05 C415.31 47.47, 523.58 92.76, 618.25 133.29 M310.22 0.95 C428.31 52.8, 546.55 105.32, 617.94 132.96 M619.64 136.58 C516.72 175.82, 415.49 220.21, 310.4 269.54 M617.31 132.76 C524.15 174.18, 428.09 214.14, 309.88 266.58 M309.66 265.56 C205.09 218.45, 97.01 171.91, -2.17 133.94 M307.99 267.6 C190.46 221.28, 73.1 169.54, -1 134.03 M-1.62 136.32 C115.72 79.49, 237.94 27.24, 311.54 1.79 M0.83 134.78 C103.43 86.4, 209.15 39.51, 307.67 -1.07" stroke="#000000" stroke-width="4" fill="none"></path></g><g transform="translate(651.2500000000002 947.9999999999995) rotate(0 127.5 22)"><text x="127.5" y="35" font-family="Cascadia, Segoe UI Emoji" font-size="36px" fill="#000000" text-anchor="middle" style="white-space: pre;" direction="ltr">num2 == 20? </text></g><g stroke-linecap="round"><g transform="translate(1208.7499999999995 177.5) rotate(0 1.5310141345858597 22.53329059392206)"><path d="M0.6 0.08 C0.95 7.79, 0.18 36.65, 0.34 44.21 M-2.51 -2.35 C-1.14 5.96, 5.28 38.88, 5.58 47.42" stroke="#000000" stroke-width="4" fill="none"></path></g><g transform="translate(1208.7499999999995 177.5) rotate(0 1.5310141345858597 22.53329059392206)"><path d="M-4.59 24.28 C-3.67 30.79, 0.6 38.02, 5.71 45.3 M-6.09 28.65 C-1.57 30.72, 0.35 36, 7.53 47.4" stroke="#000000" stroke-width="4" fill="none"></path></g><g transform="translate(1208.7499999999995 177.5) rotate(0 1.5310141345858597 22.53329059392206)"><path d="M10.7 22.37 C7.95 29.4, 8.58 37.09, 5.71 45.3 M9.21 26.73 C10.57 29.07, 9.31 34.76, 7.53 47.4" stroke="#000000" stroke-width="4" fill="none"></path></g></g><g stroke-linecap="round"><g transform="translate(1231.2499999999995 397.4999999999998) rotate(0 1.6739048834937336 32.2358738075942)"><path d="M0.02 -2.63 C0.69 8.56, 5.8 55.65, 6.76 67.1 M-3.41 2.12 C-3.42 12.54, 1.6 53.4, 4.11 63.23" stroke="#000000" stroke-width="4" fill="none"></path></g><g transform="translate(1231.2499999999995 397.4999999999998) rotate(0 1.6739048834937336 32.2358738075942)"><path d="M-14.63 36.18 C-1.92 45.1, 2.56 58.88, 6.18 62.5 M-10.63 37.98 C-6.26 43.18, -4.42 50.19, 3.36 63.5" stroke="#000000" stroke-width="4" fill="none"></path></g><g transform="translate(1231.2499999999995 397.4999999999998) rotate(0 1.6739048834937336 32.2358738075942)"><path d="M5.58 32.63 C10.26 42.97, 6.7 58.15, 6.18 62.5 M9.58 34.42 C9.38 40.36, 6.57 48.19, 3.36 63.5" stroke="#000000" stroke-width="4" fill="none"></path></g></g><g stroke-linecap="round"><g transform="translate(903.7499999999998 602.4999999999997) rotate(0 -70.17088011856058 99.41202312745781)"><path d="M1.82 -1.66 C-20.15 -2.22, -113.52 -38.9, -133.22 -2.42 C-152.92 34.07, -119.84 180.46, -116.4 217.25 M-0.63 3.61 C-22.92 2.24, -116.13 -41.9, -135.85 -6.02 C-155.57 29.85, -123.16 181.19, -118.96 218.87" stroke="#000000" stroke-width="4" fill="none"></path></g><g transform="translate(903.7499999999998 602.4999999999997) rotate(0 -70.17088011856058 99.41202312745781)"><path d="M-135.87 191.59 C-125.99 197, -129.98 209.01, -121.36 219.45 M-132.54 193.24 C-129.72 203.31, -124.52 210.83, -119.52 217.71" stroke="#000000" stroke-width="4" fill="none"></path></g><g transform="translate(903.7499999999998 602.4999999999997) rotate(0 -70.17088011856058 99.41202312745781)"><path d="M-115.6 188.39 C-110.77 194.86, -119.82 207.68, -121.36 219.45 M-112.27 190.04 C-117.01 201.63, -119.32 210.33, -119.52 217.71" stroke="#000000" stroke-width="4" fill="none"></path></g></g><g transform="translate(879.2499999999998 532.4999999999998) rotate(0 22 22)"><text x="22" y="35" font-family="Cascadia, Segoe UI Emoji" font-size="36px" fill="#000000" text-anchor="middle" style="white-space: pre;" direction="ltr">NO</text></g><g transform="translate(1553.7499999999993 529.9999999999998) rotate(0 32.5 22)"><text x="32.5" y="35" font-family="Cascadia, Segoe UI Emoji" font-size="36px" fill="#000000" text-anchor="middle" style="white-space: pre;" direction="ltr">YES</text></g><g stroke-linecap="round" transform="translate(1433.7499999999995 1257.4999999999995) rotate(0 243.7499999999999 81.24999999999994)"><path d="M-0.62 1.55 C137.3 1.8, 274.08 1.35, 487.54 -1.45 M0.45 -0.44 C165.69 -0.85, 332.24 -0.91, 488.22 0.4 M487.44 3.4 C487.54 54.31, 490.75 103.84, 489.19 166.49 M486.17 -1.88 C486.11 36.91, 489.48 74.91, 487.46 161.81 M487.77 163 C299.39 159.14, 112.21 160.88, -1.45 163.58 M487.46 163.11 C385.84 161.06, 283.56 159.67, 0.52 162.86 M-1.77 159.31 C-3.52 126.04, 0.94 84.9, 2.17 -0.15 M1.78 161.59 C1.01 121.55, -0.66 77.68, -1.58 -1.47" stroke="#000000" stroke-width="4" fill="none"></path></g><g transform="translate(1565.2499999999993 1312.4999999999995) rotate(0 96 22)"><text x="96" y="35" font-family="Cascadia, Segoe UI Emoji" font-size="36px" fill="#000000" text-anchor="middle" style="white-space: pre;" direction="ltr">puts num2</text></g><g stroke-linecap="round"><g transform="translate(1553.7499999999993 609.9999999999997) rotate(0 58.26141051048046 306.69369610954874)"><path d="M-2.6 -1.28 C14.3 -0.92, 83.22 -5.34, 100.77 1.67 C118.31 8.67, 99.62 -63.91, 102.68 40.77 C105.74 145.45, 116.18 531.73, 119.13 629.75 M1.18 4.2 C19.05 5, 89.37 -1.61, 106.23 4.84 C123.08 11.3, 100.24 -60.41, 102.33 42.94 C104.41 146.29, 114.92 527, 118.74 624.94" stroke="#000000" stroke-width="4" fill="none"></path></g><g transform="translate(1553.7499999999993 609.9999999999997) rotate(0 58.26141051048046 306.69369610954874)"><path d="M105.74 594.62 C109.38 608.84, 111.18 610.15, 121.95 624.11 M109.3 597.73 C110.21 605.84, 117.23 617.02, 116.98 626.71" stroke="#000000" stroke-width="4" fill="none"></path></g><g transform="translate(1553.7499999999993 609.9999999999997) rotate(0 58.26141051048046 306.69369610954874)"><path d="M126.25 593.95 C124.21 607.98, 120.34 609.48, 121.95 624.11 M129.81 597.06 C123.55 605.19, 123.38 616.61, 116.98 626.71" stroke="#000000" stroke-width="4" fill="none"></path></g></g><g stroke-linecap="round"><g transform="translate(1093.7499999999995 967.4999999999995) rotate(0 287.78641920201466 -0.488113727360485)"><path d="M-1.41 -1.54 C94.62 -2.06, 481.01 -4.14, 576.98 -4.78 M3.02 3.8 C98.79 3.94, 480.93 0.01, 575.82 -1.03" stroke="#000000" stroke-width="4" fill="none"></path></g><g transform="translate(1093.7499999999995 967.4999999999995) rotate(0 287.78641920201466 -0.488113727360485)"><path d="M545.54 12.35 C557.4 5.55, 565.79 2.61, 576.21 2.45 M548.48 10.71 C558.01 4.02, 571.21 0.46, 575.55 -2.99" stroke="#000000" stroke-width="4" fill="none"></path></g><g transform="translate(1093.7499999999995 967.4999999999995) rotate(0 287.78641920201466 -0.488113727360485)"><path d="M545.33 -8.17 C557.01 -8.24, 565.47 -4.44, 576.21 2.45 M548.27 -9.81 C557.61 -8.57, 570.89 -4.19, 575.55 -2.99" stroke="#000000" stroke-width="4" fill="none"></path></g></g><g transform="translate(1103.7499999999995 902.9999999999997) rotate(0 32.5 22)"><text x="32.5" y="35" font-family="Cascadia, Segoe UI Emoji" font-size="36px" fill="#000000" text-anchor="middle" style="white-space: pre;" direction="ltr">YES</text></g><g transform="translate(409.2499999999998 875.4999999999998) rotate(0 22 22)"><text x="22" y="35" font-family="Cascadia, Segoe UI Emoji" font-size="36px" fill="#000000" text-anchor="middle" style="white-space: pre;" direction="ltr">NO</text></g><g stroke-linecap="round" transform="translate(10 1231.2499999999995) rotate(0 243.7499999999999 81.24999999999994)"><path d="M-0.55 -0.96 C178.66 3.65, 353.69 3.77, 486.27 -0.48 M0.56 0.22 C124.04 -3.84, 249.21 -4.2, 488.04 -0.58 M488.77 2.06 C487.92 47.78, 492.98 89.08, 487.05 164.8 M488.51 -1.27 C489.8 65.41, 490.09 130.31, 486.69 162.06 M487.17 161.93 C298.25 160.6, 109.25 160.88, -0.54 162.07 M487.82 161.96 C364.6 166.4, 243.5 166.08, -0.51 163.12 M-3.67 164.83 C0.18 113.08, 0.79 67.74, -1.29 -1 M1.39 160.7 C-2.71 108.09, -3.11 58.23, -1.52 -0.83" stroke="#000000" stroke-width="4" fill="none"></path></g><g transform="translate(83.74999999999989 1285.4999999999995) rotate(0 170 22)"><text x="170" y="35" font-family="Cascadia, Segoe UI Emoji" font-size="36px" fill="#000000" text-anchor="middle" style="white-space: pre;" direction="ltr">puts num1 + num2</text></g><g stroke-linecap="round"><g transform="translate(461.2499999999998 967.4999999999997) rotate(0 -101.4585602195192 112.3851288000273)"><path d="M0.59 0.68 C-30.83 0.7, -155.31 -38.88, -187.7 0.7 C-220.09 40.28, -192.44 198.36, -193.77 238.18 M-2.54 -1.41 C-33.2 -1.12, -150.7 -37.16, -182.77 3.35 C-214.83 43.86, -192.79 203.1, -194.9 241.66" stroke="#000000" stroke-width="4" fill="none"></path></g><g transform="translate(461.2499999999998 967.4999999999997) rotate(0 -101.4585602195192 112.3851288000273)"><path d="M-205.34 210.06 C-205.03 224.74, -197.73 231.12, -191.9 238.17 M-205.2 215.64 C-205.3 218.39, -199.57 225.45, -195.17 242.01" stroke="#000000" stroke-width="4" fill="none"></path></g><g transform="translate(461.2499999999998 967.4999999999997) rotate(0 -101.4585602195192 112.3851288000273)"><path d="M-184.83 209.22 C-191.25 224.26, -190.69 230.92, -191.9 238.17 M-184.7 214.8 C-189.34 218.06, -188.16 225.31, -195.17 242.01" stroke="#000000" stroke-width="4" fill="none"></path></g></g><g stroke-linecap="round"><g transform="translate(228.7499999999999 1417.4999999999995) rotate(0 397.7625233184545 81.64537793371828)"><path d="M-2.55 -1.41 C13.26 11.18, -23.96 62.26, 93.43 73.8 C210.82 85.33, 584.33 53.03, 701.77 67.77 C819.21 82.51, 782.16 146.33, 798.08 162.24 M1.26 3.99 C18.13 17.12, -17.63 65.82, 98.98 76.77 C215.59 87.72, 584.49 55.01, 700.93 69.67 C817.37 84.32, 780.95 148.9, 797.62 164.7" stroke="#000000" stroke-width="4" fill="none"></path></g><g transform="translate(228.7499999999999 1417.4999999999995) rotate(0 397.7625233184545 81.64537793371828)"><path d="M778.76 137.63 C782.93 148.88, 785.65 149.77, 797.24 160.79 M779.25 138.6 C786.8 149.87, 790.63 154.38, 799.51 165.16" stroke="#000000" stroke-width="4" fill="none"></path></g><g transform="translate(228.7499999999999 1417.4999999999995) rotate(0 397.7625233184545 81.64537793371828)"><path d="M798.66 132.62 C797.82 144.75, 795.59 146.89, 797.24 160.79 M799.15 133.59 C800.19 146.49, 797.55 152.64, 799.51 165.16" stroke="#000000" stroke-width="4" fill="none"></path></g></g><g stroke-linecap="round"><g transform="translate(1693.7499999999993 1427.4999999999995) rotate(0 -340.0138724889464 79.68319925853439)"><path d="M0.53 -1.02 C-9.21 10.76, 37.61 62.33, -59.38 71.65 C-156.37 80.97, -478.77 41.42, -581.43 54.9 C-684.08 68.38, -658.99 134.64, -675.29 152.54 C-691.59 170.44, -678.52 160.37, -679.22 162.3 M-2.63 -4.04 C-12.59 6.84, 35.39 57.43, -61.28 67.53 C-157.95 77.64, -480.61 43.21, -582.65 56.6 C-684.69 69.99, -658.12 130.35, -673.51 147.88 C-688.9 165.41, -674.37 159.54, -674.98 161.75" stroke="#000000" stroke-width="4" fill="none"></path></g><g transform="translate(1693.7499999999993 1427.4999999999995) rotate(0 -340.0138724889464 79.68319925853439)"><path d="M-683.01 162.63 C-679.59 162.7, -679.88 163.16, -673.62 160.83 M-683.07 161.91 C-680.51 162.01, -679.32 161.6, -675.62 161.14" stroke="#000000" stroke-width="4" fill="none"></path></g><g transform="translate(1693.7499999999993 1427.4999999999995) rotate(0 -340.0138724889464 79.68319925853439)"><path d="M-681.6 157.69 C-678.53 159.08, -679.19 160.85, -673.62 160.83 M-681.66 156.97 C-679.47 158.07, -678.56 158.66, -675.62 161.14" stroke="#000000" stroke-width="4" fill="none"></path></g></g></svg>