<svg version="1.1" xmlns="http://www.w3.org/2000/svg" viewBox="0 0 1856.9999999999993 1808.7296747967466" width="1856.9999999999993" height="1808.7296747967466">
  <!-- svg-source:excalidraw -->
  
  <defs>
    <style class="style-fonts">
      @font-face {
        font-family: "Virgil";
        src: url("https://excalidraw.com/Virgil.woff2");
      }
      @font-face {
        font-family: "Cascadia";
        src: url("https://excalidraw.com/Cascadia.woff2");
      }
    </style>
  </defs>
  <rect x="0" y="0" width="1856.9999999999993" height="1808.7296747967466" fill="#ffffff"></rect><g stroke-linecap="round" transform="translate(649.9999999999998 212.47967479674776) rotate(0 228.7499999999999 78.74999999999989)"><path d="M415.97 31.55 C431.26 36.68, 439.12 46.51, 446.08 53.97 C453.05 61.42, 457.22 68.65, 457.75 76.28 C458.28 83.91, 455.74 92.24, 449.26 99.77 C442.77 107.3, 431.16 114.99, 418.85 121.47 C406.54 127.94, 392.73 133.66, 375.38 138.61 C358.03 143.56, 335.6 147.89, 314.74 151.16 C293.87 154.43, 272.54 157.34, 250.19 158.23 C227.83 159.12, 202.87 158.11, 180.61 156.5 C158.34 154.89, 135.92 152.44, 116.62 148.56 C97.32 144.69, 79.94 139.03, 64.8 133.25 C49.65 127.46, 36.15 120.67, 25.78 113.85 C15.41 107.03, 6.38 99.72, 2.58 92.33 C-1.22 84.94, 0.07 77.03, 2.96 69.49 C5.85 61.95, 10.68 54.01, 19.92 47.09 C29.17 40.17, 43.05 34.12, 58.43 27.99 C73.81 21.85, 92.82 14.37, 112.21 10.27 C131.59 6.18, 153.38 5.39, 174.74 3.42 C196.1 1.46, 218.25 -1.67, 240.39 -1.52 C262.52 -1.36, 286.29 1.09, 307.54 4.35 C328.79 7.6, 346.36 11.37, 367.89 18 C389.41 24.63, 423.99 37.75, 436.7 44.12 C449.41 50.49, 447.96 55.29, 444.13 56.23 M333.3 9.3 C354.57 11.11, 373.72 15.32, 389.73 20.19 C405.75 25.07, 418.94 31.2, 429.41 38.54 C439.88 45.88, 448.4 56, 452.55 64.23 C456.7 72.46, 456.33 80.75, 454.29 87.91 C452.26 95.08, 448.81 100.55, 440.34 107.23 C431.87 113.9, 418.38 121.78, 403.47 127.96 C388.55 134.15, 369.38 140.31, 350.83 144.33 C332.29 148.35, 313.18 149.69, 292.21 152.11 C271.24 154.52, 247.33 158.36, 225.02 158.82 C202.7 159.27, 179.53 157.73, 158.32 154.83 C137.11 151.93, 116.56 146.26, 97.75 141.42 C78.94 136.57, 59.23 131.51, 45.46 125.75 C31.68 119.99, 22.35 114.06, 15.08 106.86 C7.81 99.65, 2.74 90.46, 1.86 82.5 C0.97 74.54, 4.43 66.09, 9.8 59.08 C15.17 52.08, 22.95 47.01, 34.08 40.47 C45.2 33.93, 59.82 25.82, 76.54 19.83 C93.25 13.85, 114.14 7.51, 134.36 4.54 C154.59 1.57, 175.37 2.33, 197.9 2.02 C220.44 1.71, 247.25 1.69, 269.58 2.68 C291.91 3.66, 321.36 7.21, 331.89 7.92 C342.42 8.63, 334.36 5.49, 332.78 6.94" stroke="#000000" stroke-width="4" fill="none"></path></g><g transform="translate(764.9999999999995 246.47967479674753) rotate(0 116 44.5)"><text x="0" y="62" font-family="Virgil, Segoe UI Emoji" font-size="69.99999999999999px" fill="#000000" text-anchor="start" style="white-space: pre;" direction="ltr">начало</text></g><g transform="translate(1319.9999999999993 383.4796747967473) rotate(0 263.5 56.5)"><text x="0" y="79" font-family="Virgil, Segoe UI Emoji" font-size="89.23076923076921px" fill="#000000" text-anchor="start" style="white-space: pre;" direction="ltr">def greeting</text></g><g stroke-linecap="round" transform="translate(632.4999999999998 517.4796747967473) rotate(0 242.4999999999999 77.5)"><path d="M0.27 0.75 C188.94 -1.6, 375.67 -2.27, 485.43 -0.38 M-0.29 0.57 C146.47 1.89, 291.67 2.19, 484.63 0.57 M487.77 -2.94 C484.85 49.31, 482.57 92.25, 488.21 155.33 M486.74 -0.9 C484.1 39.98, 485.26 81.01, 486.37 156.53 M484.4 156.64 C365.05 154.54, 246.77 152.71, 1.67 156.01 M485.38 154.45 C326.14 157.83, 167.44 157.85, -0.63 154.7 M3.2 153.48 C1.71 107.39, -1.28 67.73, -0.54 0.1 M1.77 155.35 C-2.42 107.38, -2.41 65.03, 0.71 -1.75" stroke="#000000" stroke-width="4" fill="none"></path></g><g stroke-linecap="round"><g transform="translate(867.4999999999995 372.47967479674753) rotate(0 -0.9019462028518319 65.07842988312223)"><path d="M0.24 -1.01 C0.6 20.77, 1.03 108.79, 1.27 131.24 M-3.08 -4.03 C-2.89 18.07, -0.92 112.04, -0.28 134.19" stroke="#000000" stroke-width="4" fill="none"></path></g><g transform="translate(867.4999999999995 372.47967479674753) rotate(0 -0.9019462028518319 65.07842988312223)"><path d="M-12.66 108.07 C-9.97 116.12, -3.49 119.8, -0.41 135.68 M-12.84 105.29 C-7.26 116.44, -3.83 122.79, 0.53 134.01" stroke="#000000" stroke-width="4" fill="none"></path></g><g transform="translate(867.4999999999995 372.47967479674753) rotate(0 -0.9019462028518319 65.07842988312223)"><path d="M7.85 107.58 C5.05 115.79, 6.05 119.61, -0.41 135.68 M7.68 104.8 C6.91 115.8, 3.98 122.3, 0.53 134.01" stroke="#000000" stroke-width="4" fill="none"></path></g></g><g stroke-linecap="round"><g transform="translate(682.4999999999995 517.4796747967473) rotate(0 0.1670423317700589 77.67969414025544)"><path d="M-2.75 0.73 C-2.54 26.55, 2.64 127.97, 3.08 152.87 M0.95 -1.34 C0.67 25.19, 0.43 131.15, 1.16 156.7" stroke="#000000" stroke-width="4" fill="none"></path></g></g><g stroke-linecap="round"><g transform="translate(1074.8329576682293 517.2999806564919) rotate(0 0.39491457159329 75.62110075484958)"><path d="M1.48 -2.12 C2.03 22.62, 2.16 124.63, 1.89 150.7 M-1.16 2.91 C-0.91 27.75, -1.74 128.88, -0.68 153.36" stroke="#000000" stroke-width="4" fill="none"></path></g></g><g transform="translate(738.9999999999995 544.2368276842317) rotate(0 136 27.5)"><text x="136" y="38" font-family="Virgil, Segoe UI Emoji" font-size="43.2701421800948px" fill="#000000" text-anchor="middle" style="white-space: pre;" direction="ltr">Ввод данных</text></g><g stroke-linecap="round" transform="translate(10 9.999999999999773) rotate(0 182.13414634146335 63.851626016260184)"><path d="M264.57 4.87 C282.46 6.79, 296.65 12.31, 310.42 17.48 C324.19 22.65, 338.49 29.49, 347.2 35.89 C355.9 42.29, 360.64 48.69, 362.63 55.89 C364.61 63.09, 363.11 72.49, 359.09 79.11 C355.07 85.72, 348.86 90.05, 338.5 95.59 C328.15 101.12, 312.52 107.62, 296.98 112.33 C281.44 117.04, 263.61 121.12, 245.26 123.84 C226.91 126.56, 206.05 128.67, 186.91 128.64 C167.77 128.61, 149.04 125.66, 130.44 123.67 C111.83 121.68, 91.72 120.54, 75.27 116.69 C58.82 112.83, 43.1 106.43, 31.75 100.54 C20.4 94.64, 12.13 87.99, 7.18 81.33 C2.23 74.68, 1.18 67.6, 2.04 60.62 C2.91 53.64, 5.65 46.14, 12.36 39.45 C19.07 32.75, 29.19 25.71, 42.31 20.45 C55.42 15.19, 73.8 11, 91.06 7.9 C108.31 4.8, 126.82 2.78, 145.82 1.83 C164.83 0.88, 178.73 -0.28, 205.11 2.17 C231.48 4.63, 282.64 11.64, 304.06 16.54 C325.48 21.44, 335.71 30.72, 333.63 31.57 M250.94 7.1 C268.91 8.38, 285.2 10.08, 300.31 14.52 C315.43 18.96, 331.2 27.99, 341.64 33.75 C352.08 39.5, 359.53 42.98, 362.96 49.05 C366.39 55.13, 364.71 63.09, 362.21 70.18 C359.71 77.27, 357.18 85.16, 347.96 91.59 C338.73 98.02, 321.86 104.11, 306.85 108.75 C291.84 113.39, 275.46 116.24, 257.91 119.42 C240.37 122.6, 220.64 126.42, 201.6 127.83 C182.55 129.25, 162.93 129.33, 143.66 127.91 C124.38 126.5, 102.53 123.57, 85.95 119.37 C69.38 115.16, 57.07 107.72, 44.23 102.67 C31.38 97.62, 16.43 95.28, 8.89 89.07 C1.35 82.85, -0.41 72.58, -1.01 65.37 C-1.61 58.17, -0.31 52.58, 5.3 45.84 C10.91 39.1, 20.29 30.72, 32.66 24.92 C45.04 19.13, 62.85 14.64, 79.55 11.09 C96.25 7.53, 114.47 5.05, 132.85 3.59 C151.23 2.14, 170.76 2.48, 189.83 2.37 C208.89 2.26, 237.72 1.89, 247.24 2.94 C256.75 3.99, 247.54 7.26, 246.93 8.68" stroke="#000000" stroke-width="4" fill="none"></path></g><g transform="translate(97.63414634146329 54.35162601625984) rotate(0 94.5 19.5)"><text x="94.5" y="27" font-family="Virgil, Segoe UI Emoji" font-size="30.008608321377327px" fill="#000000" text-anchor="middle" style="white-space: pre;" direction="ltr">Ввод данных</text></g><g stroke-linecap="round" transform="translate(12.093495934959265 204.6951219512191) rotate(0 187.3678861788617 49.19715447154465)"><path d="M2.07 0.12 C121.63 -2.76, 243.51 -3.39, 375.55 2.04 M0.84 0.9 C100.97 -3.47, 202.91 -2.09, 374.39 -1.16 M372.93 0.73 C373.76 29.57, 371.02 55.92, 377.65 95.75 M374.39 -1.85 C376.94 18.34, 375.53 40.92, 374.44 99.08 M372.54 97.06 C247.11 104.23, 122.47 102.62, -1.94 99.03 M373.84 97.78 C282.26 94.84, 192.74 95.71, 0.6 99.58 M1.02 99.16 C0.43 81.88, -1.06 57.72, 3.93 1.53 M-1.21 97.23 C1.47 65.82, 0.62 31.69, 0.96 -1.49" stroke="#000000" stroke-width="4" fill="none"></path></g><g transform="translate(117.46138211382095 234.39227642276387) rotate(0 82 19.5)"><text x="82" y="27" font-family="Virgil, Segoe UI Emoji" font-size="30.012543554006964px" fill="#000000" text-anchor="middle" style="white-space: pre;" direction="ltr">Ввод имени</text></g><g stroke-linecap="round" transform="translate(17.327235772357653 362.7540650406497) rotate(0 187.3678861788617 49.19715447154465)"><path d="M-1.94 0.63 C147.31 -1.96, 295.83 -3.19, 373.51 -2.43 M0.6 1.18 C91.28 -1.09, 183.79 -0.5, 374.97 -0.01 M378.67 1.53 C375.17 37.07, 375.19 73.84, 372.41 100.3 M375.7 -1.49 C374.43 27.18, 372.83 57.75, 375.6 99.98 M376.24 100.14 C295.35 92.11, 217.58 93.07, -1.1 97.08 M373.61 98.13 C264.29 100.77, 152.01 100.08, -1 97.2 M-3.19 101.51 C0.39 68.86, 4.3 34.05, 0.43 -0.98 M-1.44 99.65 C-1.96 67.8, -1.45 37.07, 1.36 0.62" stroke="#000000" stroke-width="4" fill="none"></path></g><g transform="translate(103.19512195121933 392.45121951219426) rotate(0 101.5 19.5)"><text x="101.5" y="27" font-family="Virgil, Segoe UI Emoji" font-size="30.012543554006964px" fill="#000000" text-anchor="middle" style="white-space: pre;" direction="ltr">Ввод фамилии</text></g><g stroke-linecap="round" transform="translate(21.514227642276182 521.8597560975606) rotate(0 187.3678861788617 49.19715447154459)"><path d="M-0.64 0.73 C147.8 -2.76, 299.7 -1.54, 374.85 -2.28 M-0.95 -1.22 C130.65 1.45, 261.96 -0.16, 374.47 -1.13 M371.36 1.83 C374.35 33.81, 373.98 71.15, 375.43 99.44 M376.67 0.89 C375.11 18.81, 372.36 41.55, 373.26 98.03 M376.63 100.13 C292.81 97.44, 209.11 97.6, 1.08 99.82 M375.11 98.04 C289.95 96.74, 204.22 96.2, 0.98 98.19 M-0.08 94.44 C2.05 63.31, 2.23 29.58, -1.41 -0.42 M-0.26 97.98 C0.98 67.51, 0.83 37.67, -1 0.2" stroke="#000000" stroke-width="4" fill="none"></path></g><g stroke-linecap="round" transform="translate(22.560975609756042 693.5264227642269) rotate(0 182.13414634146335 63.851626016260184)"><path d="M59.75 15.28 C71.75 9.95, 92.27 7.46, 109.86 4.94 C127.44 2.42, 145.59 0.53, 165.28 0.18 C184.97 -0.18, 208.5 1.26, 227.99 2.78 C247.48 4.3, 265.91 5.87, 282.21 9.29 C298.51 12.72, 313.56 17.87, 325.77 23.31 C337.99 28.76, 349.4 35.12, 355.49 41.94 C361.58 48.76, 362.83 56.94, 362.32 64.24 C361.82 71.54, 358.5 79.28, 352.44 85.77 C346.38 92.25, 337.78 98, 325.99 103.14 C314.2 108.27, 298.16 112.69, 281.69 116.57 C265.22 120.46, 246.26 124.58, 227.17 126.44 C208.08 128.29, 186.76 128.38, 167.14 127.7 C147.53 127.02, 127.8 125.36, 109.46 122.38 C91.12 119.4, 71.64 114.39, 57.08 109.84 C42.52 105.29, 31.3 100.9, 22.08 95.07 C12.86 89.23, 5.29 81.71, 1.75 74.84 C-1.78 67.97, -2.2 60.53, 0.86 53.84 C3.92 47.16, 9.26 41.04, 20.11 34.75 C30.97 28.46, 56.92 19.63, 65.97 16.11 C75.02 12.58, 72.23 12.9, 74.42 13.61 M168.48 0.85 C186.73 -0.85, 205.15 1.25, 224.52 2.47 C243.88 3.69, 267.28 4.74, 284.68 8.16 C302.07 11.59, 316.78 17.07, 328.87 23.02 C340.96 28.97, 351.35 37.12, 357.2 43.87 C363.05 50.62, 364.09 56.83, 363.95 63.5 C363.81 70.17, 362.32 77.39, 356.37 83.89 C350.43 90.38, 341.29 96.55, 328.3 102.48 C315.31 108.41, 295.57 115.87, 278.46 119.46 C261.34 123.06, 244.27 123.02, 225.62 124.03 C206.98 125.05, 186.03 125.95, 166.57 125.56 C147.12 125.18, 126.86 124.07, 108.89 121.75 C90.92 119.43, 72.95 116.33, 58.75 111.65 C44.55 106.97, 33.4 100.21, 23.69 93.68 C13.98 87.16, 4.07 79.64, 0.5 72.49 C-3.07 65.34, -1.42 56.85, 2.26 50.79 C5.95 44.74, 13.45 42.16, 22.59 36.17 C31.73 30.18, 42.51 19.8, 57.09 14.87 C71.68 9.94, 91.52 8.68, 110.08 6.58 C128.65 4.49, 158.93 3.29, 168.48 2.3 C178.04 1.31, 167.75 0.26, 167.43 0.65" stroke="#000000" stroke-width="4" fill="none"></path></g><g transform="translate(100.38211382113786 557.6585365853653) rotate(0 108.5 19.5)"><text x="108.5" y="27" font-family="Virgil, Segoe UI Emoji" font-size="30.14634146341463px" fill="#000000" text-anchor="middle" style="white-space: pre;" direction="ltr">Ввод возраста</text></g><g stroke-linecap="round"><g transform="translate(187.94715447154454 139.79674796747918) rotate(0 -0.29624805718663083 36.3601239450436)"><path d="M-2.14 0.82 C-2.04 12.79, -0.28 61.96, -0.16 73.92 M1.89 -1.2 C1.67 9.86, -1.5 58.89, -2.48 70.4" stroke="#000000" stroke-width="4" fill="none"></path></g><g transform="translate(187.94715447154454 139.79674796747918) rotate(0 -0.29624805718663083 36.3601239450436)"><path d="M-9.51 41.32 C-4.09 47.49, -3.72 59.43, -2.93 73.54 M-10.79 43.14 C-9.06 50.71, -7.5 57.01, -2.89 69.13" stroke="#000000" stroke-width="4" fill="none"></path></g><g transform="translate(187.94715447154454 139.79674796747918) rotate(0 -0.29624805718663083 36.3601239450436)"><path d="M10.96 42.8 C10.78 48.26, 5.56 59.8, -2.93 73.54 M9.68 44.63 C5.76 51.68, 1.69 57.57, -2.89 69.13" stroke="#000000" stroke-width="4" fill="none"></path></g></g><g stroke-linecap="round"><g transform="translate(184.00824024300982 291.9765741119861) rotate(0 1.2351756511179133 34.15140901809309)"><path d="M-0.64 -0.57 C-1.21 11.31, -1.47 57.24, -1.78 69.14 M4.21 -3.36 C4.39 9.03, 3.87 58.81, 3.66 71.66" stroke="#000000" stroke-width="4" fill="none"></path></g><g transform="translate(184.00824024300982 291.9765741119861) rotate(0 1.2351756511179133 34.15140901809309)"><path d="M-7.07 40.81 C-6.05 50, -0.11 66.89, 4.45 74.02 M-5.63 41.63 C-3.26 53.29, 0.23 61.72, 5.11 70.57" stroke="#000000" stroke-width="4" fill="none"></path></g><g transform="translate(184.00824024300982 291.9765741119861) rotate(0 1.2351756511179133 34.15140901809309)"><path d="M13.45 41.06 C7.11 50.07, 5.67 66.87, 4.45 74.02 M14.89 41.89 C10.18 53.67, 6.59 62.01, 5.11 70.57" stroke="#000000" stroke-width="4" fill="none"></path></g></g><g stroke-linecap="round"><g transform="translate(196.56921585276586 457.3627529737744) rotate(0 0.8785249598554401 34.77851596275082)"><path d="M1.79 -1.71 C1.98 10.07, 2.53 57.16, 2.43 68.88 M-0.68 3.54 C-0.77 15.75, 1.4 60.13, 1.51 71.26" stroke="#000000" stroke-width="4" fill="none"></path></g><g transform="translate(196.56921585276586 457.3627529737744) rotate(0 0.8785249598554401 34.77851596275082)"><path d="M-12.06 46.88 C-9.4 54.59, -5.92 61.71, 0.18 67.44 M-8.46 42.69 C-5.69 54.83, -2.62 63.36, 3.28 70.07" stroke="#000000" stroke-width="4" fill="none"></path></g><g transform="translate(196.56921585276586 457.3627529737744) rotate(0 0.8785249598554401 34.77851596275082)"><path d="M8.45 46.24 C3.99 54.43, 0.35 61.78, 0.18 67.44 M12.05 42.05 C6.88 54.49, 2.02 63.27, 3.28 70.07" stroke="#000000" stroke-width="4" fill="none"></path></g></g><g stroke-linecap="round"><g transform="translate(190.28872804788784 626.9359237054819) rotate(0 0.1237817527290872 34.845404558570294)"><path d="M0.34 -2.18 C-0.37 9.28, -1.68 57.18, -2.09 69.27 M-2.92 2.81 C-2.94 14.53, 2.1 60.16, 3.17 71.87" stroke="#000000" stroke-width="4" fill="none"></path></g><g transform="translate(190.28872804788784 626.9359237054819) rotate(0 0.1237817527290872 34.845404558570294)"><path d="M-12.96 41.85 C-7.58 51.89, -1.09 65.99, 1.25 75.05 M-9.28 46.38 C-4.76 51.09, -0.23 62.49, 1.88 73.58" stroke="#000000" stroke-width="4" fill="none"></path></g><g transform="translate(190.28872804788784 626.9359237054819) rotate(0 0.1237817527290872 34.845404558570294)"><path d="M7.46 39.8 C5.17 50.66, 3.98 65.53, 1.25 75.05 M11.13 44.33 C9.83 49.25, 8.51 61.23, 1.88 73.58" stroke="#000000" stroke-width="4" fill="none"></path></g></g><g stroke-linecap="round" transform="translate(584.9999999999998 794.9796747967471) rotate(0 304.9999999999999 107.5)"><path d="M307.08 -0.5 C371.63 21.33, 433.8 42.56, 612.06 106.04 M305.95 -0.75 C367.8 27.02, 434.14 48.38, 609.79 109.18 M609.2 109.22 C542.45 132.87, 475.75 155.25, 302.96 217.49 M611.04 106.97 C515.25 140.74, 416.79 174.12, 304.51 216.2 M307.41 212.67 C209.58 181.02, 109.19 145.28, 2.43 108.39 M304.76 214.33 C199.31 181.5, 90 141.7, 1.26 108.96 M-2.71 106.11 C72.81 77.39, 138.85 54.62, 304.45 -1.81 M0.77 108.9 C95.01 70.98, 191.47 35.9, 305.3 0.84" stroke="#000000" stroke-width="4" fill="none"></path></g><g transform="translate(734.9999999999997 879.4796747967471) rotate(0 155 23)"><text x="155" y="32" font-family="Virgil, Segoe UI Emoji" font-size="36px" fill="#000000" text-anchor="middle" style="white-space: pre;" direction="ltr">Возраст  &gt;= 18 ?</text></g><g stroke-linecap="round" transform="translate(39.999999999999886 1119.979674796747) rotate(0 251.24999999999994 98.75)"><path d="M-1.46 -0.2 C177.75 -2.11, 358.64 -1.4, 502.56 -0.06 M0.24 0.64 C194.34 -2.42, 387.44 -3.65, 503.23 -0.68 M502.53 -1.87 C505.13 45.23, 499.9 84.92, 501.35 196.55 M503.94 1.26 C500.03 42.08, 500.12 87.67, 503.06 196.36 M501.12 196.86 C361.33 198.18, 218.27 198.12, 0.2 198.28 M502.12 197.3 C387.82 197.01, 271.11 196.82, 0.03 197.98 M0.23 200.57 C-1.5 148.71, -1.22 94.74, -2.75 0.84 M1.78 198.34 C-4.63 142.97, -4.83 89.09, -1.5 -0.11" stroke="#000000" stroke-width="4" fill="none"></path></g><g transform="translate(128.49999999999977 1173.979674796747) rotate(0 166.5 45.5)"><text x="166.5" y="32.5" font-family="Virgil, Segoe UI Emoji" font-size="36px" fill="#000000" text-anchor="middle" style="white-space: pre;" direction="ltr">"Начать учиться </text><text x="166.5" y="78" font-family="Virgil, Segoe UI Emoji" font-size="36px" fill="#000000" text-anchor="middle" style="white-space: pre;" direction="ltr">никогда не поздно!"</text></g><g stroke-linecap="round" transform="translate(1248.7499999999995 1126.229674796747) rotate(0 251.24999999999994 98.75)"><path d="M-1.28 -0.78 C148.33 -1.62, 298.68 -1.47, 501.91 -0.14 M0.7 -0.27 C102.93 4, 205.95 3.38, 502.08 0.53 M498.98 2.1 C503.46 77.92, 500.45 146.74, 498.72 194.45 M503.23 0.05 C502.74 65.76, 505.24 131.6, 502.13 197.45 M503.17 196.33 C375.49 197.57, 248.62 197.42, -1.29 196.69 M502.66 197.92 C399.79 201.2, 297.88 200.21, -0.43 197.04 M-0.01 200.32 C2.81 140.21, 3.56 87.82, 0.96 1.12 M-0.5 198.24 C4.74 130.62, 3.11 65.11, 0.76 -0.18" stroke="#000000" stroke-width="4" fill="none"></path></g><g transform="translate(1388.249999999999 1180.229674796747) rotate(0 115.5 45.5)"><text x="115.5" y="32.5" font-family="Virgil, Segoe UI Emoji" font-size="36px" fill="#000000" text-anchor="middle" style="white-space: pre;" direction="ltr">"Самое время</text><text x="115.5" y="78" font-family="Virgil, Segoe UI Emoji" font-size="36px" fill="#000000" text-anchor="middle" style="white-space: pre;" direction="ltr">учиться"</text></g><g stroke-linecap="round" transform="translate(681.2499999999997 1641.229674796747) rotate(0 228.7499999999999 78.74999999999989)"><path d="M237.02 -0.52 C258.77 -1.23, 284.41 3.56, 305.55 6.3 C326.69 9.05, 345.83 11.47, 363.85 15.94 C381.86 20.42, 399.86 26.92, 413.64 33.15 C427.42 39.38, 438.96 46.37, 446.53 53.32 C454.1 60.27, 458.53 67.46, 459.05 74.87 C459.56 82.28, 455.9 90.25, 449.6 97.78 C443.31 105.32, 433.14 112.99, 421.27 120.07 C409.4 127.14, 395.09 135.28, 378.38 140.25 C361.68 145.23, 341.88 147.27, 321.06 149.89 C300.25 152.52, 275.97 154.74, 253.49 155.99 C231.01 157.25, 208.41 158.88, 186.18 157.44 C163.95 156, 140.33 151.35, 120.12 147.34 C99.92 143.33, 80.46 138.6, 64.96 133.36 C49.46 128.13, 37.26 122.75, 27.12 115.94 C16.98 109.14, 8.5 100.56, 4.14 92.52 C-0.23 84.47, -1.77 75.54, 0.96 67.67 C3.68 59.8, 11.27 52.12, 20.49 45.29 C29.71 38.45, 41.81 32.43, 56.27 26.65 C70.74 20.88, 88.18 14.44, 107.29 10.62 C126.4 6.8, 144.89 5.29, 170.94 3.75 C196.99 2.2, 243.94 1.11, 263.6 1.34 C283.25 1.58, 289.71 4.27, 288.89 5.17 M138.36 4.2 C156.42 0.07, 182.57 1.66, 205.6 1.02 C228.62 0.39, 253.92 -1.08, 276.51 0.38 C299.1 1.83, 321.51 5.65, 341.11 9.76 C360.72 13.88, 378.82 19.93, 394.16 25.09 C409.5 30.25, 423.31 34.47, 433.14 40.74 C442.97 47.01, 449.22 54.7, 453.14 62.72 C457.07 70.74, 459.49 80.98, 456.69 88.86 C453.89 96.74, 445.43 102.77, 436.34 109.99 C427.25 117.21, 417.2 125.86, 402.16 132.19 C387.12 138.52, 365.27 144.58, 346.09 147.96 C326.91 151.34, 308.57 151.02, 287.09 152.45 C265.6 153.89, 239.62 156.14, 217.2 156.59 C194.77 157.04, 173.53 157.94, 152.51 155.16 C131.5 152.39, 109.87 144.53, 91.13 139.92 C72.39 135.31, 53.71 133.09, 40.06 127.52 C26.41 121.95, 15.48 113.89, 9.24 106.5 C3.01 99.11, 3.11 91.17, 2.65 83.16 C2.19 75.15, 1.17 66, 6.49 58.43 C11.81 50.86, 22.17 44.17, 34.57 37.74 C46.97 31.3, 63.1 25.01, 80.87 19.82 C98.65 14.64, 130.73 9.04, 141.22 6.64 C151.71 4.25, 142.45 4.15, 143.8 5.46" stroke="#000000" stroke-width="4" fill="none"></path></g><g transform="translate(788.7499999999994 1672.729674796747) rotate(0 96 44.5)"><text x="0" y="62" font-family="Virgil, Segoe UI Emoji" font-size="69.99999999999999px" fill="#000000" text-anchor="start" style="white-space: pre;" direction="ltr">Конец</text></g><g stroke-linecap="round"><g transform="translate(870.9019462028514 669.9012449136247) rotate(0 -0.08104697583140563 65.73877718184133)"><path d="M2.77 -2.72 C2.33 18.93, 0.34 109.11, -0.41 131.25 M0.83 1.97 C-0.22 23.87, -3.42 112.54, -2.87 134.2" stroke="#000000" stroke-width="4" fill="none"></path></g><g transform="translate(870.9019462028514 669.9012449136247) rotate(0 -0.08104697583140563 65.73877718184133)"><path d="M-16.73 105.32 C-10.56 113.99, -8.4 124.69, -4.67 133.25 M-14.26 105.94 C-9.31 114.11, -5.37 123.92, -4.7 133.54" stroke="#000000" stroke-width="4" fill="none"></path></g><g transform="translate(870.9019462028514 669.9012449136247) rotate(0 -0.08104697583140563 65.73877718184133)"><path d="M3.79 105.54 C2.17 114.53, -3.46 125.15, -4.67 133.25 M6.26 106.16 C4.44 114.62, 1.61 124.37, -4.7 133.54" stroke="#000000" stroke-width="4" fill="none"></path></g></g><g stroke-linecap="round"><g transform="translate(1192.4999999999993 912.4796747967471) rotate(0 159.98414975001293 89.76655889745439)"><path d="M-0.73 -0.71 C47.1 -1.33, 233.1 -35.86, 285.95 -3.38 C338.79 29.1, 311.21 160.8, 316.32 194.16 M4.07 -3.57 C52.92 -3.81, 239.87 -33.63, 291.5 -0.23 C343.14 33.17, 309.67 164.82, 313.88 196.82" stroke="#000000" stroke-width="4" fill="none"></path></g><g transform="translate(1192.4999999999993 912.4796747967471) rotate(0 159.98414975001293 89.76655889745439)"><path d="M304.33 165.83 C306.4 173.97, 308.7 181.98, 316.43 193.62 M304.1 169.94 C308.72 175.68, 309.41 184.15, 313.8 197.3" stroke="#000000" stroke-width="4" fill="none"></path></g><g transform="translate(1192.4999999999993 912.4796747967471) rotate(0 159.98414975001293 89.76655889745439)"><path d="M324.81 167.08 C321.5 174.79, 318.42 182.46, 316.43 193.62 M324.58 171.19 C323.53 176.24, 318.52 184.36, 313.8 197.3" stroke="#000000" stroke-width="4" fill="none"></path></g></g><g stroke-linecap="round"><g transform="translate(282.566409767366 902.7131158992927) rotate(0 137.90936470575497 90.26607286726528)"><path d="M280.06 0.6 C237.82 0.08, 70.66 -35.34, 23.91 -3.04 C-22.84 29.26, 3.73 161.53, -0.44 194.37 M277.9 -1.54 C236.54 -1.64, 75.78 -32.82, 29.04 0.3 C-17.69 33.41, 2.54 164.52, -2.49 197.14" stroke="#000000" stroke-width="4" fill="none"></path></g><g transform="translate(282.566409767366 902.7131158992927) rotate(0 137.90936470575497 90.26607286726528)"><path d="M-11.78 165.58 C-10.47 176.24, -7.68 183.41, -3.92 193.5 M-14.2 169.58 C-9.68 174.82, -6.33 185.87, -3.63 197.16" stroke="#000000" stroke-width="4" fill="none"></path></g><g transform="translate(282.566409767366 902.7131158992927) rotate(0 137.90936470575497 90.26607286726528)"><path d="M8.74 165.66 C4.14 176.64, 1.03 183.79, -3.92 193.5 M6.32 169.66 C5.05 175.27, 2.6 186.31, -3.63 197.16" stroke="#000000" stroke-width="4" fill="none"></path></g></g><g transform="translate(1197.9999999999993 811.4796747967472) rotate(0 27 23)"><text x="27" y="32" font-family="Virgil, Segoe UI Emoji" font-size="36px" fill="#000000" text-anchor="middle" style="white-space: pre;" direction="ltr">ДА</text></g><g transform="translate(509.9999999999998 804.4796747967472) rotate(0 37.5 23)"><text x="37.5" y="32" font-family="Virgil, Segoe UI Emoji" font-size="36px" fill="#000000" text-anchor="middle" style="white-space: pre;" direction="ltr">НЕТ</text></g><g stroke-linecap="round"><g transform="translate(249.99999999999983 1329.979674796747) rotate(0 340.97088203611065 150.9354186800121)"><path d="M-0.64 2.79 C14.26 20.43, -14.32 89.35, 87.5 104.74 C189.32 120.12, 512.14 76.78, 610.26 95.09 C708.38 113.39, 664.61 180.51, 676.21 214.56 C687.82 248.62, 680.02 285.53, 679.91 299.43 M4.21 1.83 C19.13 18.82, -14.34 85.1, 86.62 100.94 C187.58 116.78, 511.48 77.56, 609.95 96.89 C708.42 116.22, 666.16 183.07, 677.45 216.93 C688.75 250.79, 677.69 285.69, 677.75 300.04" stroke="#000000" stroke-width="4" fill="none"></path></g><g transform="translate(249.99999999999983 1329.979674796747) rotate(0 340.97088203611065 150.9354186800121)"><path d="M674.74 274.43 C675.36 281.65, 670.35 286.24, 677.12 303.48 M669.41 269.42 C670.79 278.96, 672.7 286.72, 676.66 300" stroke="#000000" stroke-width="4" fill="none"></path></g><g transform="translate(249.99999999999983 1329.979674796747) rotate(0 340.97088203611065 150.9354186800121)"><path d="M695.13 276.77 C691 283.34, 681.24 287.4, 677.12 303.48 M689.79 271.75 C685.51 280.34, 681.72 287.45, 676.66 300" stroke="#000000" stroke-width="4" fill="none"></path></g></g><g stroke-linecap="round"><g transform="translate(1460.1289617619511 1346.2937167519935) rotate(0 -225.51768541837055 140.94289834017792)"><path d="M82.15 0.47 C69.51 16.71, 95.39 79.88, 4.03 95.17 C-87.33 110.46, -377.3 74.3, -466.01 92.21 C-554.71 110.12, -517.63 170.88, -528.19 202.64 C-538.75 234.41, -528.81 269.81, -529.36 282.81 M78.84 -1.74 C65.94 15.04, 92.21 81.78, 1.32 97.98 C-89.57 114.18, -378.47 77.59, -466.5 95.45 C-554.53 113.31, -516.02 173.79, -526.85 205.16 C-537.68 236.52, -531.29 270.23, -531.49 283.63" stroke="#000000" stroke-width="4" fill="none"></path></g><g transform="translate(1460.1289617619511 1346.2937167519935) rotate(0 -225.51768541837055 140.94289834017792)"><path d="M-542.65 254.82 C-543.26 265.74, -538.07 270.5, -531.74 287.17 M-544.59 254.19 C-541.2 265.48, -537.62 272.94, -531.23 282.69" stroke="#000000" stroke-width="4" fill="none"></path></g><g transform="translate(1460.1289617619511 1346.2937167519935) rotate(0 -225.51768541837055 140.94289834017792)"><path d="M-522.17 253.66 C-527.43 264.88, -526.87 269.9, -531.74 287.17 M-524.11 253.03 C-526.72 264.32, -529.14 272.12, -531.23 282.69" stroke="#000000" stroke-width="4" fill="none"></path></g></g></svg>