<svg version="1.1" xmlns="http://www.w3.org/2000/svg" viewBox="0 0 NaN NaN" width="NaN" height="NaN">
  <!-- svg-source:excalidraw -->
  
  <defs>
    <style class="style-fonts">
      @font-face {
        font-family: "Virgil";
        src: url("https://excalidraw.com/Virgil.woff2");
      }
      @font-face {
        font-family: "Cascadia";
        src: url("https://excalidraw.com/Cascadia.woff2");
      }
    </style>
  </defs>
  <rect x="0" y="0" width="NaN" height="NaN" fill="#ffffff"></rect><g stroke-linecap="round" transform="translate(0 0) rotate(0 100.7269539359263 57.558259391957876)"><path d="M201.45 57.56 C201.45 59.56, 201.27 61.58, 200.9 63.57 C200.54 65.57, 199.98 67.56, 199.25 69.53 C198.52 71.49, 197.61 73.44, 196.52 75.34 C195.44 77.25, 194.17 79.14, 192.75 80.97 C191.32 82.8, 189.71 84.6, 187.96 86.34 C186.2 88.07, 184.28 89.77, 182.22 91.39 C180.15 93.01, 177.93 94.58, 175.58 96.07 C173.23 97.56, 170.73 98.99, 168.13 100.33 C165.52 101.67, 162.77 102.95, 159.93 104.12 C157.09 105.3, 154.13 106.4, 151.09 107.41 C148.05 108.41, 144.9 109.32, 141.7 110.14 C138.49 110.96, 135.19 111.68, 131.85 112.3 C128.52 112.92, 125.1 113.44, 121.67 113.86 C118.24 114.28, 114.75 114.59, 111.26 114.8 C107.77 115.01, 104.24 115.12, 100.73 115.12 C97.22 115.12, 93.69 115.01, 90.2 114.8 C86.71 114.59, 83.22 114.28, 79.78 113.86 C76.35 113.44, 72.94 112.92, 69.6 112.3 C66.26 111.68, 62.96 110.96, 59.76 110.14 C56.55 109.32, 53.4 108.41, 50.36 107.41 C47.32 106.4, 44.36 105.3, 41.52 104.12 C38.68 102.95, 35.94 101.67, 33.33 100.33 C30.72 98.99, 28.22 97.56, 25.87 96.07 C23.52 94.58, 21.3 93.01, 19.24 91.39 C17.17 89.77, 15.25 88.07, 13.49 86.34 C11.74 84.6, 10.14 82.8, 8.71 80.97 C7.28 79.14, 6.01 77.25, 4.93 75.34 C3.85 73.44, 2.93 71.49, 2.2 69.53 C1.47 67.56, 0.92 65.57, 0.55 63.57 C0.18 61.58, 0 59.56, 0 57.56 C0 55.55, 0.18 53.54, 0.55 51.54 C0.92 49.55, 1.47 47.55, 2.2 45.59 C2.93 43.63, 3.85 41.68, 4.93 39.77 C6.01 37.86, 7.28 35.98, 8.71 34.15 C10.14 32.32, 11.74 30.52, 13.49 28.78 C15.25 27.04, 17.17 25.35, 19.24 23.73 C21.3 22.1, 23.52 20.53, 25.87 19.04 C28.22 17.55, 30.72 16.13, 33.33 14.78 C35.94 13.44, 38.68 12.17, 41.52 10.99 C44.36 9.81, 47.32 8.71, 50.36 7.71 C53.4 6.71, 56.55 5.79, 59.76 4.98 C62.96 4.16, 66.26 3.44, 69.6 2.82 C72.94 2.2, 76.35 1.67, 79.78 1.26 C83.22 0.84, 86.71 0.52, 90.2 0.32 C93.69 0.11, 97.22 0, 100.73 0 C104.24 0, 107.77 0.11, 111.26 0.32 C114.75 0.52, 118.24 0.84, 121.67 1.26 C125.1 1.67, 128.52 2.2, 131.85 2.82 C135.19 3.44, 138.49 4.16, 141.7 4.98 C144.9 5.79, 148.05 6.71, 151.09 7.71 C154.13 8.71, 157.09 9.81, 159.93 10.99 C162.77 12.17, 165.52 13.44, 168.13 14.78 C170.73 16.13, 173.23 17.55, 175.58 19.04 C177.93 20.53, 180.15 22.1, 182.22 23.73 C184.28 25.35, 186.2 27.04, 187.96 28.78 C189.71 30.52, 191.32 32.32, 192.75 34.15 C194.17 35.98, 195.44 37.86, 196.52 39.77 C197.61 41.68, 198.52 43.63, 199.25 45.59 C199.98 47.55, 200.54 49.55, 200.9 51.54 C201.27 53.54, 201.36 56.56, 201.45 57.56 C201.55 58.56, 201.55 56.56, 201.45 57.56" stroke="#000000" stroke-width="1" fill="none"></path></g><g transform="translate(0 0) rotate(0 23.5 13)"><text x="23.5" y="19" font-family="Virgil, Segoe UI Emoji" font-size="20px" fill="#000000" text-anchor="middle" style="white-space: pre;" direction="ltr">begin</text></g><g stroke-linecap="round" transform="translate(0 0) rotate(0 161.48289440521523 44)"><path d="M0 0 C118.45 0, 236.91 0, 322.97 0 M0 0 C105.12 0, 210.23 0, 322.97 0 M322.97 0 C322.97 27.27, 322.97 54.55, 322.97 88 M322.97 0 C322.97 34.82, 322.97 69.64, 322.97 88 M322.97 88 C194.17 88, 65.37 88, 0 88 M322.97 88 C227.79 88, 132.62 88, 0 88 M0 88 C0 63.06, 0 38.11, 0 0 M0 88 C0 68.88, 0 49.76, 0 0" stroke="#000000" stroke-width="1" fill="none"></path></g><g transform="translate(0 0) rotate(0 91.5 26)"><text x="91.5" y="19" font-family="Virgil, Segoe UI Emoji" font-size="20px" fill="#000000" text-anchor="middle" style="white-space: pre;" direction="ltr">Выбрать с чем </text><text x="91.5" y="45" font-family="Virgil, Segoe UI Emoji" font-size="20px" fill="#000000" text-anchor="middle" style="white-space: pre;" direction="ltr">взаимодействовать</text></g><g stroke-linecap="round" transform="translate(0 0) rotate(0 198.28122207312435 74.55806170597049)"><path d="M199 0 C246.39 17.99, 293.79 35.98, 396.56 75 M199 0 C249.1 19.02, 299.2 38.04, 396.56 75 M396.56 75 C332.57 99.01, 268.58 123.01, 199 149.12 M396.56 75 C347.88 93.26, 299.2 111.53, 199 149.12 M199 149.12 C154.02 132.36, 109.04 115.61, 0 75 M199 149.12 C143.49 128.44, 87.98 107.77, 0 75 M0 75 C40.43 59.76, 80.87 44.52, 199 0 M0 75 C63.13 51.21, 126.25 27.42, 199 0" stroke="#000000" stroke-width="1" fill="none"></path></g><g transform="translate(0 0) rotate(0 107 13)"><text x="107" y="19" font-family="Virgil, Segoe UI Emoji" font-size="20px" fill="#000000" text-anchor="middle" style="white-space: pre;" direction="ltr">Работаем с постами?</text></g><g stroke-linecap="round"><g transform="translate(0 0) rotate(0 169.64660417155608 0)"><path d="M0 0 C86.28 0, 172.55 0, 339.29 0 M0 0 C85.18 0, 170.35 0, 339.29 0" stroke="#000000" stroke-width="1" fill="none"></path></g><g transform="translate(0 0) rotate(0 169.64660417155608 0)"><path d="M311.1 10.26 C318.27 7.65, 325.44 5.04, 339.29 0 M311.1 10.26 C318.18 7.68, 325.26 5.11, 339.29 0" stroke="#000000" stroke-width="1" fill="none"></path></g><g transform="translate(0 0) rotate(0 169.64660417155608 0)"><path d="M311.1 -10.26 C318.27 -7.65, 325.44 -5.04, 339.29 0 M311.1 -10.26 C318.18 -7.68, 325.26 -5.11, 339.29 0" stroke="#000000" stroke-width="1" fill="none"></path></g></g><mask></mask><g transform="translate(0 0) rotate(0 21.5 13)"><text x="0" y="19" font-family="Virgil, Segoe UI Emoji" font-size="20px" fill="#000000" text-anchor="start" style="white-space: pre;" direction="ltr">НЕТ</text></g><g stroke-linecap="round" transform="translate(0 0) rotate(0 161.48289440521523 44)"><path d="M0 0 C84.46 0, 168.91 0, 322.97 0 M0 0 C86.62 0, 173.25 0, 322.97 0 M322.97 0 C322.97 32.25, 322.97 64.51, 322.97 88 M322.97 0 C322.97 34.47, 322.97 68.94, 322.97 88 M322.97 88 C252.96 88, 182.95 88, 0 88 M322.97 88 C249.7 88, 176.44 88, 0 88 M0 88 C0 59.93, 0 31.86, 0 0 M0 88 C0 59.79, 0 31.58, 0 0" stroke="#000000" stroke-width="1" fill="none"></path></g><g transform="translate(0 0) rotate(0 111 13)"><text x="111" y="19" font-family="Virgil, Segoe UI Emoji" font-size="20px" fill="#000000" text-anchor="middle" style="white-space: pre;" direction="ltr">Выбор взаимодействия</text></g><g stroke-linecap="round" transform="translate(0 0) rotate(0 161.48289440521523 44)"><path d="M0 0 C97.25 0, 194.49 0, 322.97 0 M0 0 C113.99 0, 227.98 0, 322.97 0 M322.97 0 C322.97 33.57, 322.97 67.14, 322.97 88 M322.97 0 C322.97 33.64, 322.97 67.28, 322.97 88 M322.97 88 C257.82 88, 192.67 88, 0 88 M322.97 88 C221.31 88, 119.66 88, 0 88 M0 88 C0 69.04, 0 50.08, 0 0 M0 88 C0 69.49, 0 50.97, 0 0" stroke="#000000" stroke-width="1" fill="none"></path></g><g transform="translate(0 0) rotate(0 23.5 13)"><text x="23.5" y="19" font-family="Virgil, Segoe UI Emoji" font-size="20px" fill="#000000" text-anchor="middle" style="white-space: pre;" direction="ltr">GET</text></g><g stroke-linecap="round" transform="translate(0 0) rotate(0 208.37037282467782 92.67635768074331)"><path d="M209 0 C274.39 29.27, 339.77 58.54, 416.74 93 M209 0 C253.76 20.04, 298.52 40.08, 416.74 93 M416.74 93 C373.04 112.43, 329.33 131.86, 209 185.35 M416.74 93 C349.08 123.08, 281.43 153.15, 209 185.35 M209 185.35 C166.86 166.73, 124.72 148.11, 0 93 M209 185.35 C148.18 158.48, 87.36 131.6, 0 93 M0 93 C80.92 56.99, 161.84 20.98, 209 0 M0 93 C69.39 62.12, 138.78 31.25, 209 0" stroke="#000000" stroke-width="1" fill="none"></path></g><g transform="translate(0 0) rotate(0 162 13)"><text x="162" y="19" font-family="Virgil, Segoe UI Emoji" font-size="20px" fill="#000000" text-anchor="middle" style="white-space: pre;" direction="ltr">Открываем все посты или один?</text></g><g transform="translate(0 0) rotate(0 67 13)"><text x="0" y="19" font-family="Virgil, Segoe UI Emoji" font-size="20px" fill="#000000" text-anchor="start" style="white-space: pre;" direction="ltr">Определенный</text></g><g transform="translate(0 0) rotate(0 19 13)"><text x="0" y="19" font-family="Virgil, Segoe UI Emoji" font-size="20px" fill="#000000" text-anchor="start" style="white-space: pre;" direction="ltr">Все</text></g><g stroke-linecap="round" transform="translate(0 0) rotate(0 161.48289440521523 44)"><path d="M0 0 C88.92 0, 177.85 0, 322.97 0 M0 0 C79.05 0, 158.1 0, 322.97 0 M322.97 0 C322.97 22.94, 322.97 45.89, 322.97 88 M322.97 0 C322.97 18.01, 322.97 36.02, 322.97 88 M322.97 88 C205.6 88, 88.23 88, 0 88 M322.97 88 C246.21 88, 169.45 88, 0 88 M0 88 C0 53.62, 0 19.24, 0 0 M0 88 C0 63.52, 0 39.03, 0 0" stroke="#000000" stroke-width="1" fill="none"></path></g><g transform="translate(0 0) rotate(0 98.5 13)"><text x="98.5" y="19" font-family="Virgil, Segoe UI Emoji" font-size="20px" fill="#000000" text-anchor="middle" style="white-space: pre;" direction="ltr">Вывести все посты</text></g><g stroke-linecap="round" transform="translate(0 0) rotate(0 161.48289440521523 44)"><path d="M0 0 C123.72 0, 247.45 0, 322.97 0 M0 0 C71.93 0, 143.87 0, 322.97 0 M322.97 0 C322.97 20.16, 322.97 40.32, 322.97 88 M322.97 0 C322.97 35.13, 322.97 70.26, 322.97 88 M322.97 88 C257.2 88, 191.44 88, 0 88 M322.97 88 C253.04 88, 183.12 88, 0 88 M0 88 C0 68.36, 0 48.72, 0 0 M0 88 C0 53.63, 0 19.26, 0 0" stroke="#000000" stroke-width="1" fill="none"></path></g><g transform="translate(0 0) rotate(0 87 13)"><text x="87" y="19" font-family="Virgil, Segoe UI Emoji" font-size="20px" fill="#000000" text-anchor="middle" style="white-space: pre;" direction="ltr">Ввести ID поста</text></g><g stroke-linecap="round" transform="translate(0 0) rotate(0 161.48289440521523 44)"><path d="M0 0 C125.94 0, 251.88 0, 322.97 0 M0 0 C88.34 0, 176.68 0, 322.97 0 M322.97 0 C322.97 30.98, 322.97 61.96, 322.97 88 M322.97 0 C322.97 33.39, 322.97 66.78, 322.97 88 M322.97 88 C194.07 88, 65.18 88, 0 88 M322.97 88 C245.37 88, 167.77 88, 0 88 M0 88 C0 69.86, 0 51.72, 0 0 M0 88 C0 69, 0 50, 0 0" stroke="#000000" stroke-width="1" fill="none"></path></g><g transform="translate(0 0) rotate(0 98.5 13)"><text x="98.5" y="19" font-family="Virgil, Segoe UI Emoji" font-size="20px" fill="#000000" text-anchor="middle" style="white-space: pre;" direction="ltr">Вывод поста по ID</text></g><g stroke-linecap="round"><g transform="translate(0 0) rotate(0 0 26.19052321081358)"><path d="M0 0 C0 18.42, 0 36.83, 0 52.38 M0 0 C0 16.39, 0 32.78, 0 52.38" stroke="#000000" stroke-width="1" fill="none"></path></g><g transform="translate(0 0) rotate(0 0 26.19052321081358)"><path d="M-8.96 27.77 C-5.81 36.42, -2.66 45.08, 0 52.38 M-8.96 27.77 C-6.16 35.47, -3.35 43.17, 0 52.38" stroke="#000000" stroke-width="1" fill="none"></path></g><g transform="translate(0 0) rotate(0 0 26.19052321081358)"><path d="M8.96 27.77 C5.81 36.42, 2.66 45.08, 0 52.38 M8.96 27.77 C6.16 35.47, 3.35 43.17, 0 52.38" stroke="#000000" stroke-width="1" fill="none"></path></g></g><mask></mask><g stroke-linecap="round"><g transform="translate(0 0) rotate(0 64.09785943699126 57.89484078179845)"><path d="M0 0 C45.32 0, 90.64 0, 128.2 0 M0 0 C32.27 0, 64.53 0, 128.2 0 M128.2 0 C128.2 34.93, 128.2 69.86, 128.2 115.79 M128.2 0 C128.2 44.43, 128.2 88.85, 128.2 115.79" stroke="#000000" stroke-width="1" fill="none"></path></g><g transform="translate(0 0) rotate(0 64.09785943699126 57.89484078179845)"><path d="M117.94 87.6 C121.56 97.57, 125.19 107.53, 128.2 115.79 M117.94 87.6 C120.52 94.69, 123.1 101.79, 128.2 115.79" stroke="#000000" stroke-width="1" fill="none"></path></g><g transform="translate(0 0) rotate(0 64.09785943699126 57.89484078179845)"><path d="M138.46 87.6 C134.83 97.57, 131.2 107.53, 128.2 115.79 M138.46 87.6 C135.87 94.69, 133.29 101.79, 128.2 115.79" stroke="#000000" stroke-width="1" fill="none"></path></g></g><mask></mask><g stroke-linecap="round"><g transform="translate(0 0) rotate(0 -105.45131713827578 58.584065076819854)"><path d="M0 0 C-75.63 0, -151.27 0, -210.9 0 M0 0 C-68.17 0, -136.34 0, -210.9 0 M-210.9 0 C-210.9 26.64, -210.9 53.28, -210.9 117.17 M-210.9 0 C-210.9 25.57, -210.9 51.14, -210.9 117.17" stroke="#000000" stroke-width="1" fill="none"></path></g><g transform="translate(0 0) rotate(0 -105.45131713827578 58.584065076819854)"><path d="M-221.16 88.98 C-217.48 99.09, -213.8 109.2, -210.9 117.17 M-221.16 88.98 C-217.85 98.09, -214.53 107.2, -210.9 117.17" stroke="#000000" stroke-width="1" fill="none"></path></g><g transform="translate(0 0) rotate(0 -105.45131713827578 58.584065076819854)"><path d="M-200.64 88.98 C-204.32 99.09, -208 109.2, -210.9 117.17 M-200.64 88.98 C-203.96 98.09, -207.27 107.2, -210.9 117.17" stroke="#000000" stroke-width="1" fill="none"></path></g></g><mask></mask><g stroke-linecap="round" transform="translate(0 0) rotate(0 161.48289440521523 44)"><path d="M0 0 C76.63 0, 153.26 0, 322.97 0 M0 0 C104.85 0, 209.69 0, 322.97 0 M322.97 0 C322.97 21.82, 322.97 43.65, 322.97 88 M322.97 0 C322.97 18.29, 322.97 36.59, 322.97 88 M322.97 88 C231.37 88, 139.77 88, 0 88 M322.97 88 C223.41 88, 123.85 88, 0 88 M0 88 C0 55.62, 0 23.23, 0 0 M0 88 C0 63.31, 0 38.62, 0 0" stroke="#000000" stroke-width="1" fill="none"></path></g><g transform="translate(0 0) rotate(0 29 13)"><text x="29" y="19" font-family="Virgil, Segoe UI Emoji" font-size="20px" fill="#000000" text-anchor="middle" style="white-space: pre;" direction="ltr">POST</text></g><g stroke-linecap="round" transform="translate(0 0) rotate(0 161.48289440521523 44)"><path d="M0 0 C124.09 0, 248.18 0, 322.97 0 M0 0 C98.67 0, 197.33 0, 322.97 0 M322.97 0 C322.97 21.53, 322.97 43.05, 322.97 88 M322.97 0 C322.97 22.68, 322.97 45.36, 322.97 88 M322.97 88 C219.49 88, 116.02 88, 0 88 M322.97 88 C241.53 88, 160.09 88, 0 88 M0 88 C0 63.83, 0 39.66, 0 0 M0 88 C0 58.2, 0 28.4, 0 0" stroke="#000000" stroke-width="1" fill="none"></path></g><g transform="translate(0 0) rotate(0 90 13)"><text x="90" y="19" font-family="Virgil, Segoe UI Emoji" font-size="20px" fill="#000000" text-anchor="middle" style="white-space: pre;" direction="ltr">Ввести имя поста</text></g><g stroke-linecap="round" transform="translate(0 0) rotate(0 161.48289440521523 44)"><path d="M0 0 C68.29 0, 136.58 0, 322.97 0 M0 0 C76.78 0, 153.55 0, 322.97 0 M322.97 0 C322.97 21.97, 322.97 43.94, 322.97 88 M322.97 0 C322.97 30.18, 322.97 60.35, 322.97 88 M322.97 88 C201.66 88, 80.35 88, 0 88 M322.97 88 C244.96 88, 166.96 88, 0 88 M0 88 C0 69.52, 0 51.05, 0 0 M0 88 C0 66.76, 0 45.51, 0 0" stroke="#000000" stroke-width="1" fill="none"></path></g><g transform="translate(0 0) rotate(0 117 13)"><text x="117" y="19" font-family="Virgil, Segoe UI Emoji" font-size="20px" fill="#000000" text-anchor="middle" style="white-space: pre;" direction="ltr">Ввести описание поста</text></g><g stroke-linecap="round" transform="translate(0 0) rotate(0 161.48289440521523 44)"><path d="M0 0 C67.66 0, 135.33 0, 322.97 0 M0 0 C91.61 0, 183.21 0, 322.97 0 M322.97 0 C322.97 34.32, 322.97 68.65, 322.97 88 M322.97 0 C322.97 24.46, 322.97 48.92, 322.97 88 M322.97 88 C252.73 88, 182.5 88, 0 88 M322.97 88 C248.06 88, 173.15 88, 0 88 M0 88 C0 65.12, 0 42.24, 0 0 M0 88 C0 67.4, 0 46.79, 0 0" stroke="#000000" stroke-width="1" fill="none"></path></g><g transform="translate(0 0) rotate(0 98.5 13)"><text x="98.5" y="19" font-family="Virgil, Segoe UI Emoji" font-size="20px" fill="#000000" text-anchor="middle" style="white-space: pre;" direction="ltr">Создать новый пост</text></g><g stroke-linecap="round"><g transform="translate(0 0) rotate(0 1.1368683772161603e-13 35.83966334111335)"><path d="M0 0 C0 16.04, 0 32.08, 0 71.68 M0 0 C0 20.99, 0 41.99, 0 71.68" stroke="#000000" stroke-width="1" fill="none"></path></g><g transform="translate(0 0) rotate(0 1.1368683772161603e-13 35.83966334111335)"><path d="M-10.26 43.49 C-7.96 49.8, -5.67 56.11, 0 71.68 M-10.26 43.49 C-7.26 51.75, -4.25 60, 0 71.68" stroke="#000000" stroke-width="1" fill="none"></path></g><g transform="translate(0 0) rotate(0 1.1368683772161603e-13 35.83966334111335)"><path d="M10.26 43.49 C7.96 49.8, 5.67 56.11, 0 71.68 M10.26 43.49 C7.26 51.75, 4.25 60, 0 71.68" stroke="#000000" stroke-width="1" fill="none"></path></g></g><mask></mask><g stroke-linecap="round"><g transform="translate(0 0) rotate(0 0 30.32586898094212)"><path d="M0 0 C0 14.89, 0 29.79, 0 60.65 M0 0 C0 21.84, 0 43.67, 0 60.65" stroke="#000000" stroke-width="1" fill="none"></path></g><g transform="translate(0 0) rotate(0 0 30.32586898094212)"><path d="M-10.26 32.46 C-7.74 39.38, -5.22 46.31, 0 60.65 M-10.26 32.46 C-6.57 42.61, -2.87 52.76, 0 60.65" stroke="#000000" stroke-width="1" fill="none"></path></g><g transform="translate(0 0) rotate(0 0 30.32586898094212)"><path d="M10.26 32.46 C7.74 39.38, 5.22 46.31, 0 60.65 M10.26 32.46 C6.57 42.61, 2.87 52.76, 0 60.65" stroke="#000000" stroke-width="1" fill="none"></path></g></g><mask></mask><g stroke-linecap="round"><g transform="translate(0 0) rotate(0 0 15.162934490471116)"><path d="M0 0 C0 10.07, 0 20.13, 0 30.33 M0 0 C0 7.88, 0 15.75, 0 30.33" stroke="#000000" stroke-width="1" fill="none"></path></g><g transform="translate(0 0) rotate(0 0 15.162934490471116)"><path d="M-5.19 16.08 C-3.46 20.81, -1.74 25.54, 0 30.33 M-5.19 16.08 C-3.84 19.78, -2.49 23.48, 0 30.33" stroke="#000000" stroke-width="1" fill="none"></path></g><g transform="translate(0 0) rotate(0 0 15.162934490471116)"><path d="M5.19 16.08 C3.46 20.81, 1.74 25.54, 0 30.33 M5.19 16.08 C3.84 19.78, 2.49 23.48, 0 30.33" stroke="#000000" stroke-width="1" fill="none"></path></g></g><mask></mask><g stroke-linecap="round"><g transform="translate(0 0) rotate(0 0 14.473710195449598)"><path d="M0 0 C0 7.15, 0 14.29, 0 28.95 M0 0 C0 6.72, 0 13.43, 0 28.95" stroke="#000000" stroke-width="1" fill="none"></path></g><g transform="translate(0 0) rotate(0 0 14.473710195449598)"><path d="M-4.95 15.35 C-3.73 18.7, -2.51 22.06, 0 28.95 M-4.95 15.35 C-3.8 18.5, -2.65 21.66, 0 28.95" stroke="#000000" stroke-width="1" fill="none"></path></g><g transform="translate(0 0) rotate(0 0 14.473710195449598)"><path d="M4.95 15.35 C3.73 18.7, 2.51 22.06, 0 28.95 M4.95 15.35 C3.8 18.5, 2.65 21.66, 0 28.95" stroke="#000000" stroke-width="1" fill="none"></path></g></g><mask></mask><g stroke-linecap="round" transform="translate(0 0) rotate(0 161.48289440521523 44)"><path d="M0 0 C107.02 0, 214.03 0, 322.97 0 M0 0 C97.73 0, 195.47 0, 322.97 0 M322.97 0 C322.97 34.97, 322.97 69.94, 322.97 88 M322.97 0 C322.97 22.32, 322.97 44.63, 322.97 88 M322.97 88 C242.73 88, 162.49 88, 0 88 M322.97 88 C210.22 88, 97.48 88, 0 88 M0 88 C0 58.66, 0 29.31, 0 0 M0 88 C0 68.75, 0 49.49, 0 0" stroke="#000000" stroke-width="1" fill="none"></path></g><g transform="translate(0 0) rotate(0 23 13)"><text x="23" y="19" font-family="Virgil, Segoe UI Emoji" font-size="20px" fill="#000000" text-anchor="middle" style="white-space: pre;" direction="ltr">PUT</text></g><g stroke-linecap="round" transform="translate(0 0) rotate(0 161.48289440521535 44)"><path d="M0 0 C88.64 0, 177.28 0, 322.97 0 M0 0 C116.17 0, 232.34 0, 322.97 0 M322.97 0 C322.97 30.4, 322.97 60.8, 322.97 88 M322.97 0 C322.97 21.39, 322.97 42.77, 322.97 88 M322.97 88 C207.5 88, 92.02 88, 0 88 M322.97 88 C234.05 88, 145.13 88, 0 88 M0 88 C0 66.46, 0 44.92, 0 0 M0 88 C0 62.6, 0 37.2, 0 0" stroke="#000000" stroke-width="1" fill="none"></path></g><g transform="translate(0 0) rotate(0 43 13)"><text x="43" y="19" font-family="Virgil, Segoe UI Emoji" font-size="20px" fill="#000000" text-anchor="middle" style="white-space: pre;" direction="ltr">DELETE</text></g><g stroke-linecap="round" transform="translate(0 0) rotate(0 161.48289440521523 44)"><path d="M0 0 C84.25 0, 168.49 0, 322.97 0 M0 0 C90.31 0, 180.61 0, 322.97 0 M322.97 0 C322.97 34.09, 322.97 68.19, 322.97 88 M322.97 0 C322.97 34.63, 322.97 69.25, 322.97 88 M322.97 88 C221.6 88, 120.24 88, 0 88 M322.97 88 C245.82 88, 168.67 88, 0 88 M0 88 C0 56.79, 0 25.59, 0 0 M0 88 C0 58.09, 0 28.18, 0 0" stroke="#000000" stroke-width="1" fill="none"></path></g><g transform="translate(0 0) rotate(0 87 13)"><text x="87" y="19" font-family="Virgil, Segoe UI Emoji" font-size="20px" fill="#000000" text-anchor="middle" style="white-space: pre;" direction="ltr">Ввести ID поста</text></g><g stroke-linecap="round" transform="translate(0 0) rotate(0 186.5641710174441 58.755599313935306)"><path d="M187 0 C228.62 13.19, 270.24 26.39, 373.13 59 M187 0 C250.83 20.23, 314.67 40.47, 373.13 59 M373.13 59 C328.38 73.07, 283.62 87.14, 187 117.51 M373.13 59 C315.26 77.19, 257.39 95.38, 187 117.51 M187 117.51 C124.05 97.81, 61.1 78.12, 0 59 M187 117.51 C146.53 104.85, 106.07 92.19, 0 59 M0 59 C48.96 43.55, 97.92 28.11, 187 0 M0 59 C44.11 45.08, 88.21 31.17, 187 0" stroke="#000000" stroke-width="1" fill="none"></path></g><g transform="translate(0 0) rotate(0 90.5 13)"><text x="90.5" y="19" font-family="Virgil, Segoe UI Emoji" font-size="20px" fill="#000000" text-anchor="middle" style="white-space: pre;" direction="ltr">Пост существует?</text></g><g stroke-linecap="round"><g transform="translate(0 0) rotate(0 -1.817183483936219 32.70930271085058)"><path d="M0 0 C-0.77 13.94, -1.55 27.88, -3.63 65.42 M0 0 C-1.41 25.37, -2.82 50.74, -3.63 65.42" stroke="#000000" stroke-width="1" fill="none"></path></g><g transform="translate(0 0) rotate(0 -1.817183483936219 32.70930271085058)"><path d="M-12.32 36.7 C-10.47 42.82, -8.62 48.94, -3.63 65.42 M-12.32 36.7 C-8.95 47.84, -5.58 58.98, -3.63 65.42" stroke="#000000" stroke-width="1" fill="none"></path></g><g transform="translate(0 0) rotate(0 -1.817183483936219 32.70930271085058)"><path d="M8.17 37.84 C5.66 43.72, 3.14 49.59, -3.63 65.42 M8.17 37.84 C3.59 48.54, -0.99 59.23, -3.63 65.42" stroke="#000000" stroke-width="1" fill="none"></path></g></g><mask></mask><g stroke-linecap="round"><g transform="translate(0 0) rotate(0 0.605727827978626 13.931740043510445)"><path d="M0 0 C0.28 6.5, 0.57 13, 1.21 27.86 M0 0 C0.38 8.75, 0.76 17.5, 1.21 27.86" stroke="#000000" stroke-width="1" fill="none"></path></g><g transform="translate(0 0) rotate(0 0.605727827978626 13.931740043510445)"><path d="M-4.12 14.98 C-2.88 17.99, -1.63 20.99, 1.21 27.86 M-4.12 14.98 C-2.45 19.03, -0.77 23.07, 1.21 27.86" stroke="#000000" stroke-width="1" fill="none"></path></g><g transform="translate(0 0) rotate(0 0.605727827978626 13.931740043510445)"><path d="M5.41 14.56 C4.43 17.67, 3.45 20.77, 1.21 27.86 M5.41 14.56 C4.09 18.74, 2.77 22.92, 1.21 27.86" stroke="#000000" stroke-width="1" fill="none"></path></g></g><mask></mask><g stroke-linecap="round" transform="translate(0 0) rotate(0 161.48289440521512 44)"><path d="M0 0 C90.4 0, 180.8 0, 322.97 0 M0 0 C67.64 0, 135.28 0, 322.97 0 M322.97 0 C322.97 29.19, 322.97 58.37, 322.97 88 M322.97 0 C322.97 27.21, 322.97 54.43, 322.97 88 M322.97 88 C227.28 88, 131.59 88, 0 88 M322.97 88 C219.06 88, 115.15 88, 0 88 M0 88 C0 56.02, 0 24.03, 0 0 M0 88 C0 66.42, 0 44.85, 0 0" stroke="#000000" stroke-width="1" fill="none"></path></g><g transform="translate(0 0) rotate(0 106 26)"><text x="106" y="19" font-family="Virgil, Segoe UI Emoji" font-size="20px" fill="#000000" text-anchor="middle" style="white-space: pre;" direction="ltr">Ошибка - введен </text><text x="106" y="45" font-family="Virgil, Segoe UI Emoji" font-size="20px" fill="#000000" text-anchor="middle" style="white-space: pre;" direction="ltr">несуществующий пост</text></g><g stroke-linecap="round" transform="translate(0 0) rotate(0 161.48289440521523 44)"><path d="M0 0 C82.15 0, 164.29 0, 322.97 0 M0 0 C77.7 0, 155.39 0, 322.97 0 M322.97 0 C322.97 34.68, 322.97 69.36, 322.97 88 M322.97 0 C322.97 27.3, 322.97 54.6, 322.97 88 M322.97 88 C236.54 88, 150.12 88, 0 88 M322.97 88 C244.15 88, 165.34 88, 0 88 M0 88 C0 59.53, 0 31.06, 0 0 M0 88 C0 59.63, 0 31.25, 0 0" stroke="#000000" stroke-width="1" fill="none"></path></g><g transform="translate(0 0) rotate(0 138 13)"><text x="138" y="19" font-family="Virgil, Segoe UI Emoji" font-size="20px" fill="#000000" text-anchor="middle" style="white-space: pre;" direction="ltr">Вывести содержимое поста</text></g><g stroke-linecap="round" transform="translate(0 0) rotate(0 161.48289440521523 44)"><path d="M0 0 C124.53 0, 249.06 0, 322.97 0 M0 0 C104.01 0, 208.03 0, 322.97 0 M322.97 0 C322.97 33.55, 322.97 67.1, 322.97 88 M322.97 0 C322.97 20.93, 322.97 41.87, 322.97 88 M322.97 88 C232.34 88, 141.71 88, 0 88 M322.97 88 C200.24 88, 77.52 88, 0 88 M0 88 C0 65.96, 0 43.91, 0 0 M0 88 C0 59.61, 0 31.22, 0 0" stroke="#000000" stroke-width="1" fill="none"></path></g><g transform="translate(0 0) rotate(0 121 13)"><text x="121" y="19" font-family="Virgil, Segoe UI Emoji" font-size="20px" fill="#000000" text-anchor="middle" style="white-space: pre;" direction="ltr">Ввести новое имя поста</text></g><g stroke-linecap="round" transform="translate(0 0) rotate(0 186.5641710174441 58.75559931393536)"><path d="M187 0 C242.47 17.58, 297.93 35.16, 373.13 59 M187 0 C243.03 17.76, 299.06 35.52, 373.13 59 M373.13 59 C309.27 79.07, 245.41 99.15, 187 117.51 M373.13 59 C310.26 78.76, 247.39 98.53, 187 117.51 M187 117.51 C125.07 98.13, 63.13 78.75, 0 59 M187 117.51 C137.35 101.98, 87.7 86.44, 0 59 M0 59 C68.79 37.3, 137.57 15.6, 187 0 M0 59 C51.64 42.71, 103.27 26.42, 187 0" stroke="#000000" stroke-width="1" fill="none"></path></g><g transform="translate(0 0) rotate(0 79 13)"><text x="79" y="19" font-family="Virgil, Segoe UI Emoji" font-size="20px" fill="#000000" text-anchor="middle" style="white-space: pre;" direction="ltr">имя поста - nil?</text></g><g stroke-linecap="round" transform="translate(0 0) rotate(0 161.48289440521523 44)"><path d="M0 0 C115.24 0, 230.47 0, 322.97 0 M0 0 C73.8 0, 147.6 0, 322.97 0 M322.97 0 C322.97 25.7, 322.97 51.4, 322.97 88 M322.97 0 C322.97 34.52, 322.97 69.04, 322.97 88 M322.97 88 C225.25 88, 127.54 88, 0 88 M322.97 88 C203.22 88, 83.48 88, 0 88 M0 88 C0 52.96, 0 17.93, 0 0 M0 88 C0 55.65, 0 23.29, 0 0" stroke="#000000" stroke-width="1" fill="none"></path></g><g transform="translate(0 0) rotate(0 78 13)"><text x="78" y="19" font-family="Virgil, Segoe UI Emoji" font-size="20px" fill="#000000" text-anchor="middle" style="white-space: pre;" direction="ltr">Вывести "Окей"</text></g><g stroke-linecap="round" transform="translate(0 0) rotate(0 161.48289440521523 44)"><path d="M0 0 C78.71 0, 157.42 0, 322.97 0 M0 0 C84.2 0, 168.41 0, 322.97 0 M322.97 0 C322.97 21.75, 322.97 43.51, 322.97 88 M322.97 0 C322.97 25.88, 322.97 51.75, 322.97 88 M322.97 88 C207.43 88, 91.89 88, 0 88 M322.97 88 C223.03 88, 123.09 88, 0 88 M0 88 C0 60.33, 0 32.65, 0 0 M0 88 C0 63.57, 0 39.14, 0 0" stroke="#000000" stroke-width="1" fill="none"></path></g><g transform="translate(0 0) rotate(0 129 13)"><text x="129" y="19" font-family="Virgil, Segoe UI Emoji" font-size="20px" fill="#000000" text-anchor="middle" style="white-space: pre;" direction="ltr">Вывести новое имя поста</text></g><g stroke-linecap="round" transform="translate(0 0) rotate(0 161.48289440521523 44)"><path d="M0 0 C68.56 0, 137.11 0, 322.97 0 M0 0 C85.93 0, 171.87 0, 322.97 0 M322.97 0 C322.97 27.64, 322.97 55.29, 322.97 88 M322.97 0 C322.97 30.63, 322.97 61.26, 322.97 88 M322.97 88 C221.93 88, 120.9 88, 0 88 M322.97 88 C248.98 88, 175 88, 0 88 M0 88 C0 64.49, 0 40.97, 0 0 M0 88 C0 64.5, 0 41.01, 0 0" stroke="#000000" stroke-width="1" fill="none"></path></g><g transform="translate(0 0) rotate(0 147.5 13)"><text x="147.5" y="19" font-family="Virgil, Segoe UI Emoji" font-size="20px" fill="#000000" text-anchor="middle" style="white-space: pre;" direction="ltr">Ввести новое описание поста</text></g><g stroke-linecap="round" transform="translate(0 0) rotate(0 186.5641710174441 58.75559931393536)"><path d="M187 0 C233.71 14.81, 280.42 29.61, 373.13 59 M187 0 C243.72 17.98, 300.45 35.96, 373.13 59 M373.13 59 C313.81 77.65, 254.49 96.3, 187 117.51 M373.13 59 C334.53 71.13, 295.94 83.27, 187 117.51 M187 117.51 C129.79 99.61, 72.59 81.71, 0 59 M187 117.51 C121.74 97.09, 56.48 76.67, 0 59 M0 59 C42.25 45.67, 84.49 32.34, 187 0 M0 59 C74.54 35.48, 149.09 11.96, 187 0" stroke="#000000" stroke-width="1" fill="none"></path></g><g transform="translate(0 0) rotate(0 105.5 13)"><text x="105.5" y="19" font-family="Virgil, Segoe UI Emoji" font-size="20px" fill="#000000" text-anchor="middle" style="white-space: pre;" direction="ltr">описание поста - nil?</text></g><g stroke-linecap="round" transform="translate(0 0) rotate(0 161.48289440521523 44)"><path d="M0 0 C114.34 0, 228.68 0, 322.97 0 M0 0 C92.07 0, 184.14 0, 322.97 0 M322.97 0 C322.97 25.86, 322.97 51.71, 322.97 88 M322.97 0 C322.97 28.82, 322.97 57.63, 322.97 88 M322.97 88 C205.35 88, 87.74 88, 0 88 M322.97 88 C239.9 88, 156.83 88, 0 88 M0 88 C0 53.75, 0 19.51, 0 0 M0 88 C0 61.76, 0 35.51, 0 0" stroke="#000000" stroke-width="1" fill="none"></path></g><g transform="translate(0 0) rotate(0 78 13)"><text x="78" y="19" font-family="Virgil, Segoe UI Emoji" font-size="20px" fill="#000000" text-anchor="middle" style="white-space: pre;" direction="ltr">Вывести "Окей"</text></g><g stroke-linecap="round" transform="translate(0 0) rotate(0 161.48289440521523 44)"><path d="M0 0 C82.29 0, 164.58 0, 322.97 0 M0 0 C84.66 0, 169.31 0, 322.97 0 M322.97 0 C322.97 27.56, 322.97 55.13, 322.97 88 M322.97 0 C322.97 18.79, 322.97 37.59, 322.97 88 M322.97 88 C235.6 88, 148.23 88, 0 88 M322.97 88 C245.31 88, 167.65 88, 0 88 M0 88 C0 68.83, 0 49.67, 0 0 M0 88 C0 55.86, 0 23.72, 0 0" stroke="#000000" stroke-width="1" fill="none"></path></g><g transform="translate(0 0) rotate(0 155.5 13)"><text x="155.5" y="19" font-family="Virgil, Segoe UI Emoji" font-size="20px" fill="#000000" text-anchor="middle" style="white-space: pre;" direction="ltr">Вывести новое описание поста</text></g><g stroke-linecap="round" transform="translate(0 0) rotate(0 157.00282053456294 42.744223391608784)"><path d="M0 0 C69.37 0, 138.74 0, 314.01 0 M0 0 C66.53 0, 133.06 0, 314.01 0 M314.01 0 C314.01 26.75, 314.01 53.51, 314.01 85.49 M314.01 0 C314.01 29.58, 314.01 59.16, 314.01 85.49 M314.01 85.49 C198.87 85.49, 83.73 85.49, 0 85.49 M314.01 85.49 C214.5 85.49, 115 85.49, 0 85.49 M0 85.49 C0 59.18, 0 32.88, 0 0 M0 85.49 C0 57.97, 0 30.46, 0 0" stroke="#000000" stroke-width="1" fill="none"></path></g><g transform="translate(0 0) rotate(0 69 13)"><text x="69" y="19" font-family="Virgil, Segoe UI Emoji" font-size="20px" fill="#000000" text-anchor="middle" style="white-space: pre;" direction="ltr">Изменить пост</text></g><g stroke-linecap="round"><g transform="translate(0 0) rotate(0 0 42.38830801735139)"><path d="M0 0 C0 30.73, 0 61.47, 0 84.78 M0 0 C0 32.8, 0 65.6, 0 84.78" stroke="#000000" stroke-width="1" fill="none"></path></g></g><mask></mask><g stroke-linecap="round"><g transform="translate(0 0) rotate(0 0 42.38830801735139)"><path d="M0 0 C0 25.3, 0 50.59, 0 84.78 M0 0 C0 26.19, 0 52.38, 0 84.78" stroke="#000000" stroke-width="1" fill="none"></path></g></g><mask></mask><g stroke-linecap="round"><g transform="translate(0 0) rotate(0 278.0027605920725 611.1162005966702)"><path d="M0 0 C171.79 0, 343.58 0, 556.01 0 M0 0 C184.71 0, 369.43 0, 556.01 0 M556.01 0 C556.01 245.3, 556.01 490.61, 556.01 1222.23 M556.01 0 C556.01 344.92, 556.01 689.84, 556.01 1222.23" stroke="#000000" stroke-width="1" fill="none"></path></g><g transform="translate(0 0) rotate(0 278.0027605920725 611.1162005966702)"><path d="M545.74 1194.04 C548.92 1202.75, 552.09 1211.46, 556.01 1222.23 M545.74 1194.04 C549.15 1203.41, 552.56 1212.77, 556.01 1222.23" stroke="#000000" stroke-width="1" fill="none"></path></g><g transform="translate(0 0) rotate(0 278.0027605920725 611.1162005966702)"><path d="M566.27 1194.04 C563.1 1202.75, 559.93 1211.46, 556.01 1222.23 M566.27 1194.04 C562.86 1203.41, 559.45 1212.77, 556.01 1222.23" stroke="#000000" stroke-width="1" fill="none"></path></g></g><mask></mask><g stroke-linecap="round"><g transform="translate(0 0) rotate(0 0 17.06542270828436)"><path d="M0 0 C0 7.15, 0 14.31, 0 34.13 M0 0 C0 11.08, 0 22.16, 0 34.13" stroke="#000000" stroke-width="1" fill="none"></path></g><g transform="translate(0 0) rotate(0 0 17.06542270828436)"><path d="M-5.84 18.09 C-4.61 21.46, -3.39 24.82, 0 34.13 M-5.84 18.09 C-3.94 23.3, -2.05 28.51, 0 34.13" stroke="#000000" stroke-width="1" fill="none"></path></g><g transform="translate(0 0) rotate(0 0 17.06542270828436)"><path d="M5.84 18.09 C4.61 21.46, 3.39 24.82, 0 34.13 M5.84 18.09 C3.94 23.3, 2.05 28.51, 0 34.13" stroke="#000000" stroke-width="1" fill="none"></path></g></g><mask></mask><g stroke-linecap="round"><g transform="translate(0 0) rotate(0 0 15.413930188127779)"><path d="M0 0 C0 8.77, 0 17.55, 0 30.83 M0 0 C0 7.11, 0 14.22, 0 30.83" stroke="#000000" stroke-width="1" fill="none"></path></g><g transform="translate(0 0) rotate(0 0 15.413930188127779)"><path d="M-5.27 16.34 C-3.77 20.47, -2.27 24.59, 0 30.83 M-5.27 16.34 C-4.06 19.68, -2.84 23.02, 0 30.83" stroke="#000000" stroke-width="1" fill="none"></path></g><g transform="translate(0 0) rotate(0 0 15.413930188127779)"><path d="M5.27 16.34 C3.77 20.47, 2.27 24.59, 0 30.83 M5.27 16.34 C4.06 19.68, 2.84 23.02, 0 30.83" stroke="#000000" stroke-width="1" fill="none"></path></g></g><mask></mask><g stroke-linecap="round"><g transform="translate(0 0) rotate(0 0 14.312935174690097)"><path d="M0 0 C0 7.3, 0 14.6, 0 28.63 M0 0 C0 9.39, 0 18.78, 0 28.63" stroke="#000000" stroke-width="1" fill="none"></path></g><g transform="translate(0 0) rotate(0 0 14.312935174690097)"><path d="M-4.9 15.18 C-3.65 18.61, -2.4 22.03, 0 28.63 M-4.9 15.18 C-3.29 19.59, -1.68 24, 0 28.63" stroke="#000000" stroke-width="1" fill="none"></path></g><g transform="translate(0 0) rotate(0 0 14.312935174690097)"><path d="M4.9 15.18 C3.65 18.61, 2.4 22.03, 0 28.63 M4.9 15.18 C3.29 19.59, 1.68 24, 0 28.63" stroke="#000000" stroke-width="1" fill="none"></path></g></g><mask></mask><g stroke-linecap="round"><g transform="translate(0 0) rotate(0 73.21616839360718 45.14079555094577)"><path d="M0 0 C29.72 0, 59.43 0, 146.43 0 M0 0 C30.72 0, 61.44 0, 146.43 0 M146.43 0 C146.43 22.35, 146.43 44.69, 146.43 90.28 M146.43 0 C146.43 29.26, 146.43 58.53, 146.43 90.28" stroke="#000000" stroke-width="1" fill="none"></path></g><g transform="translate(0 0) rotate(0 73.21616839360718 45.14079555094577)"><path d="M136.17 62.09 C138.25 67.81, 140.34 73.53, 146.43 90.28 M136.17 62.09 C138.32 68.01, 140.48 73.92, 146.43 90.28" stroke="#000000" stroke-width="1" fill="none"></path></g><g transform="translate(0 0) rotate(0 73.21616839360718 45.14079555094577)"><path d="M156.69 62.09 C154.61 67.81, 152.53 73.53, 146.43 90.28 M156.69 62.09 C154.54 68.01, 152.39 73.92, 146.43 90.28" stroke="#000000" stroke-width="1" fill="none"></path></g></g><mask></mask><g stroke-linecap="round"><g transform="translate(0 0) rotate(0 -75.96865592720133 45.14079555094577)"><path d="M0 0 C-37.81 0, -75.61 0, -151.94 0 M0 0 C-41.61 0, -83.22 0, -151.94 0 M-151.94 0 C-151.94 27.06, -151.94 54.13, -151.94 90.28 M-151.94 0 C-151.94 32.08, -151.94 64.16, -151.94 90.28" stroke="#000000" stroke-width="1" fill="none"></path></g><g transform="translate(0 0) rotate(0 -75.96865592720133 45.14079555094577)"><path d="M-162.2 62.09 C-159.64 69.11, -157.09 76.12, -151.94 90.28 M-162.2 62.09 C-159.39 69.81, -156.58 77.53, -151.94 90.28" stroke="#000000" stroke-width="1" fill="none"></path></g><g transform="translate(0 0) rotate(0 -75.96865592720133 45.14079555094577)"><path d="M-141.68 62.09 C-144.23 69.11, -146.78 76.12, -151.94 90.28 M-141.68 62.09 C-144.49 69.81, -147.3 77.53, -151.94 90.28" stroke="#000000" stroke-width="1" fill="none"></path></g></g><mask></mask><g transform="translate(0 0) rotate(0 15.5 13)"><text x="0" y="19" font-family="Virgil, Segoe UI Emoji" font-size="20px" fill="#000000" text-anchor="start" style="white-space: pre;" direction="ltr">Да</text></g><g transform="translate(0 0) rotate(0 15.5 13)"><text x="0" y="19" font-family="Virgil, Segoe UI Emoji" font-size="20px" fill="#000000" text-anchor="start" style="white-space: pre;" direction="ltr">Да</text></g><g transform="translate(0 0) rotate(0 18.5 13)"><text x="0" y="19" font-family="Virgil, Segoe UI Emoji" font-size="20px" fill="#000000" text-anchor="start" style="white-space: pre;" direction="ltr">Нет</text></g><g transform="translate(0 0) rotate(0 18.5 13)"><text x="0" y="19" font-family="Virgil, Segoe UI Emoji" font-size="20px" fill="#000000" text-anchor="start" style="white-space: pre;" direction="ltr">Нет</text></g><g stroke-linecap="round"><g transform="translate(0 0) rotate(0 177.2601971634698 39.08532297703846)"><path d="M0 0 C0 10.97, 0 21.93, 0 41.84 M0 0 C0 13.61, 0 27.23, 0 41.84 M0 41.84 C84.92 41.84, 169.84 41.84, 354.52 41.84 M0 41.84 C140.99 41.84, 281.98 41.84, 354.52 41.84 M354.52 41.84 C354.52 50.35, 354.52 58.87, 354.52 78.17 M354.52 41.84 C354.52 56.14, 354.52 70.43, 354.52 78.17" stroke="#000000" stroke-width="1" fill="none"></path></g><g transform="translate(0 0) rotate(0 177.2601971634698 39.08532297703846)"><path d="M348.31 61.1 C349.94 65.57, 351.56 70.05, 354.52 78.17 M348.31 61.1 C350.33 66.65, 352.35 72.21, 354.52 78.17" stroke="#000000" stroke-width="1" fill="none"></path></g><g transform="translate(0 0) rotate(0 177.2601971634698 39.08532297703846)"><path d="M360.73 61.1 C359.11 65.57, 357.48 70.05, 354.52 78.17 M360.73 61.1 C358.71 66.65, 356.69 72.21, 354.52 78.17" stroke="#000000" stroke-width="1" fill="none"></path></g></g><mask></mask><g stroke-linecap="round"><g transform="translate(0 0) rotate(0 -177.26019716346957 37.484489736641194)"><path d="M0 0 C0 13.43, 0 26.86, 0 36.47 M0 0 C0 10.12, 0 20.24, 0 36.47 M0 36.47 C-130.82 36.47, -261.65 36.47, -354.52 36.47 M0 36.47 C-120.33 36.47, -240.65 36.47, -354.52 36.47 M-354.52 36.47 C-354.52 48.79, -354.52 61.1, -354.52 74.97 M-354.52 36.47 C-354.52 47.54, -354.52 58.61, -354.52 74.97" stroke="#000000" stroke-width="1" fill="none"></path></g><g transform="translate(0 0) rotate(0 -177.26019716346957 37.484489736641194)"><path d="M-361.1 56.88 C-358.68 63.54, -356.25 70.2, -354.52 74.97 M-361.1 56.88 C-359.28 61.9, -357.45 66.92, -354.52 74.97" stroke="#000000" stroke-width="1" fill="none"></path></g><g transform="translate(0 0) rotate(0 -177.26019716346957 37.484489736641194)"><path d="M-347.94 56.88 C-350.36 63.54, -352.79 70.2, -354.52 74.97 M-347.94 56.88 C-349.76 61.9, -351.59 66.92, -354.52 74.97" stroke="#000000" stroke-width="1" fill="none"></path></g></g><mask></mask><g stroke-linecap="round"><g transform="translate(0 0) rotate(0 0 12.110945147814618)"><path d="M0 0 C0 5.41, 0 10.83, 0 24.22 M0 0 C0 9.54, 0 19.08, 0 24.22" stroke="#000000" stroke-width="1" fill="none"></path></g><g transform="translate(0 0) rotate(0 0 12.110945147814618)"><path d="M-4.14 12.84 C-3.22 15.39, -2.29 17.93, 0 24.22 M-4.14 12.84 C-2.51 17.32, -0.88 21.8, 0 24.22" stroke="#000000" stroke-width="1" fill="none"></path></g><g transform="translate(0 0) rotate(0 0 12.110945147814618)"><path d="M4.14 12.84 C3.22 15.39, 2.29 17.93, 0 24.22 M4.14 12.84 C2.51 17.32, 0.88 21.8, 0 24.22" stroke="#000000" stroke-width="1" fill="none"></path></g></g><mask></mask><g stroke-linecap="round"><g transform="translate(0 0) rotate(0 177.2601971634698 39.08532297703846)"><path d="M0 0 C0 12.93, 0 25.86, 0 41.84 M0 0 C0 15.83, 0 31.66, 0 41.84 M0 41.84 C94.72 41.84, 189.44 41.84, 354.52 41.84 M0 41.84 C85.9 41.84, 171.81 41.84, 354.52 41.84 M354.52 41.84 C354.52 54.34, 354.52 66.84, 354.52 78.17 M354.52 41.84 C354.52 53.81, 354.52 65.79, 354.52 78.17" stroke="#000000" stroke-width="1" fill="none"></path></g><g transform="translate(0 0) rotate(0 177.2601971634698 39.08532297703846)"><path d="M348.31 61.1 C350.23 66.37, 352.15 71.65, 354.52 78.17 M348.31 61.1 C350.66 67.56, 353.01 74.02, 354.52 78.17" stroke="#000000" stroke-width="1" fill="none"></path></g><g transform="translate(0 0) rotate(0 177.2601971634698 39.08532297703846)"><path d="M360.73 61.1 C358.81 66.37, 356.89 71.65, 354.52 78.17 M360.73 61.1 C358.38 67.56, 356.03 74.02, 354.52 78.17" stroke="#000000" stroke-width="1" fill="none"></path></g></g><mask></mask><g stroke-linecap="round"><g transform="translate(0 0) rotate(0 -177.26019716346957 37.48448973664108)"><path d="M0 0 C0 11.71, 0 23.43, 0 36.47 M0 0 C0 10.48, 0 20.96, 0 36.47 M0 36.47 C-102.77 36.47, -205.53 36.47, -354.52 36.47 M0 36.47 C-86.78 36.47, -173.57 36.47, -354.52 36.47 M-354.52 36.47 C-354.52 51.41, -354.52 66.34, -354.52 74.97 M-354.52 36.47 C-354.52 48.78, -354.52 61.08, -354.52 74.97" stroke="#000000" stroke-width="1" fill="none"></path></g><g transform="translate(0 0) rotate(0 -177.26019716346957 37.48448973664108)"><path d="M-361.1 56.88 C-358.99 62.69, -356.87 68.5, -354.52 74.97 M-361.1 56.88 C-359.21 62.08, -357.32 67.28, -354.52 74.97" stroke="#000000" stroke-width="1" fill="none"></path></g><g transform="translate(0 0) rotate(0 -177.26019716346957 37.48448973664108)"><path d="M-347.94 56.88 C-350.05 62.69, -352.17 68.5, -354.52 74.97 M-347.94 56.88 C-349.83 62.08, -351.72 67.28, -354.52 74.97" stroke="#000000" stroke-width="1" fill="none"></path></g></g><mask></mask><g stroke-linecap="round"><g transform="translate(0 0) rotate(0 73.21616839360718 45.14079555094577)"><path d="M0 0 C50.21 0, 100.42 0, 146.43 0 M0 0 C36.17 0, 72.34 0, 146.43 0 M146.43 0 C146.43 31.96, 146.43 63.92, 146.43 90.28 M146.43 0 C146.43 34.43, 146.43 68.85, 146.43 90.28" stroke="#000000" stroke-width="1" fill="none"></path></g><g transform="translate(0 0) rotate(0 73.21616839360718 45.14079555094577)"><path d="M136.17 62.09 C139.69 71.76, 143.21 81.42, 146.43 90.28 M136.17 62.09 C138.71 69.05, 141.24 76.02, 146.43 90.28" stroke="#000000" stroke-width="1" fill="none"></path></g><g transform="translate(0 0) rotate(0 73.21616839360718 45.14079555094577)"><path d="M156.69 62.09 C153.17 71.76, 149.66 81.42, 146.43 90.28 M156.69 62.09 C154.16 69.05, 151.62 76.02, 146.43 90.28" stroke="#000000" stroke-width="1" fill="none"></path></g></g><mask></mask><g stroke-linecap="round"><g transform="translate(0 0) rotate(0 -75.96865592720133 45.14079555094577)"><path d="M0 0 C-34.99 0, -69.98 0, -151.94 0 M0 0 C-56.96 0, -113.92 0, -151.94 0 M-151.94 0 C-151.94 24.39, -151.94 48.78, -151.94 90.28 M-151.94 0 C-151.94 31.23, -151.94 62.46, -151.94 90.28" stroke="#000000" stroke-width="1" fill="none"></path></g><g transform="translate(0 0) rotate(0 -75.96865592720133 45.14079555094577)"><path d="M-162.2 62.09 C-159.84 68.58, -157.47 75.07, -151.94 90.28 M-162.2 62.09 C-158.35 72.66, -154.5 83.23, -151.94 90.28" stroke="#000000" stroke-width="1" fill="none"></path></g><g transform="translate(0 0) rotate(0 -75.96865592720133 45.14079555094577)"><path d="M-141.68 62.09 C-144.04 68.58, -146.4 75.07, -151.94 90.28 M-141.68 62.09 C-145.52 72.66, -149.37 83.23, -151.94 90.28" stroke="#000000" stroke-width="1" fill="none"></path></g></g><mask></mask><g transform="translate(0 0) rotate(0 18.5 13)"><text x="0" y="19" font-family="Virgil, Segoe UI Emoji" font-size="20px" fill="#000000" text-anchor="start" style="white-space: pre;" direction="ltr">Нет</text></g><g stroke-linecap="round" transform="translate(0 0) rotate(0 161.48289440521512 44)"><path d="M0 0 C121.02 0, 242.04 0, 322.97 0 M0 0 C99.43 0, 198.86 0, 322.97 0 M322.97 0 C322.97 26.77, 322.97 53.55, 322.97 88 M322.97 0 C322.97 21.4, 322.97 42.81, 322.97 88 M322.97 88 C199.46 88, 75.95 88, 0 88 M322.97 88 C241.91 88, 160.86 88, 0 88 M0 88 C0 57.88, 0 27.76, 0 0 M0 88 C0 55.68, 0 23.35, 0 0" stroke="#000000" stroke-width="1" fill="none"></path></g><g transform="translate(0 0) rotate(0 87 13)"><text x="87" y="19" font-family="Virgil, Segoe UI Emoji" font-size="20px" fill="#000000" text-anchor="middle" style="white-space: pre;" direction="ltr">Ввести ID поста</text></g><g stroke-linecap="round" transform="translate(0 0) rotate(0 186.5641710174441 58.755599313935306)"><path d="M187 0 C231.59 14.13, 276.17 28.27, 373.13 59 M187 0 C252.48 20.76, 317.97 41.51, 373.13 59 M373.13 59 C311.44 78.39, 249.74 97.79, 187 117.51 M373.13 59 C299.54 82.13, 225.95 105.27, 187 117.51 M187 117.51 C147.25 105.07, 107.5 92.64, 0 59 M187 117.51 C118.56 96.1, 50.13 74.69, 0 59 M0 59 C59.99 40.07, 119.98 21.15, 187 0 M0 59 C70.93 36.62, 141.86 14.24, 187 0" stroke="#000000" stroke-width="1" fill="none"></path></g><g transform="translate(0 0) rotate(0 90.5 13)"><text x="90.5" y="19" font-family="Virgil, Segoe UI Emoji" font-size="20px" fill="#000000" text-anchor="middle" style="white-space: pre;" direction="ltr">Пост существует?</text></g><g stroke-linecap="round"><g transform="translate(0 0) rotate(0 -1.8171834839363328 32.70930271085058)"><path d="M0 0 C-0.91 16.37, -1.82 32.73, -3.63 65.42 M0 0 C-1.21 21.85, -2.43 43.69, -3.63 65.42" stroke="#000000" stroke-width="1" fill="none"></path></g><g transform="translate(0 0) rotate(0 -1.8171834839363328 32.70930271085058)"><path d="M-12.32 36.7 C-10.14 43.89, -7.97 51.07, -3.63 65.42 M-12.32 36.7 C-9.42 46.29, -6.52 55.88, -3.63 65.42" stroke="#000000" stroke-width="1" fill="none"></path></g><g transform="translate(0 0) rotate(0 -1.8171834839363328 32.70930271085058)"><path d="M8.17 37.84 C5.22 44.74, 2.27 51.64, -3.63 65.42 M8.17 37.84 C4.23 47.05, 0.29 56.26, -3.63 65.42" stroke="#000000" stroke-width="1" fill="none"></path></g></g><mask></mask><g stroke-linecap="round"><g transform="translate(0 0) rotate(0 0.605727827978626 13.931740043510445)"><path d="M0 0 C0.26 6.04, 0.53 12.09, 1.21 27.86 M0 0 C0.33 7.69, 0.67 15.37, 1.21 27.86" stroke="#000000" stroke-width="1" fill="none"></path></g><g transform="translate(0 0) rotate(0 0.605727827978626 13.931740043510445)"><path d="M-4.12 14.98 C-2.97 17.77, -1.81 20.57, 1.21 27.86 M-4.12 14.98 C-2.65 18.53, -1.18 22.09, 1.21 27.86" stroke="#000000" stroke-width="1" fill="none"></path></g><g transform="translate(0 0) rotate(0 0.605727827978626 13.931740043510445)"><path d="M5.41 14.56 C4.5 17.45, 3.59 20.33, 1.21 27.86 M5.41 14.56 C4.25 18.23, 3.09 21.9, 1.21 27.86" stroke="#000000" stroke-width="1" fill="none"></path></g></g><mask></mask><g stroke-linecap="round" transform="translate(0 0) rotate(0 161.48289440521535 44)"><path d="M0 0 C66.82 0, 133.64 0, 322.97 0 M0 0 C103.5 0, 206.99 0, 322.97 0 M322.97 0 C322.97 20.31, 322.97 40.62, 322.97 88 M322.97 0 C322.97 23.77, 322.97 47.53, 322.97 88 M322.97 88 C249.18 88, 175.39 88, 0 88 M322.97 88 C204.58 88, 86.2 88, 0 88 M0 88 C0 69.08, 0 50.16, 0 0 M0 88 C0 61.46, 0 34.92, 0 0" stroke="#000000" stroke-width="1" fill="none"></path></g><g transform="translate(0 0) rotate(0 106 26)"><text x="106" y="19" font-family="Virgil, Segoe UI Emoji" font-size="20px" fill="#000000" text-anchor="middle" style="white-space: pre;" direction="ltr">Ошибка - введен </text><text x="106" y="45" font-family="Virgil, Segoe UI Emoji" font-size="20px" fill="#000000" text-anchor="middle" style="white-space: pre;" direction="ltr">несуществующий пост</text></g><g stroke-linecap="round"><g transform="translate(0 0) rotate(0 278.0027605920725 115.31606755342483)"><path d="M0 0 C180.96 0, 361.91 0, 556.01 0 M0 0 C139.36 0, 278.71 0, 556.01 0 M556.01 0 C556.01 53.96, 556.01 107.92, 556.01 230.63 M556.01 0 C556.01 77.27, 556.01 154.53, 556.01 230.63" stroke="#000000" stroke-width="1" fill="none"></path></g><g transform="translate(0 0) rotate(0 278.0027605920725 115.31606755342483)"><path d="M545.74 202.44 C549.08 211.62, 552.42 220.79, 556.01 230.63 M545.74 202.44 C548.32 209.51, 550.89 216.57, 556.01 230.63" stroke="#000000" stroke-width="1" fill="none"></path></g><g transform="translate(0 0) rotate(0 278.0027605920725 115.31606755342483)"><path d="M566.27 202.44 C562.93 211.62, 559.59 220.79, 556.01 230.63 M566.27 202.44 C563.69 209.51, 561.12 216.57, 556.01 230.63" stroke="#000000" stroke-width="1" fill="none"></path></g></g><mask></mask><g transform="translate(0 0) rotate(0 18.5 13)"><text x="0" y="19" font-family="Virgil, Segoe UI Emoji" font-size="20px" fill="#000000" text-anchor="start" style="white-space: pre;" direction="ltr">Нет</text></g><g stroke-linecap="round"><g transform="translate(0 0) rotate(0 0 14.118922869196297)"><path d="M0 0 C0 10.58, 0 21.16, 0 28.24 M0 0 C0 6.33, 0 12.65, 0 28.24" stroke="#000000" stroke-width="1" fill="none"></path></g><g transform="translate(0 0) rotate(0 0 14.118922869196297)"><path d="M-4.83 14.97 C-3.02 19.94, -1.21 24.91, 0 28.24 M-4.83 14.97 C-3.75 17.94, -2.67 20.92, 0 28.24" stroke="#000000" stroke-width="1" fill="none"></path></g><g transform="translate(0 0) rotate(0 0 14.118922869196297)"><path d="M4.83 14.97 C3.02 19.94, 1.21 24.91, 0 28.24 M4.83 14.97 C3.75 17.94, 2.67 20.92, 0 28.24" stroke="#000000" stroke-width="1" fill="none"></path></g></g><mask></mask><g stroke-linecap="round" transform="translate(0 0) rotate(0 161.48289440521512 44)"><path d="M0 0 C90.73 0, 181.45 0, 322.97 0 M0 0 C95.53 0, 191.07 0, 322.97 0 M322.97 0 C322.97 34.63, 322.97 69.26, 322.97 88 M322.97 0 C322.97 22.61, 322.97 45.21, 322.97 88 M322.97 88 C213.72 88, 104.48 88, 0 88 M322.97 88 C231.32 88, 139.68 88, 0 88 M0 88 C0 66.59, 0 45.18, 0 0 M0 88 C0 66.61, 0 45.21, 0 0" stroke="#000000" stroke-width="1" fill="none"></path></g><g transform="translate(0 0) rotate(0 65.5 13)"><text x="65.5" y="19" font-family="Virgil, Segoe UI Emoji" font-size="20px" fill="#000000" text-anchor="middle" style="white-space: pre;" direction="ltr">Удалить пост</text></g><g stroke-linecap="round"><g transform="translate(0 0) rotate(0 0 79.18152756000768)"><path d="M0 0 C0 48, 0 96, 0 158.36 M0 0 C0 52.76, 0 105.51, 0 158.36" stroke="#000000" stroke-width="1" fill="none"></path></g><g transform="translate(0 0) rotate(0 0 79.18152756000768)"><path d="M-10.26 130.17 C-7.15 138.72, -4.04 147.26, 0 158.36 M-10.26 130.17 C-6.84 139.56, -3.42 148.96, 0 158.36" stroke="#000000" stroke-width="1" fill="none"></path></g><g transform="translate(0 0) rotate(0 0 79.18152756000768)"><path d="M10.26 130.17 C7.15 138.72, 4.04 147.26, 0 158.36 M10.26 130.17 C6.84 139.56, 3.42 148.96, 0 158.36" stroke="#000000" stroke-width="1" fill="none"></path></g></g><mask></mask><g stroke-linecap="round"><g transform="translate(0 0) rotate(0 0 23.838124583781806)"><path d="M0 0 C0 14.17, 0 28.34, 0 47.68 M0 0 C0 12.63, 0 25.25, 0 47.68" stroke="#000000" stroke-width="1" fill="none"></path></g><g transform="translate(0 0) rotate(0 0 23.838124583781806)"><path d="M-8.15 25.28 C-5.73 31.93, -3.31 38.59, 0 47.68 M-8.15 25.28 C-5.99 31.21, -3.83 37.14, 0 47.68" stroke="#000000" stroke-width="1" fill="none"></path></g><g transform="translate(0 0) rotate(0 0 23.838124583781806)"><path d="M8.15 25.28 C5.73 31.93, 3.31 38.59, 0 47.68 M8.15 25.28 C5.99 31.21, 3.83 37.14, 0 47.68" stroke="#000000" stroke-width="1" fill="none"></path></g></g><mask></mask><g stroke-linecap="round"><g transform="translate(0 0) rotate(0 0 16.44008591984951)"><path d="M0 0 C0 12.77, 0 25.54, 0 32.88 M0 0 C0 8.49, 0 16.97, 0 32.88" stroke="#000000" stroke-width="1" fill="none"></path></g><g transform="translate(0 0) rotate(0 0 16.44008591984951)"><path d="M-5.62 17.43 C-3.44 23.43, -1.25 29.43, 0 32.88 M-5.62 17.43 C-4.17 21.42, -2.72 25.41, 0 32.88" stroke="#000000" stroke-width="1" fill="none"></path></g><g transform="translate(0 0) rotate(0 0 16.44008591984951)"><path d="M5.62 17.43 C3.44 23.43, 1.25 29.43, 0 32.88 M5.62 17.43 C4.17 21.42, 2.72 25.41, 0 32.88" stroke="#000000" stroke-width="1" fill="none"></path></g></g><mask></mask><g stroke-linecap="round"><g transform="translate(0 0) rotate(0 0 17.262090215841965)"><path d="M0 0 C0 9.54, 0 19.08, 0 34.52 M0 0 C0 9.74, 0 19.49, 0 34.52" stroke="#000000" stroke-width="1" fill="none"></path></g><g transform="translate(0 0) rotate(0 0 17.262090215841965)"><path d="M-5.9 18.3 C-4.27 22.79, -2.64 27.27, 0 34.52 M-5.9 18.3 C-4.24 22.88, -2.57 27.46, 0 34.52" stroke="#000000" stroke-width="1" fill="none"></path></g><g transform="translate(0 0) rotate(0 0 17.262090215841965)"><path d="M5.9 18.3 C4.27 22.79, 2.64 27.27, 0 34.52 M5.9 18.3 C4.24 22.88, 2.57 27.46, 0 34.52" stroke="#000000" stroke-width="1" fill="none"></path></g></g><mask></mask><g stroke-linecap="round"><g transform="translate(0 0) rotate(0 -645.2733723540932 43.56622768760121)"><path d="M0 0 C0 11.34, 0 22.68, 0 41.1 M0 0 C0 15.66, 0 31.32, 0 41.1 M0 41.1 C-430.55 41.1, -861.09 41.1, -1290.55 41.1 M0 41.1 C-352.83 41.1, -705.66 41.1, -1290.55 41.1 M-1290.55 41.1 C-1290.55 51.05, -1290.55 61, -1290.55 87.13 M-1290.55 41.1 C-1290.55 54.09, -1290.55 67.09, -1290.55 87.13" stroke="#000000" stroke-width="1" fill="none"></path></g><g transform="translate(0 0) rotate(0 -645.2733723540932 43.56622768760121)"><path d="M-1298.42 65.5 C-1296.25 71.47, -1294.07 77.44, -1290.55 87.13 M-1298.42 65.5 C-1295.42 73.74, -1292.42 81.98, -1290.55 87.13" stroke="#000000" stroke-width="1" fill="none"></path></g><g transform="translate(0 0) rotate(0 -645.2733723540932 43.56622768760121)"><path d="M-1282.67 65.5 C-1284.85 71.47, -1287.02 77.44, -1290.55 87.13 M-1282.67 65.5 C-1285.67 73.74, -1288.67 81.98, -1290.55 87.13" stroke="#000000" stroke-width="1" fill="none"></path></g></g><mask></mask><g stroke-linecap="round"><g transform="translate(0 0) rotate(0 0 21.372111695804392)"><path d="M0 0 C0 10.87, 0 21.75, 0 42.74 M0 0 C0 15.09, 0 30.18, 0 42.74" stroke="#000000" stroke-width="1" fill="none"></path></g><g transform="translate(0 0) rotate(0 0 21.372111695804392)"><path d="M-7.31 22.66 C-5.45 27.77, -3.59 32.88, 0 42.74 M-7.31 22.66 C-4.73 29.75, -2.15 36.84, 0 42.74" stroke="#000000" stroke-width="1" fill="none"></path></g><g transform="translate(0 0) rotate(0 0 21.372111695804392)"><path d="M7.31 22.66 C5.45 27.77, 3.59 32.88, 0 42.74 M7.31 22.66 C4.73 29.75, 2.15 36.84, 0 42.74" stroke="#000000" stroke-width="1" fill="none"></path></g></g><mask></mask><g stroke-linecap="round"><g transform="translate(0 0) rotate(0 849.9430852169921 30.495643103850455)"><path d="M0 0 C565.82 0, 1131.65 0, 1699.89 0 M0 0 C639.4 0, 1278.79 0, 1699.89 0 M1699.89 0 C1699.89 20.4, 1699.89 40.79, 1699.89 60.99 M1699.89 0 C1699.89 24.17, 1699.89 48.35, 1699.89 60.99" stroke="#000000" stroke-width="1" fill="none"></path></g><g transform="translate(0 0) rotate(0 849.9430852169921 30.495643103850455)"><path d="M1689.63 32.8 C1693.04 42.18, 1696.46 51.57, 1699.89 60.99 M1689.63 32.8 C1693.48 43.4, 1697.34 54.01, 1699.89 60.99" stroke="#000000" stroke-width="1" fill="none"></path></g><g transform="translate(0 0) rotate(0 849.9430852169921 30.495643103850455)"><path d="M1710.15 32.8 C1706.73 42.18, 1703.32 51.57, 1699.89 60.99 M1710.15 32.8 C1706.29 43.4, 1702.43 54.01, 1699.89 60.99" stroke="#000000" stroke-width="1" fill="none"></path></g></g><mask></mask><g stroke-linecap="round"><g transform="translate(0 0) rotate(0 0 25.414061164553402)"><path d="M0 0 C0 14.44, 0 28.88, 0 50.83 M0 0 C0 12.88, 0 25.76, 0 50.83" stroke="#000000" stroke-width="1" fill="none"></path></g><g transform="translate(0 0) rotate(0 0 25.414061164553402)"><path d="M-8.69 26.95 C-6.22 33.73, -3.75 40.52, 0 50.83 M-8.69 26.95 C-6.49 33, -4.29 39.05, 0 50.83" stroke="#000000" stroke-width="1" fill="none"></path></g><g transform="translate(0 0) rotate(0 0 25.414061164553402)"><path d="M8.69 26.95 C6.22 33.73, 3.75 40.52, 0 50.83 M8.69 26.95 C6.49 33, 4.29 39.05, 0 50.83" stroke="#000000" stroke-width="1" fill="none"></path></g></g><mask></mask><g mask="url(#mask-GBIfD0zc72rUXTAtQSYtd)" stroke-linecap="round"><g transform="translate(0 0) rotate(0 -2413.5 127.54210526315785)"><path d="M0 0 C0 356.01, 0 712.02, 0 1229.04 M0 0 C0 291.78, 0 583.55, 0 1229.04 M0 1229.04 C-1276.89 1229.04, -2553.77 1229.04, -4827 1229.04 M0 1229.04 C-1196.15 1229.04, -2392.29 1229.04, -4827 1229.04 M-4827 1229.04 C-4827 381.94, -4827 -465.16, -4827 -973.96 M-4827 1229.04 C-4827 655.39, -4827 81.73, -4827 -973.96 M-4827 -973.96 C-3962.97 -973.96, -3098.95 -973.96, -2466.84 -973.96 M-4827 -973.96 C-3927.55 -973.96, -3028.1 -973.96, -2466.84 -973.96 M-2466.84 -973.96 C-2469.29 -969.74, -2471.74 -965.52, -2474.28 -961.15 M-2466.84 -973.96 C-2469.37 -969.6, -2471.9 -965.24, -2474.28 -961.15" stroke="#000000" stroke-width="1" fill="none"></path></g><g transform="translate(0 0) rotate(0 -2413.5 127.54210526315785)"><path d="M-2472.97 -968.44 C-2473.35 -966.33, -2473.73 -964.22, -2474.28 -961.15 M-2472.97 -968.44 C-2473.28 -966.71, -2473.59 -964.98, -2474.28 -961.15" stroke="#000000" stroke-width="1" fill="none"></path></g><g transform="translate(0 0) rotate(0 -2413.5 127.54210526315785)"><path d="M-2468.59 -965.9 C-2470.24 -964.52, -2471.89 -963.15, -2474.28 -961.15 M-2468.59 -965.9 C-2469.94 -964.77, -2471.29 -963.64, -2474.28 -961.15" stroke="#000000" stroke-width="1" fill="none"></path></g></g><mask id="mask-GBIfD0zc72rUXTAtQSYtd"><rect x="0" y="0" fill="#fff" width="4927" height="2303"></rect><rect x="-4833" y="114.54210526315774" fill="#000" width="12" height="26" opacity="1"></rect></mask><g transform="translate(0 0) rotate(0 2419.5 13)"><text x="6" y="19" font-family="Virgil, Segoe UI Emoji" font-size="20px" fill="#000000" text-anchor="middle" style="white-space: pre;" direction="ltr"></text></g><g stroke-linecap="round"><g transform="translate(0 0) rotate(0 0 625.0000000000001)"><path d="M0 0 C0 303.21, 0 606.41, 0 1250 M0 0 C0 301.11, 0 602.23, 0 1250" stroke="#000000" stroke-width="1" fill="none"></path></g><g transform="translate(0 0) rotate(0 0 625.0000000000001)"><path d="M-10.26 1221.81 C-7.77 1228.65, -5.28 1235.49, 0 1250 M-10.26 1221.81 C-7.79 1228.6, -5.32 1235.39, 0 1250" stroke="#000000" stroke-width="1" fill="none"></path></g><g transform="translate(0 0) rotate(0 0 625.0000000000001)"><path d="M10.26 1221.81 C7.77 1228.65, 5.28 1235.49, 0 1250 M10.26 1221.81 C7.79 1228.6, 5.32 1235.39, 0 1250" stroke="#000000" stroke-width="1" fill="none"></path></g></g><mask></mask><g stroke-linecap="round" transform="translate(0 0) rotate(0 356.6666666666663 65)"><path d="M0 0 C169.46 0, 338.93 0, 713.33 0 M0 0 C189.95 0, 379.89 0, 713.33 0 M713.33 0 C713.33 38.87, 713.33 77.75, 713.33 130 M713.33 0 C713.33 35.05, 713.33 70.1, 713.33 130 M713.33 130 C507.21 130, 301.09 130, 0 130 M713.33 130 C506.81 130, 300.28 130, 0 130 M0 130 C0 92.39, 0 54.79, 0 0 M0 130 C0 92.37, 0 54.74, 0 0" stroke="#000000" stroke-width="1" fill="none"></path></g><g transform="translate(0 0) rotate(0 54 23)"><text x="54" y="33" font-family="Virgil, Segoe UI Emoji" font-size="36px" fill="#000000" text-anchor="middle" style="white-space: pre;" direction="ltr">выход</text></g><g stroke-linecap="round"><g transform="translate(0 0) rotate(0 749.4338570786181 57.651145122167634)"><path d="M0 0 C378.1 0, 756.2 0, 1498.87 0 M0 0 C446.92 0, 893.84 0, 1498.87 0 M1498.87 0 C1498.87 23.29, 1498.87 46.58, 1498.87 115.3 M1498.87 0 C1498.87 23.54, 1498.87 47.07, 1498.87 115.3" stroke="#000000" stroke-width="1" fill="none"></path></g><g transform="translate(0 0) rotate(0 749.4338570786181 57.651145122167634)"><path d="M1488.61 87.11 C1491.2 94.22, 1493.78 101.33, 1498.87 115.3 M1488.61 87.11 C1491.67 95.52, 1494.73 103.92, 1498.87 115.3" stroke="#000000" stroke-width="1" fill="none"></path></g><g transform="translate(0 0) rotate(0 749.4338570786181 57.651145122167634)"><path d="M1509.13 87.11 C1506.54 94.22, 1503.95 101.33, 1498.87 115.3 M1509.13 87.11 C1506.07 95.52, 1503.01 103.92, 1498.87 115.3" stroke="#000000" stroke-width="1" fill="none"></path></g></g><mask></mask><g stroke-linecap="round" transform="translate(0 0) rotate(0 198.3333333333337 100)"><path d="M396.67 100 C396.67 102.62, 396.46 105.24, 396.06 107.85 C395.65 110.45, 395.04 113.06, 394.22 115.64 C393.41 118.23, 392.4 120.8, 391.19 123.34 C389.98 125.89, 388.56 128.41, 386.96 130.9 C385.36 133.39, 383.55 135.85, 381.57 138.27 C379.58 140.68, 377.4 143.07, 375.05 145.4 C372.69 147.73, 370.15 150.02, 367.44 152.25 C364.73 154.48, 361.84 156.66, 358.79 158.78 C355.74 160.89, 352.52 162.96, 349.15 164.94 C345.78 166.93, 342.24 168.86, 338.58 170.71 C334.91 172.56, 331.08 174.34, 327.14 176.04 C323.2 177.74, 319.11 179.36, 314.91 180.9 C310.71 182.44, 306.38 183.9, 301.96 185.26 C297.54 186.63, 293 187.91, 288.37 189.1 C283.75 190.29, 279.02 191.39, 274.23 192.39 C269.44 193.39, 264.55 194.3, 259.62 195.11 C254.69 195.91, 249.68 196.63, 244.63 197.24 C239.59 197.85, 234.48 198.36, 229.36 198.77 C224.24 199.18, 219.07 199.49, 213.89 199.69 C208.72 199.9, 203.52 200, 198.33 200 C193.15 200, 187.94 199.9, 182.77 199.69 C177.6 199.49, 172.43 199.18, 167.31 198.77 C162.18 198.36, 157.08 197.85, 152.03 197.24 C146.99 196.63, 141.98 195.91, 137.04 195.11 C132.11 194.3, 127.23 193.39, 122.43 192.39 C117.64 191.39, 112.91 190.29, 108.29 189.1 C103.67 187.91, 99.13 186.63, 94.7 185.26 C90.28 183.9, 85.95 182.44, 81.76 180.9 C77.56 179.36, 73.47 177.74, 69.53 176.04 C65.58 174.34, 61.76 172.56, 58.09 170.71 C54.42 168.86, 50.89 166.93, 47.52 164.94 C44.15 162.96, 40.93 160.89, 37.88 158.78 C34.83 156.66, 31.94 154.48, 29.23 152.25 C26.52 150.02, 23.97 147.73, 21.62 145.4 C19.26 143.07, 17.08 140.68, 15.1 138.27 C13.11 135.85, 11.31 133.39, 9.71 130.9 C8.1 128.41, 6.69 125.89, 5.48 123.34 C4.27 120.8, 3.25 118.23, 2.44 115.64 C1.63 113.06, 1.02 110.45, 0.61 107.85 C0.2 105.24, 0 102.62, 0 100 C0 97.38, 0.2 94.76, 0.61 92.15 C1.02 89.55, 1.63 86.94, 2.44 84.36 C3.25 81.77, 4.27 79.2, 5.48 76.66 C6.69 74.11, 8.1 71.59, 9.71 69.1 C11.31 66.61, 13.11 64.15, 15.1 61.73 C17.08 59.32, 19.26 56.93, 21.62 54.6 C23.97 52.27, 26.52 49.98, 29.23 47.75 C31.94 45.52, 34.83 43.34, 37.88 41.22 C40.93 39.11, 44.15 37.04, 47.52 35.06 C50.89 33.07, 54.42 31.14, 58.09 29.29 C61.76 27.44, 65.58 25.66, 69.53 23.96 C73.47 22.26, 77.56 20.64, 81.76 19.1 C85.95 17.56, 90.28 16.1, 94.7 14.74 C99.13 13.37, 103.67 12.09, 108.29 10.9 C112.91 9.71, 117.64 8.61, 122.43 7.61 C127.23 6.61, 132.11 5.7, 137.04 4.89 C141.98 4.09, 146.99 3.37, 152.03 2.76 C157.08 2.15, 162.18 1.64, 167.31 1.23 C172.43 0.82, 177.6 0.51, 182.77 0.31 C187.94 0.1, 193.15 0, 198.33 0 C203.52 0, 208.72 0.1, 213.89 0.31 C219.07 0.51, 224.24 0.82, 229.36 1.23 C234.48 1.64, 239.59 2.15, 244.63 2.76 C249.68 3.37, 254.69 4.09, 259.62 4.89 C264.55 5.7, 269.44 6.61, 274.23 7.61 C279.02 8.61, 283.75 9.71, 288.37 10.9 C293 12.09, 297.54 13.37, 301.96 14.74 C306.38 16.1, 310.71 17.56, 314.91 19.1 C319.11 20.64, 323.2 22.26, 327.14 23.96 C331.08 25.66, 334.91 27.44, 338.58 29.29 C342.24 31.14, 345.78 33.07, 349.15 35.06 C352.52 37.04, 355.74 39.11, 358.79 41.22 C361.84 43.34, 364.73 45.52, 367.44 47.75 C370.15 49.98, 372.69 52.27, 375.05 54.6 C377.4 56.93, 379.58 59.32, 381.57 61.73 C383.55 64.15, 385.36 66.61, 386.96 69.1 C388.56 71.59, 389.98 74.11, 391.19 76.66 C392.4 79.2, 393.41 81.77, 394.22 84.36 C395.04 86.94, 395.65 89.55, 396.06 92.15 C396.46 94.76, 396.67 97.38, 396.67 100" stroke="#000000" stroke-width="1" fill="none"></path></g><g transform="translate(0 0) rotate(0 39 23)"><text x="39" y="33" font-family="Virgil, Segoe UI Emoji" font-size="36px" fill="#000000" text-anchor="middle" style="white-space: pre;" direction="ltr">END</text></g><g stroke-linecap="round"><g transform="translate(0 0) rotate(0 NaN NaN)"><path d="MNaN NaN CNaN NaN, NaN NaN, NaN NaN MNaN NaN CNaN NaN, NaN NaN, NaN NaN" stroke="#000000" stroke-width="1" fill="none"></path></g><g transform="translate(0 0) rotate(0 NaN NaN)"><path d="MNaN NaN CNaN NaN, NaN NaN, NaN NaN MNaN NaN CNaN NaN, NaN NaN, NaN NaN" stroke="#000000" stroke-width="1" fill="none"></path></g><g transform="translate(0 0) rotate(0 NaN NaN)"><path d="MNaN NaN CNaN NaN, NaN NaN, NaN NaN MNaN NaN CNaN NaN, NaN NaN, NaN NaN" stroke="#000000" stroke-width="1" fill="none"></path></g></g><mask></mask><g stroke-linecap="round"><g transform="translate(0 0) rotate(0 0 1011.6666666666665)"><path d="M0 0 C0 630.75, 0 1261.49, 0 2023.33 M0 0 C0 669.35, 0 1338.7, 0 2023.33" stroke="#000000" stroke-width="1" fill="none"></path></g><g transform="translate(0 0) rotate(0 0 1011.6666666666665)"><path d="M-10.26 1995.14 C-7.06 2003.93, -3.86 2012.72, 0 2023.33 M-10.26 1995.14 C-6.87 2004.47, -3.47 2013.79, 0 2023.33" stroke="#000000" stroke-width="1" fill="none"></path></g><g transform="translate(0 0) rotate(0 0 1011.6666666666665)"><path d="M10.26 1995.14 C7.06 2003.93, 3.86 2012.72, 0 2023.33 M10.26 1995.14 C6.87 2004.47, 3.47 2013.79, 0 2023.33" stroke="#000000" stroke-width="1" fill="none"></path></g></g><mask></mask><g stroke-linecap="round"><g transform="translate(0 0) rotate(0 0 125)"><path d="M0 0 C0 50.76, 0 101.52, 0 250 M0 0 C0 94.43, 0 188.85, 0 250" stroke="#000000" stroke-width="1" fill="none"></path></g><g transform="translate(0 0) rotate(0 0 125)"><path d="M-10.26 221.81 C-8.18 227.53, -6.09 233.26, 0 250 M-10.26 221.81 C-6.39 232.46, -2.51 243.1, 0 250" stroke="#000000" stroke-width="1" fill="none"></path></g><g transform="translate(0 0) rotate(0 0 125)"><path d="M10.26 221.81 C8.18 227.53, 6.09 233.26, 0 250 M10.26 221.81 C6.39 232.46, 2.51 243.1, 0 250" stroke="#000000" stroke-width="1" fill="none"></path></g></g><mask></mask><g mask="url(#mask-Sk0ddPCpkKBJ5NUxjlemM)" stroke-linecap="round"><g transform="translate(0 0) rotate(0 0 125)"><path d="M0 0 C0 57.56, 0 115.12, 0 250 M0 0 C0 59.69, 0 119.39, 0 250" stroke="#000000" stroke-width="1" fill="none"></path></g><g transform="translate(0 0) rotate(0 0 125)"><path d="M-10.26 221.81 C-7.9 228.3, -5.54 234.79, 0 250 M-10.26 221.81 C-7.81 228.54, -5.36 235.27, 0 250" stroke="#000000" stroke-width="1" fill="none"></path></g><g transform="translate(0 0) rotate(0 0 125)"><path d="M10.26 221.81 C7.9 228.3, 5.54 234.79, 0 250 M10.26 221.81 C7.81 228.54, 5.36 235.27, 0 250" stroke="#000000" stroke-width="1" fill="none"></path></g></g><mask id="mask-Sk0ddPCpkKBJ5NUxjlemM"><rect x="0" y="0" fill="#fff" width="100" height="350"></rect><rect x="-10" y="102" fill="#000" width="20" height="46" opacity="1"></rect></mask><g stroke-linecap="round"><g transform="translate(0 0) rotate(0 0 705.0000000000002)"><path d="M0 0 C0 304.92, 0 609.84, 0 1410 M0 0 C0 406.24, 0 812.49, 0 1410" stroke="#000000" stroke-width="1" fill="none"></path></g><g transform="translate(0 0) rotate(0 0 705.0000000000002)"><path d="M-10.26 1381.81 C-8.04 1387.91, -5.82 1394, 0 1410 M-10.26 1381.81 C-7.3 1389.93, -4.35 1398.05, 0 1410" stroke="#000000" stroke-width="1" fill="none"></path></g><g transform="translate(0 0) rotate(0 0 705.0000000000002)"><path d="M10.26 1381.81 C8.04 1387.91, 5.82 1394, 0 1410 M10.26 1381.81 C7.3 1389.93, 4.35 1398.05, 0 1410" stroke="#000000" stroke-width="1" fill="none"></path></g></g><mask></mask><g stroke-linecap="round"><g transform="translate(0 0) rotate(0 0 650)"><path d="M0 0 C0 404.32, 0 808.64, 0 1300 M0 0 C0 403.42, 0 806.83, 0 1300" stroke="#000000" stroke-width="1" fill="none"></path></g><g transform="translate(0 0) rotate(0 0 650)"><path d="M-10.26 1271.81 C-7.07 1280.58, -3.88 1289.34, 0 1300 M-10.26 1271.81 C-7.08 1280.56, -3.89 1289.31, 0 1300" stroke="#000000" stroke-width="1" fill="none"></path></g><g transform="translate(0 0) rotate(0 0 650)"><path d="M10.26 1271.81 C7.07 1280.58, 3.88 1289.34, 0 1300 M10.26 1271.81 C7.08 1280.56, 3.89 1289.31, 0 1300" stroke="#000000" stroke-width="1" fill="none"></path></g></g><mask></mask><g stroke-linecap="round"><g transform="translate(0 0) rotate(0 0 726.6666666666667)"><path d="M0 0 C0 544.9, 0 1089.79, 0 1453.33 M0 0 C0 440.36, 0 880.72, 0 1453.33" stroke="#000000" stroke-width="1" fill="none"></path></g><g transform="translate(0 0) rotate(0 0 726.6666666666667)"><path d="M-10.26 1425.14 C-6.41 1435.71, -2.57 1446.28, 0 1453.33 M-10.26 1425.14 C-7.15 1433.68, -4.04 1442.23, 0 1453.33" stroke="#000000" stroke-width="1" fill="none"></path></g><g transform="translate(0 0) rotate(0 0 726.6666666666667)"><path d="M10.26 1425.14 C6.41 1435.71, 2.57 1446.28, 0 1453.33 M10.26 1425.14 C7.15 1433.68, 4.04 1442.23, 0 1453.33" stroke="#000000" stroke-width="1" fill="none"></path></g></g><mask></mask><g stroke-linecap="round" transform="translate(0 0) rotate(0 249.375 74.37500000000001)"><path d="M0 0 C156.29 0, 312.58 0, 498.75 0 M0 0 C190.12 0, 380.23 0, 498.75 0 M498.75 0 C498.75 46.53, 498.75 93.06, 498.75 148.75 M498.75 0 C498.75 33.44, 498.75 66.88, 498.75 148.75 M498.75 148.75 C367.88 148.75, 237.01 148.75, 0 148.75 M498.75 148.75 C332.75 148.75, 166.74 148.75, 0 148.75 M0 148.75 C0 114.53, 0 80.3, 0 0 M0 148.75 C0 108.22, 0 67.69, 0 0" stroke="#000000" stroke-width="1" fill="none"></path></g></svg>