<svg version="1.1" xmlns="http://www.w3.org/2000/svg" viewBox="0 0 2061.73188405797 1663.1666666666663" width="2061.73188405797" height="1663.1666666666663">
  <!-- svg-source:excalidraw -->
  
  <defs>
    <style class="style-fonts">
      @font-face {
        font-family: "Virgil";
        src: url("https://excalidraw.com/Virgil.woff2");
      }
      @font-face {
        font-family: "Cascadia";
        src: url("https://excalidraw.com/Cascadia.woff2");
      }
    </style>
  </defs>
  <rect x="0" y="0" width="2061.73188405797" height="1663.1666666666663" fill="#ffffff"></rect><g transform="translate(78.4130434782603 335.83333333333326) rotate(0 267 44.5)"><text x="267" y="62" font-family="Virgil, Segoe UI Emoji" font-size="69.91304347826063px" fill="#000000" text-anchor="middle" style="white-space: pre;" direction="ltr">def end_is_cs?</text></g><g stroke-linecap="round" transform="translate(776.666666666667 10) rotate(0 216.66666666666652 78.33333333333326)"><path d="M385.65 28.75 C401.47 33.39, 411.82 40.11, 419.63 47.45 C427.45 54.78, 431.24 65.04, 432.52 72.77 C433.8 80.5, 432.05 86.5, 427.3 93.82 C422.54 101.15, 414.31 110.01, 403.97 116.73 C393.62 123.45, 380.56 128.82, 365.23 134.16 C349.89 139.5, 330.73 145.35, 311.96 148.78 C293.18 152.22, 273.51 153.37, 252.58 154.75 C231.65 156.14, 207.7 158.04, 186.37 157.1 C165.04 156.16, 144.04 152.68, 124.61 149.11 C105.18 145.54, 85.76 140.77, 69.8 135.66 C53.84 130.55, 39.76 125.18, 28.85 118.44 C17.94 111.69, 9.16 102.78, 4.32 95.18 C-0.52 87.58, -2.04 80.25, -0.18 72.83 C1.68 65.42, 7.85 57.91, 15.49 50.69 C23.13 43.48, 32.47 35.53, 45.66 29.54 C58.84 23.55, 77.12 18.77, 94.6 14.76 C112.08 10.76, 130.69 7.66, 150.53 5.52 C170.37 3.38, 192.35 2.46, 213.63 1.91 C234.9 1.36, 257.66 0.18, 278.19 2.23 C298.72 4.29, 313.6 6.78, 336.81 14.23 C360.03 21.69, 402.46 37.81, 417.47 46.96 C432.48 56.1, 430.33 68.75, 426.87 69.09 M381.45 30.87 C397.04 35.44, 405.56 42.44, 413.91 48.89 C422.26 55.34, 429.38 61.79, 431.54 69.57 C433.7 77.36, 430.63 88.29, 426.87 95.59 C423.12 102.88, 419.06 107.33, 408.99 113.34 C398.92 119.36, 381.77 126.31, 366.46 131.7 C351.16 137.09, 336.08 141.43, 317.14 145.66 C298.2 149.89, 274.22 155.31, 252.83 157.08 C231.45 158.84, 209.9 157.67, 188.83 156.26 C167.76 154.84, 145.84 151.95, 126.43 148.58 C107.02 145.21, 88.22 140.84, 72.36 136.02 C56.5 131.19, 42.12 125.79, 31.28 119.62 C20.44 113.44, 12.08 106.47, 7.31 98.94 C2.55 91.41, 1.65 82.13, 2.68 74.45 C3.71 66.77, 6.17 60.03, 13.49 52.87 C20.81 45.72, 33.57 37.72, 46.63 31.53 C59.69 25.34, 75.46 20.46, 91.85 15.72 C108.24 10.97, 125.25 5.53, 144.98 3.06 C164.72 0.59, 188.47 0.61, 210.27 0.9 C232.07 1.18, 255.17 3.27, 275.77 4.77 C296.37 6.27, 316.37 6.4, 333.86 9.88 C351.34 13.37, 372.72 22.9, 380.67 25.67 C388.62 28.44, 384.12 24.89, 381.54 26.51" stroke="#000000" stroke-width="4" fill="none"></path></g><g transform="translate(939.3333333333335 66.58333333333326) rotate(0 54 22)"><text x="54" y="35" font-family="Cascadia, Segoe UI Emoji" font-size="36px" fill="#000000" text-anchor="middle" style="white-space: pre;" direction="ltr">begin</text></g><g stroke-linecap="round" transform="translate(795.7500000000005 1496.4999999999998) rotate(0 216.66666666666652 78.33333333333326)"><path d="M42.41 30.35 C52.12 24.09, 72.53 20.42, 89.71 15.85 C106.88 11.27, 125.3 5.84, 145.47 2.9 C165.64 -0.04, 189.18 -1.5, 210.74 -1.79 C232.3 -2.08, 254.42 -1.05, 274.82 1.15 C295.22 3.36, 315.11 7.16, 333.14 11.44 C351.16 15.72, 368.95 20.92, 383 26.82 C397.04 32.72, 409.12 39.53, 417.42 46.83 C425.72 54.14, 430.62 62.97, 432.8 70.64 C434.98 78.31, 434.59 85.05, 430.51 92.84 C426.44 100.63, 418.46 110.63, 408.34 117.38 C398.21 124.13, 385.29 128.1, 369.75 133.36 C354.2 138.63, 334.28 145.32, 315.07 148.97 C295.86 152.62, 275.17 154.09, 254.47 155.25 C233.77 156.42, 211.82 156.63, 190.86 155.97 C169.91 155.3, 148.39 154.69, 128.74 151.28 C109.1 147.87, 88.84 140.59, 72.99 135.49 C57.15 130.39, 44.35 126.87, 33.69 120.66 C23.02 114.44, 14.25 105.9, 8.99 98.19 C3.73 90.49, 1.54 82.1, 2.12 74.41 C2.71 66.72, -7.53 63.36, 12.51 52.03 C32.54 40.7, 87.97 14.75, 122.34 6.43 C156.7 -1.9, 217.55 0.9, 218.68 2.05 M372.21 24.23 C388.74 28.85, 400.98 36.5, 410.63 43.43 C420.28 50.36, 426.22 58.55, 430.12 65.8 C434.02 73.05, 436.13 79.62, 434.05 86.95 C431.96 94.28, 426.22 102.83, 417.62 109.8 C409.02 116.77, 397.07 122.58, 382.46 128.75 C367.85 134.92, 348.78 142.66, 329.97 146.84 C311.17 151.01, 290.28 152.41, 269.64 153.83 C249 155.25, 227.5 155.83, 206.13 155.34 C184.75 154.85, 161.46 153.64, 141.36 150.88 C121.27 148.13, 102.26 143.24, 85.58 138.81 C68.9 134.38, 53.16 129.73, 41.31 124.29 C29.46 118.85, 21.61 113.75, 14.5 106.18 C7.39 98.61, -0.63 87.38, -1.35 78.86 C-2.08 70.33, 3.81 61.91, 10.14 55.02 C16.48 48.12, 25.22 43.66, 36.67 37.49 C48.11 31.31, 63.45 22.74, 78.79 17.98 C94.14 13.22, 109.5 11.87, 128.73 8.92 C147.97 5.96, 172.43 1.18, 194.2 0.25 C215.97 -0.68, 238.24 2.07, 259.36 3.34 C280.47 4.6, 301.94 4.11, 320.86 7.85 C339.79 11.59, 365.38 22.96, 372.9 25.76 C380.42 28.56, 369.24 23.77, 365.98 24.65" stroke="#000000" stroke-width="4" fill="none"></path></g><g transform="translate(979.916666666667 1553.083333333333) rotate(0 32.5 22)"><text x="32.5" y="35" font-family="Cascadia, Segoe UI Emoji" font-size="36px" fill="#000000" text-anchor="middle" style="white-space: pre;" direction="ltr">end</text></g><g stroke-linecap="round" transform="translate(793.333333333333 233.33333333333303) rotate(0 195 72)"><path d="M2.04 1.77 C85.15 -1.17, 174.55 -1.67, 392.32 0.85 M0.97 0.36 C153.19 3.78, 307.28 4.02, 389.46 0.94 M387.65 3.14 C391.03 55.31, 387.27 114.67, 387.8 147.23 M388.75 1.54 C390.86 43.13, 388.67 84.4, 391.51 144.32 M388.9 143.81 C303.48 145.84, 221.95 143.19, -0.99 144.36 M389.83 143.17 C279.79 147.43, 167.44 147.3, -0.77 143.74 M-2.41 140.16 C2.46 89.26, 0.63 35.34, -1.42 -2.85 M-1.69 145 C2.6 87.76, 2.58 30.72, 0.38 -0.13" stroke="#000000" stroke-width="4" fill="none"></path></g><g transform="translate(881.833333333333 283.33333333333303) rotate(0 106.5 22)"><text x="106.5" y="35" font-family="Cascadia, Segoe UI Emoji" font-size="36px" fill="#000000" text-anchor="middle" style="white-space: pre;" direction="ltr">input word</text></g><g stroke-linecap="round" transform="translate(804.9999999999995 454.66666666666606) rotate(0 195 72)"><path d="M-0.63 2.32 C137.73 -0.85, 269.69 0.21, 391.12 -2.06 M0.97 -0.98 C124.84 -2.97, 247.96 -3.85, 390.16 0.77 M387.42 -0.34 C387.58 43.85, 392.97 93.4, 390.42 146.92 M388.03 1.1 C386.68 52.38, 388.56 102.99, 389.02 143.39 M388.88 141.97 C240.14 142.86, 90.29 141.65, -1.73 145.53 M391.14 144.38 C306.59 141.53, 224.21 142.82, -0.99 144.47 M-2.18 140.81 C4.36 111.36, 1.83 75.97, -3.59 -3.54 M0.73 145.75 C-0.32 96.79, -0.32 52.44, -1.24 1.3" stroke="#000000" stroke-width="4" fill="none"></path></g><g transform="translate(861.9999999999995 504.91666666666606) rotate(0 138 22)"><text x="138" y="35" font-family="Cascadia, Segoe UI Emoji" font-size="36px" fill="#000000" text-anchor="middle" style="white-space: pre;" direction="ltr">downcase word</text></g><g stroke-linecap="round"><g transform="translate(1199.9999999999995 519.9999999999995) rotate(0 55.18537814557553 0.49219005791326254)"><path d="M0.84 -1.71 C18.32 -2.14, 89.22 -2.76, 107.49 -2.48 M-2.15 3.54 C15.93 3.35, 94.01 -0.12, 112.52 -0.2" stroke="#000000" stroke-width="4" fill="none"></path></g></g><g stroke-linecap="round"><g transform="translate(1313.333333333333 519.9999999999995) rotate(0 -2.4123730705266837 -49.92472661025823)"><path d="M-0.47 0.55 C-1.18 -16.63, -4.66 -83.79, -5.13 -100.4 M-4.17 -1.62 C-3.9 -17.15, 0.45 -79.89, 0.3 -96.99" stroke="#000000" stroke-width="4" fill="none"></path></g></g><g stroke-linecap="round"><g transform="translate(1312.4123730705262 596.5913932769242) rotate(0 -1.7123194306220455 -49.7845688860491)"><path d="M2.61 2.56 C2.41 -13.81, -3.1 -81.37, -3.63 -98.13 M0.58 1.48 C0.21 -15.69, -5.79 -84.81, -6.03 -102.13" stroke="#000000" stroke-width="4" fill="none"></path></g></g><g stroke-linecap="round"><g transform="translate(1309.9999999999995 416.6666666666663) rotate(0 224.32949643362312 -4.664935139504621)"><path d="M-0.02 -0.1 C75.23 -1.08, 377.39 -3.61, 452.13 -5.08 M-3.47 -2.62 C71.53 -4.49, 376.17 -8.5, 451.05 -9.23" stroke="#000000" stroke-width="4" fill="none"></path></g></g><g stroke-linecap="round"><g transform="translate(1325.6705035663765 604.6649351395041) rotate(0 226.27686333324758 -3.67449394178891)"><path d="M-1.76 1.69 C73.01 0.38, 373.58 -7.82, 448.64 -9.04 M2.49 0.14 C78.19 -0.8, 380.38 -4.92, 454.31 -6.7" stroke="#000000" stroke-width="4" fill="none"></path></g></g><g transform="translate(1391.7318840579703 469.16666666666606) rotate(0 330 36)"><text x="330" y="50" font-family="Virgil, Segoe UI Emoji" font-size="56.869565217391276px" fill="#000000" text-anchor="middle" style="white-space: pre;" direction="ltr">приводим к общему виду</text></g><g stroke-linecap="round" transform="translate(662.6666666666661 659.9999999999993) rotate(0 337 140)"><path d="M340.23 0.04 C436.1 40.97, 537.5 83.72, 673.46 142.64 M338.05 -0.26 C466.58 53.69, 593.5 106.43, 675.23 142.16 M671.88 141.18 C602.1 173.66, 528.21 203.56, 337.16 281.79 M673.1 141.29 C598.76 175.36, 521.34 207.78, 336.82 280.35 M336.3 277.64 C261.17 245.01, 186.52 212.01, -1.29 138.82 M337 280.7 C232.7 238.84, 127.81 194.14, -0.64 142.14 M2.13 140.09 C114.59 89.84, 235.5 42.47, 336.57 -0.18 M0.09 140.93 C118.82 87.95, 236.82 40.7, 337.92 0.34" stroke="#000000" stroke-width="4" fill="none"></path></g><g transform="translate(798.6666666666661 756.4999999999993) rotate(0 201 44)"><text x="201" y="35" font-family="Cascadia, Segoe UI Emoji" font-size="36px" fill="#000000" text-anchor="middle" style="white-space: pre;" direction="ltr">if first and second</text><text x="201" y="79" font-family="Cascadia, Segoe UI Emoji" font-size="36px" fill="#000000" text-anchor="middle" style="white-space: pre;" direction="ltr"> letter is "cs" ?</text></g><g transform="translate(608 742.4999999999995) rotate(0 22 22)"><text x="22" y="35" font-family="Cascadia, Segoe UI Emoji" font-size="36px" fill="#000000" text-anchor="middle" style="white-space: pre;" direction="ltr">NO</text></g><g transform="translate(1350.833333333333 737.9999999999995) rotate(0 32.5 22)"><text x="32.5" y="35" font-family="Cascadia, Segoe UI Emoji" font-size="36px" fill="#000000" text-anchor="middle" style="white-space: pre;" direction="ltr">YES</text></g><g stroke-linecap="round" transform="translate(10 908.3333333333329) rotate(0 283.33333333333326 81.66666666666663)"><path d="M1.06 -0.04 C208.2 3.75, 417.63 1.93, 565.89 -0.42 M0.69 -0.19 C193.05 -1.01, 384.76 -0.1, 566.18 0.27 M564.32 -3.75 C565.25 42.46, 567.3 86.24, 563.31 162.32 M567.94 0.51 C566.51 46.18, 568.06 96, 565.82 162.82 M567.15 163.12 C353.7 158.81, 142.09 159.65, 1.52 163.57 M566.55 163.33 C360.72 163.63, 154.91 163.67, -0.15 163.44 M-1.67 166.23 C2.34 102.56, 3.82 39.01, -1.84 -0.17 M1.31 163.99 C-3.41 101.38, -2.63 36.69, 1.89 1.6" stroke="#000000" stroke-width="4" fill="none"></path></g><g transform="translate(102.83333333333326 946.4999999999995) rotate(0 190.5 44)"><text x="190.5" y="35" font-family="Cascadia, Segoe UI Emoji" font-size="36px" fill="#000000" text-anchor="middle" style="white-space: pre;" direction="ltr">calculate size of </text><text x="190.5" y="79" font-family="Cascadia, Segoe UI Emoji" font-size="36px" fill="#000000" text-anchor="middle" style="white-space: pre;" direction="ltr">the word</text></g><g stroke-linecap="round" transform="translate(1436.6666666666663 1028.3333333333326) rotate(0 283.33333333333326 81.66666666666663)"><path d="M-0.27 -0.05 C154.54 3.6, 309.24 1.46, 566.22 -1.3 M-0.62 -0.41 C187.27 3.87, 373.18 3.48, 566.59 0.77 M562.81 -1.09 C562.36 50.69, 563.71 93.39, 570.1 164.98 M566.02 -0.2 C568.42 46.63, 569.44 93.9, 568.38 161.65 M567.07 163.32 C432 167.72, 298.24 167.25, 0.81 162.5 M566.79 164.11 C353.82 164.64, 141.36 165.24, -0.66 162.83 M3.86 166.46 C-4.47 119.32, 0.63 65.69, 2.46 0.11 M0.09 162.17 C0.36 128.31, 1.72 95.75, -0.22 0.64" stroke="#000000" stroke-width="4" fill="none"></path></g><g transform="translate(1528.9999999999995 1088.2499999999993) rotate(0 191 22)"><text x="191" y="35" font-family="Cascadia, Segoe UI Emoji" font-size="36px" fill="#000000" text-anchor="middle" style="white-space: pre;" direction="ltr">puts reversed word</text></g><g stroke-linecap="round" transform="translate(10.000000000000455 1161.666666666666) rotate(0 283.33333333333326 81.66666666666663)"><path d="M0.71 1.17 C188.33 -2.2, 373.43 -1.35, 567.27 0.65 M0.1 -0.07 C212.98 3, 426.63 3.29, 567.1 -0.23 M566.08 -0.59 C567.61 36.87, 562.42 72.86, 565.56 162.86 M564.83 1.66 C570.11 41.48, 571.25 77.84, 568.06 161.39 M565.84 161.96 C441.59 161.41, 318.03 159.81, 0.54 164.01 M565.95 163.64 C432.45 168.53, 297.72 168.42, 0.75 163.83 M1.2 167.2 C2.17 124.95, 2.31 85.36, -2.74 -0.3 M1.89 161.37 C1.95 105.35, -0.09 46.12, -1.99 1.09" stroke="#000000" stroke-width="4" fill="none"></path></g><g transform="translate(144.8333333333337 1221.5833333333326) rotate(0 148.5 22)"><text x="148.5" y="35" font-family="Cascadia, Segoe UI Emoji" font-size="36px" fill="#000000" text-anchor="middle" style="white-space: pre;" direction="ltr">puts size ** 2</text></g><g stroke-linecap="round"><g transform="translate(996.6666666666665 163.33333333333303) rotate(0 1.7803149908534834 26.29104240226252)"><path d="M2.65 -2.75 C3.09 6.86, 2.97 45.61, 2.47 55.33 M0.64 1.93 C0.94 10.98, 2.08 43.18, 1.57 51.41" stroke="#000000" stroke-width="4" fill="none"></path></g><g transform="translate(996.6666666666665 163.33333333333303) rotate(0 1.7803149908534834 26.29104240226252)"><path d="M-11.32 29.82 C-2.32 32.96, 0.69 36.92, 3.76 52.49 M-8.7 27.18 C-5.62 33.08, -1.5 37.77, 3.5 49.63" stroke="#000000" stroke-width="4" fill="none"></path></g><g transform="translate(996.6666666666665 163.33333333333303) rotate(0 1.7803149908534834 26.29104240226252)"><path d="M6.92 29.93 C10.56 33.39, 8.19 37.31, 3.76 52.49 M9.54 27.29 C7.98 33.32, 7.46 37.97, 3.5 49.63" stroke="#000000" stroke-width="4" fill="none"></path></g></g><g stroke-linecap="round"><g transform="translate(978.2196850091466 393.7089575977368) rotate(0 -1.9564604585606276 25.705415846842016)"><path d="M0.22 -0.2 C-0.37 9.25, -1.24 45.12, -0.82 54.18 M-3.1 -2.77 C-4.38 6.02, -4.42 40.99, -3.5 49.64" stroke="#000000" stroke-width="4" fill="none"></path></g><g transform="translate(978.2196850091466 393.7089575977368) rotate(0 -1.9564604585606276 25.705415846842016)"><path d="M-13.94 23.81 C-8.85 38.66, -4.83 42.39, -2.49 45.74 M-13.09 26.59 C-10.44 33.53, -5.64 41.35, -3 48.85" stroke="#000000" stroke-width="4" fill="none"></path></g><g transform="translate(978.2196850091466 393.7089575977368) rotate(0 -1.9564604585606276 25.705415846842016)"><path d="M4.29 23.05 C2.13 38.23, -1.07 42.26, -2.49 45.74 M5.13 25.83 C1.59 32.88, 0.19 40.95, -3 48.85" stroke="#000000" stroke-width="4" fill="none"></path></g></g><g stroke-linecap="round"><g transform="translate(1008.2196850091466 593.7089575977374) rotate(0 0.6842550848796947 27.836608411769078)"><path d="M2.08 2.68 C1.97 11.58, 1.3 43.22, 0.99 51.42 M-0.23 1.66 C-0.78 11.05, -0.5 45.25, -0.71 54.01" stroke="#000000" stroke-width="4" fill="none"></path></g><g transform="translate(1008.2196850091466 593.7089575977374) rotate(0 0.6842550848796947 27.836608411769078)"><path d="M-5.84 30.3 C-9.53 38.09, -5.66 48.21, -1.5 54.18 M-8.72 28.62 C-8.9 33.74, -6 43.61, -2.49 53.86" stroke="#000000" stroke-width="4" fill="none"></path></g><g transform="translate(1008.2196850091466 593.7089575977374) rotate(0 0.6842550848796947 27.836608411769078)"><path d="M12.41 30.43 C2.15 38.44, -0.55 48.52, -1.5 54.18 M9.52 28.74 C4.33 34.09, 2.23 43.92, -2.49 53.86" stroke="#000000" stroke-width="4" fill="none"></path></g></g><g stroke-linecap="round"><g transform="translate(686.6666666666665 813.3333333333328) rotate(0 -181.41648661664362 35.928903230206345)"><path d="M-1.96 1.62 C-53.74 -0.76, -247.89 -25.77, -308.4 -11.8 C-368.9 2.16, -356.24 68.58, -365 85.44 M2.16 0.03 C-48.9 -0.81, -242.73 -23.8, -302.93 -9.16 C-363.14 5.49, -349.72 72.23, -359.07 87.88" stroke="#000000" stroke-width="4" fill="none"></path></g><g transform="translate(686.6666666666665 813.3333333333328) rotate(0 -181.41648661664362 35.928903230206345)"><path d="M-361.45 55.78 C-364.04 67.2, -361.43 84.27, -355.25 87.95 M-364.79 57.75 C-363.75 66.35, -361.32 74.28, -360.23 86.36" stroke="#000000" stroke-width="4" fill="none"></path></g><g transform="translate(686.6666666666665 813.3333333333328) rotate(0 -181.41648661664362 35.928903230206345)"><path d="M-341.31 59.69 C-351.62 69.34, -356.67 84.92, -355.25 87.95 M-344.65 61.66 C-348.79 69.05, -351.5 75.98, -360.23 86.36" stroke="#000000" stroke-width="4" fill="none"></path></g></g><g stroke-linecap="round"><g transform="translate(1353.333333333333 809.9999999999995) rotate(0 165.93320639318463 90.16023454797869)"><path d="M1.39 0.93 C49.81 0.86, 232.5 -33.4, 287.79 -1.45 C343.09 30.51, 325.86 159.91, 333.16 192.65 M-1.3 -1.04 C48.24 -0.66, 237.57 -31.34, 292.99 1.4 C348.42 34.14, 324.88 163.98, 331.26 195.39" stroke="#000000" stroke-width="4" fill="none"></path></g><g transform="translate(1353.333333333333 809.9999999999995) rotate(0 165.93320639318463 90.16023454797869)"><path d="M321.98 164.17 C320.53 172.67, 323.77 176.18, 333.62 195.68 M320.82 167.35 C323.04 174.48, 327.66 181.96, 332.44 193.56" stroke="#000000" stroke-width="4" fill="none"></path></g><g transform="translate(1353.333333333333 809.9999999999995) rotate(0 165.93320639318463 90.16023454797869)"><path d="M342.5 163.92 C336.88 172.68, 335.97 176.24, 333.62 195.68 M341.34 167.1 C337.73 174.48, 336.54 182.03, 332.44 193.56" stroke="#000000" stroke-width="4" fill="none"></path></g></g><g stroke-linecap="round"><g transform="translate(300.0000000000002 1089.9999999999993) rotate(0 -1.0466825441496326 26.87145331413798)"><path d="M0.72 -2.27 C0.45 7.11, -0.36 44.45, -1.38 53.89 M-2.34 2.67 C-2.82 12.5, -3 47.09, -2.56 56.01" stroke="#000000" stroke-width="4" fill="none"></path></g><g transform="translate(300.0000000000002 1089.9999999999993) rotate(0 -1.0466825441496326 26.87145331413798)"><path d="M-15.97 32.3 C-14.01 34.67, -10.2 49.78, -0.12 55.2 M-13.81 28.8 C-12.15 37.44, -7.28 41.46, -4.39 55.58" stroke="#000000" stroke-width="4" fill="none"></path></g><g transform="translate(300.0000000000002 1089.9999999999993) rotate(0 -1.0466825441496326 26.87145331413798)"><path d="M3.44 31.96 C-0.59 34.54, -2.78 49.75, -0.12 55.2 M5.6 28.46 C2.56 37.48, 2.72 41.58, -4.39 55.58" stroke="#000000" stroke-width="4" fill="none"></path></g></g><g stroke-linecap="round"><g transform="translate(230.00000000000023 1339.999999999999) rotate(0 399.7666686879163 70.16903098454083)"><path d="M-1.74 2.33 C10.78 10.29, -44.41 43.8, 75.96 48.29 C196.32 52.79, 599.49 14.6, 720.46 29.32 C841.44 44.04, 788.55 119.14, 801.79 136.62 M2.51 1.13 C14.82 9.37, -44.26 45.84, 75.14 51 C194.54 56.15, 597.54 17.36, 718.91 32.06 C840.28 46.77, 790.43 122.25, 803.35 139.21" stroke="#000000" stroke-width="4" fill="none"></path></g><g transform="translate(230.00000000000023 1339.999999999999) rotate(0 399.7666686879163 70.16903098454083)"><path d="M795.42 115.15 C793.48 121.39, 798.67 132.47, 803.29 139.12 M793.8 110.28 C796.25 116.21, 798.17 124.02, 803 139.28" stroke="#000000" stroke-width="4" fill="none"></path></g><g transform="translate(230.00000000000023 1339.999999999999) rotate(0 399.7666686879163 70.16903098454083)"><path d="M815.93 114.41 C807.22 120.64, 805.63 131.97, 803.29 139.12 M814.31 109.55 C812.41 115.25, 809.97 123.22, 803 139.28" stroke="#000000" stroke-width="4" fill="none"></path></g></g><g stroke-linecap="round"><g transform="translate(1739.5037282116868 1223.1643023487916) rotate(0 -351.39394432455555 132.32782246460522)"><path d="M-0.6 -0.29 C-8.7 29.38, 60.41 152.97, -49.13 179.4 C-158.67 205.83, -547.73 143.92, -657.83 158.28 C-767.93 172.64, -700.51 247.08, -709.71 265.56 M4.27 -2.91 C-2.85 27.05, 66.89 155.48, -43.56 182.71 C-154 209.94, -547.53 146.32, -658.41 160.46 C-769.28 174.6, -700.32 250.51, -708.81 267.57" stroke="#000000" stroke-width="4" fill="none"></path></g><g transform="translate(1739.5037282116868 1223.1643023487916) rotate(0 -351.39394432455555 132.32782246460522)"><path d="M-725.44 240.15 C-721.08 252.71, -718.14 257.39, -710.39 263.67 M-724.32 242.62 C-717.96 250.69, -713 262.92, -709.61 268.69" stroke="#000000" stroke-width="4" fill="none"></path></g><g transform="translate(1739.5037282116868 1223.1643023487916) rotate(0 -351.39394432455555 132.32782246460522)"><path d="M-705.42 235.62 C-706.63 249.37, -709.29 255.31, -710.39 263.67 M-704.3 238.1 C-705.78 247.95, -708.6 261.93, -709.61 268.69" stroke="#000000" stroke-width="4" fill="none"></path></g></g></svg>