<svg version="1.1" xmlns="http://www.w3.org/2000/svg" viewBox="0 0 678 641" width="678" height="641">
  <!-- svg-source:excalidraw -->
  
  <defs>
    <style class="style-fonts">
      @font-face {
        font-family: "Virgil";
        src: url("https://excalidraw.com/Virgil.woff2");
      }
      @font-face {
        font-family: "Cascadia";
        src: url("https://excalidraw.com/Cascadia.woff2");
      }
    </style>
  </defs>
  <rect x="0" y="0" width="678" height="641" fill="#ffffff"></rect><g stroke-linecap="round" transform="translate(239 10) rotate(0 86 34)"><path d="M111.79 1.97 C124.24 2.74, 136.56 5.89, 145.81 9.49 C155.06 13.09, 163.18 18.48, 167.32 23.55 C171.45 28.63, 172.74 34.69, 170.6 39.93 C168.47 45.16, 162.53 50.78, 154.5 54.99 C146.48 59.2, 134.79 63.12, 122.47 65.19 C110.15 67.27, 94.04 67.6, 80.6 67.44 C67.15 67.27, 53.13 66.89, 41.82 64.19 C30.51 61.49, 19.8 55.93, 12.74 51.25 C5.68 46.56, 0.42 41.15, -0.56 36.07 C-1.54 31, 1.42 25.48, 6.84 20.8 C12.26 16.13, 21.57 11.24, 31.96 8.02 C42.36 4.8, 55.02 2.36, 69.2 1.51 C83.39 0.66, 108.58 2.63, 117.08 2.91 C125.59 3.2, 120.7 2.9, 120.24 3.22 M57.45 2.78 C68.91 0.53, 87.01 -0.69, 100.11 0.18 C113.22 1.04, 125.27 5.03, 136.08 7.99 C146.9 10.95, 158.83 13.49, 165 17.94 C171.17 22.39, 173.78 28.96, 173.11 34.68 C172.45 40.41, 167.7 47.66, 161 52.29 C154.31 56.92, 144.34 59.97, 132.96 62.46 C121.58 64.96, 106.23 66.66, 92.74 67.24 C79.24 67.82, 64.34 67.93, 51.98 65.94 C39.62 63.94, 27 59.66, 18.56 55.28 C10.12 50.9, 3.63 44.8, 1.34 39.67 C-0.95 34.53, 1.19 29.31, 4.81 24.47 C8.43 19.64, 14.32 14.28, 23.06 10.67 C31.81 7.06, 51.26 4.15, 57.28 2.82 C63.3 1.5, 58.49 2.19, 59.19 2.72" stroke="#000000" stroke-width="1" fill="none"></path></g><g transform="translate(301.5 37.5) rotate(0 23.5 13)"><text x="23.5" y="18" font-family="Virgil, Segoe UI Emoji" font-size="20px" fill="#000000" text-anchor="middle" style="white-space: pre;" direction="ltr">begin</text></g><g stroke-linecap="round" transform="translate(248 563) rotate(0 86 34)"><path d="M121.35 3.95 C133.31 5.64, 145.73 9.02, 153.86 13.17 C162 17.32, 167.95 23.55, 170.17 28.83 C172.38 34.11, 171.16 39.95, 167.13 44.86 C163.1 49.77, 155.37 54.59, 145.98 58.27 C136.59 61.95, 123.3 65.28, 110.78 66.94 C98.26 68.59, 83.72 69.32, 70.86 68.21 C58 67.09, 44.1 63.62, 33.6 60.27 C23.1 56.91, 13.35 52.8, 7.84 48.09 C2.33 43.38, -0.32 37.2, 0.54 32 C1.39 26.8, 6.23 21.5, 12.98 16.88 C19.74 12.26, 29.65 7.18, 41.06 4.28 C52.47 1.37, 67 -0.65, 81.45 -0.55 C95.9 -0.45, 119.22 3.61, 127.75 4.88 C136.29 6.15, 133.44 6.65, 132.67 7.07 M102.13 1.71 C114.46 2.22, 127.71 4.4, 138.28 7.45 C148.84 10.5, 159.75 15.14, 165.5 19.99 C171.25 24.84, 173.62 31.05, 172.77 36.56 C171.93 42.07, 167.32 48.68, 160.42 53.05 C153.52 57.43, 142.79 60.18, 131.35 62.79 C119.91 65.4, 105.41 68.53, 91.78 68.69 C78.15 68.86, 61.61 66.1, 49.56 63.8 C37.51 61.49, 27.74 58.98, 19.47 54.88 C11.21 50.79, 2.75 44.3, -0.01 39.24 C-2.78 34.17, -1.33 29.24, 2.88 24.48 C7.09 19.73, 15.73 14.63, 25.25 10.72 C34.76 6.82, 47.05 2.55, 59.95 1.06 C72.85 -0.44, 95.62 1.9, 102.65 1.76 C109.67 1.61, 102.7 -0.11, 102.08 0.2" stroke="#000000" stroke-width="1" fill="none"></path></g><g transform="translate(317 590.5) rotate(0 17 13)"><text x="17" y="18" font-family="Virgil, Segoe UI Emoji" font-size="20px" fill="#000000" text-anchor="middle" style="white-space: pre;" direction="ltr">end</text></g><g stroke-linecap="round" transform="translate(249 101) rotate(0 78 24)"><path d="M0.72 1.01 C60.62 -1.31, 125.94 0.18, 154.09 -1.22 M0.5 -0.27 C36.1 0.7, 73.65 0.53, 155.32 -0.66 M156.64 -1.68 C156.23 13.87, 156.22 26.42, 155.92 48.13 M155.34 -0.51 C156.99 18.85, 155.51 37.92, 155.51 47.22 M157.88 47.42 C108.07 46.99, 60.73 45.25, -0.26 49.22 M156.48 47.91 C99.57 49.17, 42.36 49.8, 0.15 47.45 M1.36 49.85 C0.22 32.86, 1.65 16.49, 1.39 -0.17 M0.93 48.31 C0.17 32.27, 0.56 18.42, 0.57 -0.27" stroke="#000000" stroke-width="1" fill="none"></path></g><g transform="translate(276 112) rotate(0 51 13)"><text x="51" y="18" font-family="Virgil, Segoe UI Emoji" font-size="20px" fill="#000000" text-anchor="middle" style="white-space: pre;" direction="ltr">input word</text></g><g stroke-linecap="round" transform="translate(217 253) rotate(0 112.5 54)"><path d="M114.8 -0.97 C153.64 19.2, 194.85 41.12, 225.77 56.32 M112.39 -0.02 C146.87 16.47, 182.21 34.51, 225.59 55.44 M226.15 56.65 C190.03 72.84, 158.11 85.49, 112.65 108.99 M225.03 54.24 C182.78 76.51, 137.89 96.59, 113.47 107.58 M113.79 106.95 C73 88.84, 33.66 70.25, 1 53.93 M112.64 107.77 C76.91 89.94, 38.53 73.02, -0.1 54.68 M0.83 56.42 C23.06 42.11, 45.26 33.27, 114.1 0.57 M-0.68 54.75 C44.62 33.58, 87.22 11.37, 112.68 -0.07" stroke="#000000" stroke-width="1" fill="none"></path></g><g transform="translate(231 286) rotate(0 98.5 21)"><text x="98.5" y="15" font-family="Virgil, Segoe UI Emoji" font-size="16px" fill="#000000" text-anchor="middle" style="white-space: pre;" direction="ltr">Does last and predlast </text><text x="98.5" y="36" font-family="Virgil, Segoe UI Emoji" font-size="16px" fill="#000000" text-anchor="middle" style="white-space: pre;" direction="ltr">letter is "cs" ?</text></g><g stroke-linecap="round" transform="translate(476 365) rotate(0 96 26)"><path d="M-0.72 1.44 C60.21 1.27, 122.35 -0.02, 191.64 1.61 M-0.85 0.97 C48.02 -0.63, 95.87 -0.67, 192.31 -0.77 M190.05 1.21 C191.62 12.38, 192.56 25.51, 190.19 53.97 M191.88 0.81 C191.05 16.36, 191.19 33.42, 192.25 51.42 M191.91 50.23 C137.1 54.09, 78.4 53.29, 0.18 52.62 M191.78 51.6 C146.48 54.52, 101.24 53.04, -0.19 51.6 M-1.42 52.02 C-0.33 39.84, -0.2 25.9, 1.73 1.79 M0.62 52.58 C0.63 37.86, -0.25 24.52, -0.69 -0.88" stroke="#000000" stroke-width="1" fill="none"></path></g><g transform="translate(495.5 380.5) rotate(0 76.5 10.5)"><text x="76.5" y="15" font-family="Virgil, Segoe UI Emoji" font-size="16px" fill="#000000" text-anchor="middle" style="white-space: pre;" direction="ltr">puts reversed word</text></g><g stroke-linecap="round" transform="translate(12 355) rotate(0 90 29.5)"><path d="M-1.51 0.88 C52.21 0.8, 103.26 -1.53, 178.92 0.05 M-0.81 -0.7 C62.23 -0.77, 126.56 -0.46, 179.65 -0.02 M179.4 -0.45 C179.09 22.04, 178.18 39.4, 180.83 60 M180.46 0.6 C180.56 14.28, 180.39 29.67, 180.85 58.5 M180.36 60.18 C130.59 57.22, 78.9 60.15, -0.4 57.68 M179.46 58.19 C138.28 60.94, 98.47 61.14, 0.14 58.37 M-1.78 60.52 C-1.51 42.13, 1.42 22.55, -0.55 -1.16 M-0.17 58.38 C-0.04 38.25, -0.89 19.11, 0.44 -0.31" stroke="#000000" stroke-width="1" fill="none"></path></g><g transform="translate(24.5 374) rotate(0 77.5 10.5)"><text x="77.5" y="15" font-family="Virgil, Segoe UI Emoji" font-size="16px" fill="#000000" text-anchor="middle" style="white-space: pre;" direction="ltr">calculate word size</text></g><g stroke-linecap="round" transform="translate(10 449.5) rotate(0 90 29.5)"><path d="M-0.84 -0.29 C71.6 -0.97, 142.42 1.52, 179.76 0.66 M-0.75 0.11 C39.68 -0.7, 78.27 -0.96, 180.9 0.98 M179.06 0.44 C179.35 20.3, 177.89 42.67, 178.05 57.98 M179.42 -0.11 C180.18 20.69, 180.16 40.1, 180.38 59.94 M181.34 60.63 C134.28 55.4, 88.45 58.63, -1.22 59.23 M180.52 58.71 C143.45 59.49, 106.24 59.36, -0.9 58.34 M-0.94 59.03 C-0.09 43.54, -0.15 26.96, -0.41 0.99 M0.56 59.21 C0.53 42.11, -0.15 27.51, 0.25 -0.84" stroke="#000000" stroke-width="1" fill="none"></path></g><g transform="translate(40.5 468.5) rotate(0 59.5 10.5)"><text x="59.5" y="15" font-family="Virgil, Segoe UI Emoji" font-size="16px" fill="#000000" text-anchor="middle" style="white-space: pre;" direction="ltr">puts size ** 2</text></g><g stroke-linecap="round"><g transform="translate(326 80) rotate(0 0.1300441193267261 7.567592818062479)"><path d="M-0.32 0.44 C-0.22 0.52, -0.09 -3.03, -0.1 -0.57 C-0.11 1.88, -0.3 12.6, -0.4 15.17 M1.71 -0.38 C1.7 -0.05, -0.59 -2.16, -1.1 0.66 C-1.61 3.49, -1.43 14.05, -1.37 16.58" stroke="#000000" stroke-width="1" fill="none"></path></g><g transform="translate(326 80) rotate(0 0.1300441193267261 7.567592818062479)"><path d="M-3.77 9.51 C-3.82 11.03, -2.71 12.56, -1.48 16.64 M-4.24 9.48 C-3.21 11.51, -2.69 14.25, -1.27 16.78" stroke="#000000" stroke-width="1" fill="none"></path></g><g transform="translate(326 80) rotate(0 0.1300441193267261 7.567592818062479)"><path d="M1.36 9.43 C0.07 10.95, -0.06 12.51, -1.48 16.64 M0.89 9.4 C0.25 11.44, -0.89 14.21, -1.27 16.78" stroke="#000000" stroke-width="1" fill="none"></path></g></g><g stroke-linecap="round"><g transform="translate(330.86995588067333 235.4324071819375) rotate(0 -0.14644677720980326 6.776832245967398)"><path d="M0.04 -1.09 C-0.04 -0.97, -1.11 -2.38, -1.06 0.4 C-1.02 3.19, 0.16 13.38, 0.31 15.64 M-1.4 0.96 C-1.07 0.73, 0.91 -3.62, 1.09 -1.51 C1.28 0.6, -0.12 10.96, -0.3 13.63" stroke="#000000" stroke-width="1" fill="none"></path></g><g transform="translate(330.86995588067333 235.4324071819375) rotate(0 -0.14644677720980326 6.776832245967398)"><path d="M-2.81 5.7 C-1.44 8.36, -0.83 9.89, -0.94 13.56 M-2.48 6.43 C-1.08 9.2, -1.08 12.17, -0.03 13.26" stroke="#000000" stroke-width="1" fill="none"></path></g><g transform="translate(330.86995588067333 235.4324071819375) rotate(0 -0.14644677720980326 6.776832245967398)"><path d="M2.29 6.22 C2.39 8.76, 1.72 10.15, -0.94 13.56 M2.63 6.95 C2.02 9.51, 0.01 12.28, -0.03 13.26" stroke="#000000" stroke-width="1" fill="none"></path></g></g><g stroke-linecap="round"><g transform="translate(442 308) rotate(0 63.12352982534097 24.823655632079465)"><path d="M0.87 -1.19 C19.11 -1.74, 87.39 -12.65, 108.31 -3.02 C129.22 6.62, 123.26 46.68, 126.38 56.62 M-0.13 0.79 C18.59 0.43, 89.66 -10.45, 110.65 -1.49 C131.64 7.48, 122.96 45.29, 125.81 54.61" stroke="#000000" stroke-width="1" fill="none"></path></g><g transform="translate(442 308) rotate(0 63.12352982534097 24.823655632079465)"><path d="M112.48 25.68 C116.86 33.15, 120.28 39.93, 126.85 55 M114.98 26.9 C117.97 36.43, 122.3 45.22, 125.27 55.2" stroke="#000000" stroke-width="1" fill="none"></path></g><g transform="translate(442 308) rotate(0 63.12352982534097 24.823655632079465)"><path d="M132.98 24.88 C133.1 32.67, 132.26 39.62, 126.85 55 M135.48 26.11 C131.53 35.88, 128.93 44.94, 125.27 55.2" stroke="#000000" stroke-width="1" fill="none"></path></g></g><g stroke-linecap="round"><g transform="translate(212 301) rotate(0 -55.03884101357312 22.84578887505407)"><path d="M-0.84 0.63 C-17.23 0.8, -79.57 -5.46, -97.91 2.16 C-116.24 9.78, -108.66 38.7, -110.84 46.34 M0.92 -0.09 C-15.13 0.81, -77.02 -4.11, -95.67 3.79 C-114.32 11.69, -107.97 40.28, -110.99 47.32" stroke="#000000" stroke-width="1" fill="none"></path></g><g transform="translate(212 301) rotate(0 -55.03884101357312 22.84578887505407)"><path d="M-115.76 22.81 C-114.38 33.97, -113.81 41.44, -109.27 46.43 M-117.57 24.65 C-115.19 31.18, -112.61 39.25, -110.39 47.35" stroke="#000000" stroke-width="1" fill="none"></path></g><g transform="translate(212 301) rotate(0 -55.03884101357312 22.84578887505407)"><path d="M-99.62 24.45 C-103.64 34.95, -108.44 41.87, -109.27 46.43 M-101.43 26.29 C-104.48 32.2, -107.34 39.71, -110.39 47.35" stroke="#000000" stroke-width="1" fill="none"></path></g></g><g stroke-linecap="round"><g transform="translate(102 421) rotate(0 -0.0002508672713190663 9.36579228149725)"><path d="M-0.87 -0.84 C-0.92 2.36, 0.56 15.05, 0.74 18.02 M0.87 1.34 C0.64 4.84, 0.39 16.82, 0.18 19.57" stroke="#000000" stroke-width="1" fill="none"></path></g><g transform="translate(102 421) rotate(0 -0.0002508672713190663 9.36579228149725)"><path d="M-3.15 11.54 C-1.54 14.51, -1.25 18.14, -0.36 20.42 M-2.68 11.37 C-1.36 13.19, -0.92 15.58, 0.07 19.66" stroke="#000000" stroke-width="1" fill="none"></path></g><g transform="translate(102 421) rotate(0 -0.0002508672713190663 9.36579228149725)"><path d="M3 11.81 C2.23 14.63, 0.15 18.15, -0.36 20.42 M3.47 11.64 C3.07 13.44, 1.79 15.76, 0.07 19.66" stroke="#000000" stroke-width="1" fill="none"></path></g></g><g stroke-linecap="round"><g transform="translate(93.65288271054675 518) rotate(0 117.75276783363101 19.15531364830207)"><path d="M-0.2 -0.32 C2.65 2.49, -17.87 13.6, 17.36 15.8 C52.59 18.01, 174.05 9.06, 211.19 12.89 C248.34 16.73, 235.08 34.43, 240.23 38.83 M-1.77 -1.54 C0.97 1.03, -18.6 11.57, 16.86 14.1 C52.32 16.63, 173.81 9.34, 210.98 13.63 C248.15 17.92, 234.89 35.48, 239.9 39.85" stroke="#000000" stroke-width="1" fill="none"></path></g><g transform="translate(93.65288271054675 518) rotate(0 117.75276783363101 19.15531364830207)"><path d="M228.8 24.28 C233.91 30.1, 234.13 31.95, 239.62 41.1 M229.84 23.73 C232.45 28.94, 236.75 34.71, 238.94 40.26" stroke="#000000" stroke-width="1" fill="none"></path></g><g transform="translate(93.65288271054675 518) rotate(0 117.75276783363101 19.15531364830207)"><path d="M242.18 21.46 C242.97 28.16, 238.88 30.92, 239.62 41.1 M243.23 20.91 C241.51 26.95, 241.48 33.62, 238.94 40.26" stroke="#000000" stroke-width="1" fill="none"></path></g></g><g stroke-linecap="round"><g transform="translate(574 428) rotate(0 -110.13208537869241 53.397135897268754)"><path d="M0.57 -0.43 C0.56 15.75, 40.72 78.96, 0.95 96.98 C-38.81 115.01, -198.06 106.05, -238.02 107.71 M-0.6 -1.71 C-0.76 14.17, 40.2 77.46, 0.5 95.37 C-39.19 113.28, -198.89 103.64, -238.79 105.75" stroke="#000000" stroke-width="1" fill="none"></path></g><g transform="translate(574 428) rotate(0 -110.13208537869241 53.397135897268754)"><path d="M-211.29 97.17 C-219.69 99.56, -230.88 102.18, -238.88 106.21 M-210.4 94.88 C-217.09 97.85, -223.86 99.77, -239.42 106.16" stroke="#000000" stroke-width="1" fill="none"></path></g><g transform="translate(574 428) rotate(0 -110.13208537869241 53.397135897268754)"><path d="M-211.36 117.69 C-219.71 112.27, -230.88 107.07, -238.88 106.21 M-210.47 115.4 C-217.11 113.62, -223.86 110.8, -239.42 106.16" stroke="#000000" stroke-width="1" fill="none"></path></g></g><g transform="translate(446 274) rotate(0 15.5 10.5)"><text x="0" y="14" font-family="Virgil, Segoe UI Emoji" font-size="16px" fill="#000000" text-anchor="start" style="white-space: pre;" direction="ltr">YES</text></g><g transform="translate(189.5 270.5) rotate(0 12 10.5)"><text x="0" y="14" font-family="Virgil, Segoe UI Emoji" font-size="16px" fill="#000000" text-anchor="start" style="white-space: pre;" direction="ltr">NO</text></g><g stroke-linecap="round" transform="translate(249 177) rotate(0 78 24)"><path d="M1.17 -0.9 C59.35 -0.36, 118.93 1.26, 156.99 1.48 M0.51 -0.46 C35.04 -0.8, 71.72 -1.1, 155.7 0.17 M155.29 1.32 C156.99 11.49, 154.12 28.14, 157.17 47.93 M156.14 -0.27 C155.1 12.49, 156.8 25.17, 155.3 47.06 M155.45 46.34 C98.94 47.56, 40.89 46.22, -0.75 46.03 M155.35 47.52 C122.71 47.87, 88.87 47.77, 0.41 47.74 M1.81 46.51 C-0.9 27.94, 1.06 10.67, 0.81 1.09 M0.87 47.97 C0.07 35.59, -0.43 24.75, -0.48 0.03" stroke="#000000" stroke-width="1" fill="none"></path></g><g transform="translate(255 188) rotate(0 72 13)"><text x="72" y="18" font-family="Virgil, Segoe UI Emoji" font-size="20px" fill="#000000" text-anchor="middle" style="white-space: pre;" direction="ltr">downcase word</text></g><g stroke-linecap="round"><g transform="translate(325.8699558806733 153.43240718193752) rotate(0 -0.32460806434846745 6.849891187888204)"><path d="M-0.91 -0.98 C-1.08 -0.88, -0.64 -1.65, -0.35 0.9 C-0.06 3.44, 0.61 11.81, 0.84 14.26 M0.82 1.11 C0.39 0.87, -1.43 -3.1, -1.48 -0.76 C-1.54 1.59, -0.03 12.84, 0.51 15.2" stroke="#000000" stroke-width="1" fill="none"></path></g><g transform="translate(325.8699558806733 153.43240718193752) rotate(0 -0.32460806434846745 6.849891187888204)"><path d="M-3.8 8.45 C-1.29 11.56, -0.98 14, 0.89 15.33 M-2.84 8.67 C-1.78 10.71, -0.3 13.29, 0.22 14.88" stroke="#000000" stroke-width="1" fill="none"></path></g><g transform="translate(325.8699558806733 153.43240718193752) rotate(0 -0.32460806434846745 6.849891187888204)"><path d="M1.26 7.6 C1.96 10.98, 0.45 13.72, 0.89 15.33 M2.22 7.82 C1.59 10.19, 1.36 13.06, 0.22 14.88" stroke="#000000" stroke-width="1" fill="none"></path></g></g><g stroke-linecap="round"><g transform="translate(407 204) rotate(0 9.58304942282848 0.012431308943789077)"><path d="M1.2 0.21 C4.22 0.27, 15.64 -0.66, 18.8 -0.51 M0.37 -0.73 C3.15 -0.42, 14.48 0.74, 17.74 0.75" stroke="#000000" stroke-width="1" fill="none"></path></g></g><g stroke-linecap="round"><g transform="translate(430 164) rotate(0 -1.5884201433509588 36.65958261938765)"><path d="M1 0.65 C0.5 12.6, -3.57 59.96, -4.18 71.89 M0.07 -0.05 C0.02 12.08, -1.54 61.08, -2.08 73.37" stroke="#000000" stroke-width="1" fill="none"></path></g></g><g stroke-linecap="round"><g transform="translate(428 236) rotate(0 76.83331800086424 -4.759115337859839)"><path d="M0.64 -0.42 C26.28 -1.82, 128.56 -6.15, 154.16 -7.33 M-0.49 -1.68 C24.99 -2.91, 127.62 -7.79, 153.29 -9.1" stroke="#000000" stroke-width="1" fill="none"></path></g></g><g stroke-linecap="round"><g transform="translate(431.1666819991355 165.75911533785987) rotate(0 76.86970112833194 -3.496834288714453)"><path d="M0.21 -0.57 C26.09 -2.18, 129.31 -7.54, 154.88 -8.74 M-1.14 1.74 C24.69 0.2, 128.75 -6.24, 154.39 -7.58" stroke="#000000" stroke-width="1" fill="none"></path></g></g><g transform="translate(451 184) rotate(0 96 10.5)"><text x="0" y="14" font-family="Virgil, Segoe UI Emoji" font-size="16px" fill="#000000" text-anchor="start" style="white-space: pre;" direction="ltr">Приводим к общему виду</text></g></svg>