<svg version="1.1" xmlns="http://www.w3.org/2000/svg" viewBox="0 0 2634.5472399478153 2324.9999999999986" width="2634.5472399478153" height="2324.9999999999986">
  <!-- svg-source:excalidraw -->
  
  <defs>
    <style class="style-fonts">
      @font-face {
        font-family: "Virgil";
        src: url("https://excalidraw.com/Virgil.woff2");
      }
      @font-face {
        font-family: "Cascadia";
        src: url("https://excalidraw.com/Cascadia.woff2");
      }
    </style>
  </defs>
  <rect x="0" y="0" width="2634.5472399478153" height="2324.9999999999986" fill="#ffffff"></rect><g stroke-linecap="round" transform="translate(417.8805732811485 10) rotate(0 243.33333333333326 118.33333333333326)"><path d="M441.1 49.03 C455.87 55.88, 464.62 68.3, 472.18 78.92 C479.73 89.54, 485.2 101.79, 486.44 112.78 C487.68 123.77, 484.24 134.53, 479.64 144.87 C475.05 155.21, 468.44 165.78, 458.87 174.82 C449.31 183.86, 437.32 191.48, 422.24 199.09 C407.16 206.7, 387.43 215.07, 368.4 220.48 C349.37 225.89, 329.24 228.95, 308.08 231.55 C286.92 234.15, 263.21 235.93, 241.44 236.08 C219.67 236.22, 198.49 235.29, 177.45 232.43 C156.41 229.56, 134.23 224.8, 115.19 218.89 C96.16 212.97, 78.28 204.67, 63.23 196.95 C48.18 189.22, 34.48 181.49, 24.91 172.55 C15.34 163.61, 10.09 153.46, 5.8 143.3 C1.51 133.15, -2.12 122.19, -0.83 111.61 C0.46 101.03, 5.68 89.87, 13.54 79.85 C21.41 69.83, 33.33 60.43, 46.37 51.5 C59.4 42.57, 75.09 33.31, 91.78 26.27 C108.46 19.23, 126.82 13.28, 146.46 9.27 C166.09 5.25, 187.85 3.64, 209.57 2.18 C231.29 0.71, 255 -0.61, 276.78 0.48 C298.55 1.57, 319.91 4.5, 340.23 8.72 C360.55 12.95, 378.63 15.91, 398.69 25.83 C418.76 35.75, 448.26 58.34, 460.61 68.24 C472.96 78.14, 476.47 84.47, 472.79 85.23 M129.28 14.53 C146.6 8.35, 174.05 3.15, 196.13 0.51 C218.22 -2.13, 240.16 -2.49, 261.76 -1.33 C283.37 -0.17, 305.54 3.82, 325.76 7.48 C345.98 11.15, 365.32 14.45, 383.08 20.66 C400.83 26.86, 417.98 36.22, 432.31 44.71 C446.64 53.19, 460.75 61.98, 469.04 71.57 C477.33 81.17, 479.8 92.27, 482.03 102.26 C484.25 112.26, 485.45 120.98, 482.39 131.54 C479.33 142.11, 472.27 155.07, 463.67 165.64 C455.08 176.2, 444.09 186.26, 430.8 194.93 C417.52 203.61, 401.87 211.72, 383.97 217.69 C366.07 223.65, 344.55 227.82, 323.4 230.7 C302.25 233.59, 278.75 234.72, 257.07 235 C235.39 235.28, 214.42 234.04, 193.33 232.39 C172.24 230.74, 149.49 229.45, 130.54 225.09 C111.59 220.73, 95.43 214.19, 79.65 206.21 C63.87 198.24, 47.92 186.53, 35.85 177.24 C23.78 167.94, 13.45 160.27, 7.23 150.45 C1 140.63, -1.94 129.08, -1.5 118.33 C-1.06 107.58, 4.13 95.95, 9.87 85.94 C15.6 75.92, 21.27 67.48, 32.88 58.23 C44.49 48.98, 63.29 38.24, 79.52 30.46 C95.75 22.67, 121.34 14.05, 130.27 11.51 C139.2 8.96, 131.24 12.99, 133.1 15.2" stroke="#000000" stroke-width="4" fill="none"></path></g><g transform="translate(607.2139066144817 117.33333333333326) rotate(0 54 22)"><text x="54" y="35" font-family="Cascadia, Segoe UI Emoji" font-size="36px" fill="#000000" text-anchor="middle" style="white-space: pre;" direction="ltr">begin</text></g><g stroke-linecap="round" transform="translate(371.21390661448265 2078.333333333332) rotate(0 243.33333333333326 118.33333333333326)"><path d="M116.46 18.94 C132.03 11.88, 153.24 9.24, 173.82 5.89 C194.41 2.55, 218.16 -0.57, 239.98 -1.11 C261.81 -1.66, 283.35 -0.57, 304.78 2.64 C326.21 5.85, 349.66 12.25, 368.57 18.13 C387.47 24, 403.45 30.34, 418.22 37.89 C432.99 45.45, 446.65 54.32, 457.2 63.45 C467.75 72.58, 476.78 82.38, 481.51 92.7 C486.23 103.02, 486.81 114.4, 485.57 125.37 C484.34 136.34, 481.07 148.75, 474.09 158.52 C467.12 168.3, 456.29 175.78, 443.74 184.03 C431.18 192.29, 415.96 201.3, 398.76 208.05 C381.55 214.8, 360.49 220.1, 340.52 224.52 C320.54 228.94, 300.04 232.66, 278.93 234.57 C257.81 236.48, 235.27 237.32, 213.84 235.96 C192.41 234.6, 170.64 230.92, 150.36 226.42 C130.09 221.93, 109.77 215.52, 92.21 208.99 C74.65 202.46, 58.09 195.64, 45 187.23 C31.91 178.82, 20.85 168.2, 13.67 158.53 C6.48 148.86, 3.23 139.67, 1.88 129.2 C0.53 118.73, 1.79 106.61, 5.56 95.7 C9.33 84.79, 14.74 73.46, 24.49 63.74 C34.23 54.03, 41.7 46.71, 64.02 37.42 C86.33 28.13, 134.75 13.89, 158.36 8 C181.96 2.11, 204.08 0.08, 205.65 2.09 M135.14 12.05 C152.06 6.33, 176.24 4.96, 197.41 3.01 C218.58 1.06, 240.67 -0.57, 262.17 0.33 C283.67 1.23, 305.48 4.86, 326.41 8.41 C347.34 11.96, 369.69 15.04, 387.75 21.63 C405.8 28.22, 420.99 38.97, 434.72 47.95 C448.46 56.93, 462.05 66.45, 470.14 75.5 C478.22 84.55, 480.77 91.71, 483.22 102.24 C485.68 112.76, 488.46 128.11, 484.85 138.64 C481.24 149.17, 470.94 155.83, 461.55 165.42 C452.16 175.01, 442.53 187.56, 428.5 196.19 C414.47 204.83, 394.93 211.24, 377.36 217.22 C359.8 223.2, 343.05 228.73, 323.09 232.08 C303.12 235.42, 279.7 237.47, 257.58 237.28 C235.46 237.09, 212.26 233.11, 190.36 230.94 C168.46 228.77, 145.31 229.07, 126.19 224.28 C107.06 219.48, 91.2 210.12, 75.62 202.18 C60.04 194.24, 43.7 185.8, 32.7 176.64 C21.69 167.48, 14.64 156.92, 9.57 147.21 C4.5 137.49, 2.61 128.91, 2.27 118.36 C1.93 107.8, 1.8 94.23, 7.55 83.87 C13.3 73.5, 24.86 64.7, 36.76 56.18 C48.66 47.66, 62.92 39.87, 78.95 32.74 C94.97 25.61, 122.78 16.34, 132.91 13.4 C143.04 10.45, 137.49 13.96, 139.71 15.07" stroke="#000000" stroke-width="4" fill="none"></path></g><g transform="translate(582.0472399478159 2185.666666666665) rotate(0 32.5 22)"><text x="32.5" y="35" font-family="Cascadia, Segoe UI Emoji" font-size="36px" fill="#000000" text-anchor="middle" style="white-space: pre;" direction="ltr">end</text></g><g stroke-linecap="round" transform="translate(201.21390661448197 326.6666666666665) rotate(0 453.33333333333303 193.3333333333332)"><path d="M452.44 -0.15 C578.63 50.96, 702.39 104.79, 905.12 194.66 M453.23 0.42 C618.04 70.51, 782.06 140.91, 907.45 193.79 M906.81 192.53 C814.62 233.5, 721.4 272.88, 455.03 385.62 M907.32 194.71 C773.49 248.22, 640.13 303.48, 453.56 386.77 M454.06 386.74 C286.84 314.32, 115.38 243.85, 0.84 194.48 M454.11 386.51 C337.01 334.77, 219.03 284.39, 0.16 193.35 M0.47 194.38 C177.75 121.7, 356.39 44.23, 453.26 -0.93 M0 193.86 C159.64 130.07, 319.08 61.8, 453.42 0.27" stroke="#000000" stroke-width="4" fill="none"></path></g><g transform="translate(453.047239947815 498.2499999999998) rotate(0 201.5 22)"><text x="201.5" y="35" font-family="Cascadia, Segoe UI Emoji" font-size="36px" fill="#000000" text-anchor="middle" style="white-space: pre;" direction="ltr">Create new pokemon?</text></g><g transform="translate(1118.7139066144819 445.83333333333303) rotate(0 32.5 22)"><text x="32.5" y="35" font-family="Cascadia, Segoe UI Emoji" font-size="36px" fill="#000000" text-anchor="middle" style="white-space: pre;" direction="ltr">YES</text></g><g transform="translate(155.88057328114894 437.99999999999955) rotate(0 22 22)"><text x="22" y="35" font-family="Cascadia, Segoe UI Emoji" font-size="36px" fill="#000000" text-anchor="middle" style="white-space: pre;" direction="ltr">NO</text></g><g stroke-linecap="round" transform="translate(1287.880573281148 1110) rotate(0 299.9999999999998 89.99999999999994)"><path d="M-0.37 0.55 C237.7 2.81, 473.76 3.01, 599.49 -0.37 M-0.44 0.76 C129.87 3.49, 261.4 3.69, 599.64 0.58 M601.03 -3.37 C598.34 35.95, 604.07 77.71, 596.18 176.52 M598.64 -0.29 C596.58 45.24, 597.12 91.29, 598.03 181.83 M601.04 180.26 C475.13 181.86, 350.86 181.74, -0.52 179.9 M599.61 180.47 C395.25 179.5, 190.8 179.45, 0.04 180.53 M1.04 182.23 C4.16 135.42, -1.5 92.59, 3.6 -3.78 M0.95 179.44 C-2.94 113.87, 0.35 48.1, 0.48 -0.01" stroke="#000000" stroke-width="4" fill="none"></path></g><g transform="translate(1396.880573281148 1178.2499999999998) rotate(0 191 22)"><text x="191" y="35" font-family="Cascadia, Segoe UI Emoji" font-size="36px" fill="#000000" text-anchor="middle" style="white-space: pre;" direction="ltr">create new pokemon</text></g><g stroke-linecap="round" transform="translate(1247.8805732811484 616.6666666666663) rotate(0 299.9999999999998 89.99999999999994)"><path d="M-1.27 -0.79 C152.07 -5.85, 301.27 -3.36, 599.86 0.3 M0.49 -0.4 C194.38 1.54, 390.12 1.02, 599.59 0.76 M602.89 -3.12 C598.43 51.78, 596.36 97.97, 598.55 176.38 M601.31 -1.81 C602.04 44.47, 599.05 89.84, 599.06 179.83 M598.49 178.52 C403.48 175.88, 206.05 177.62, 0.84 179.4 M599.83 180.73 C375.81 176.56, 151.28 177.54, -0.47 179.9 M3.25 180.27 C4.18 133.1, 2.98 80.96, -2.15 2.63 M0.56 180.75 C0.75 118.5, 4.66 55.59, -0.48 -0.06" stroke="#000000" stroke-width="4" fill="none"></path></g><g transform="translate(1304.880573281148 663.1666666666663) rotate(0 243 44)"><text x="243" y="35" font-family="Cascadia, Segoe UI Emoji" font-size="36px" fill="#000000" text-anchor="middle" style="white-space: pre;" direction="ltr">input how many pokemons</text><text x="243" y="79" font-family="Cascadia, Segoe UI Emoji" font-size="36px" fill="#000000" text-anchor="middle" style="white-space: pre;" direction="ltr">do need add</text></g><g stroke-linecap="round"><g transform="translate(1191.213906614482 1033.3333333333328) rotate(0 393.2023580903358 -68.73133312498612)"><path d="M-1.15 3.35 C48.82 -45.44, 98.25 -83.77, 159.59 -136.92 M-1.06 -1.6 C42.66 -35.29, 83.06 -71.74, 159.69 -138.09 M161.76 -137.36 C244.86 -140.54, 326.94 -138.35, 566.38 -141.63 M160.41 -137.6 C316.97 -139.96, 473.93 -142.63, 567.07 -139.49 M568.56 -138.84 C616.38 -112.76, 660.7 -83.43, 787.37 1.86 M565.93 -140.53 C647 -94.72, 722.97 -44.56, 786.49 0.32 M787.55 -0.19 C583.28 5.25, 379.92 6.11, -0.61 -0.59 M786.61 0.65 C583.07 3.52, 378.98 3.69, 0.25 -0.49" stroke="#000000" stroke-width="4" fill="none"></path></g></g><g stroke-linecap="round"><g transform="translate(1227.8805732811481 1396.666666666666) rotate(0 346.69737884991184 87.5577671353103)"><path d="M1.1 0.5 C265.12 -2.12, 527.84 0.84, 694.6 6.69 M-0.04 -0.01 C197.29 1.98, 393.89 2.64, 693.91 6.42 M691.08 8.92 C646.29 66.12, 598.6 121.6, 563.24 162.35 M691.74 5.47 C666.55 40.88, 636.38 78.29, 564.87 160.15 M564.84 160.66 C441.57 165.41, 313.42 168.61, 102.04 171.5 M566.4 159.36 C468.89 160.28, 371.09 163.5, 104.09 173.19 M99.92 176.48 C69.18 118.26, 35.93 64.39, 0.58 -0.8 M104.34 171.74 C77.59 121.23, 48.33 73.97, -1.2 -1.36" stroke="#000000" stroke-width="4" fill="none"></path></g></g><g transform="translate(1437.547239947815 945.833333333333) rotate(0 117 22)"><text x="117" y="35" font-family="Cascadia, Segoe UI Emoji" font-size="36px" fill="#000000" text-anchor="middle" style="white-space: pre;" direction="ltr"> i times do</text></g><g transform="translate(1466.213906614481 1461.3333333333328) rotate(0 75 22)"><text x="75" y="35" font-family="Cascadia, Segoe UI Emoji" font-size="36px" fill="#000000" text-anchor="middle" style="white-space: pre;" direction="ltr">+1 to i</text></g><g stroke-linecap="round"><g transform="translate(1351.2139066144814 1109.9999999999993) rotate(0 -0.03613273426890373 86.25901061824209)"><path d="M-2.95 0.05 C-2.8 35.4, -0.97 72.16, 2.87 172.95 M0.95 -0.43 C3.67 63.35, 3.29 123.11, -1.92 171.6" stroke="#000000" stroke-width="4" fill="none"></path></g></g><g stroke-linecap="round"><g transform="translate(1834.5833726820833 1117.0743227150908) rotate(0 -0.9747248912141231 87.65750159944093)"><path d="M1.86 -1.17 C-3.87 69.03, -5.31 133.56, -2.2 176.48 M-1.01 1.72 C0.24 60.8, 2.7 124.36, -0.81 172.25" stroke="#000000" stroke-width="4" fill="none"></path></g></g><g stroke-linecap="round"><g transform="translate(1114.547239947815 523.333333333333) rotate(0 187.76068145685758 37.47567916329933)"><path d="M-1.08 -1.95 C115.76 -2.21, 237.95 0.38, 370.24 4.63 M-0.49 0.87 C104.14 4.97, 207.37 4.46, 369.49 4.29 M368.25 3.35 C369.93 29.78, 371.58 56.86, 376.6 76.92 M371.3 2.07 C369.63 19.16, 372.63 38.13, 372.04 76.53" stroke="#000000" stroke-width="4" fill="none"></path></g><g transform="translate(1114.547239947815 523.333333333333) rotate(0 187.76068145685758 37.47567916329933)"><path d="M359.83 45.26 C361.8 55.67, 372.32 67.08, 372.43 78.64 M360.78 49.83 C365.82 57.82, 368.8 63.33, 371.21 78.09" stroke="#000000" stroke-width="4" fill="none"></path></g><g transform="translate(1114.547239947815 523.333333333333) rotate(0 187.76068145685758 37.47567916329933)"><path d="M380.35 45.11 C375.79 55.77, 379.78 67.23, 372.43 78.64 M381.3 49.68 C380.62 57.43, 377.88 62.98, 371.21 78.09" stroke="#000000" stroke-width="4" fill="none"></path></g></g><g stroke-linecap="round"><g transform="translate(1524.547239947815 813.3333333333328) rotate(0 0.9902371950447559 38.03359311756992)"><path d="M-0.61 1.41 C2.01 24.71, -1.14 57.92, 2.59 74.74 M0.34 -1.47 C0.96 18.72, -0.9 38.34, 0.7 77.54" stroke="#000000" stroke-width="4" fill="none"></path></g><g transform="translate(1524.547239947815 813.3333333333328) rotate(0 0.9902371950447559 38.03359311756992)"><path d="M-10.78 50.99 C-4.16 57.24, -3.49 73.29, 3.29 75.61 M-9.83 48.11 C-5.98 55.62, -5.06 62.78, 1.39 78.42" stroke="#000000" stroke-width="4" fill="none"></path></g><g transform="translate(1524.547239947815 813.3333333333328) rotate(0 0.9902371950447559 38.03359311756992)"><path d="M9.73 50.54 C9.13 56.77, 2.57 72.98, 3.29 75.61 M10.68 47.66 C9.28 55.69, 4.95 62.96, 1.39 78.42" stroke="#000000" stroke-width="4" fill="none"></path></g></g><g stroke-linecap="round"><g transform="translate(1540.2236694194366 1035.2997402157628) rotate(0 -0.8948239274322987 38.31550563344115)"><path d="M-3.1 3.19 C-1.24 23.97, -2.22 52.13, 1.31 77.39 M-0.09 -0.76 C-1.38 25.03, -1.56 46.29, -0.63 75.82" stroke="#000000" stroke-width="4" fill="none"></path></g><g transform="translate(1540.2236694194366 1035.2997402157628) rotate(0 -0.8948239274322987 38.31550563344115)"><path d="M-14.6 51.05 C-9.4 54.95, -6.65 66.36, 0.68 76.54 M-11.59 47.1 C-9.5 58.12, -6.39 64.61, -1.27 74.98" stroke="#000000" stroke-width="4" fill="none"></path></g><g transform="translate(1540.2236694194366 1035.2997402157628) rotate(0 -0.8948239274322987 38.31550563344115)"><path d="M5.92 50.61 C4.07 54.93, -0.23 66.49, 0.68 76.54 M8.93 46.66 C4.79 57.8, 1.68 64.43, -1.27 74.98" stroke="#000000" stroke-width="4" fill="none"></path></g></g><g stroke-linecap="round"><g transform="translate(1536.8903360861032 1305.2997402157625) rotate(0 0.3758112249325336 38.14290727706009)"><path d="M3.54 3.28 C3.74 12.24, -1.53 29.19, -2.8 75.37 M1.37 0.92 C2.11 20.38, 0.6 39.09, 1.51 74.89" stroke="#000000" stroke-width="4" fill="none"></path></g><g transform="translate(1536.8903360861032 1305.2997402157625) rotate(0 0.3758112249325336 38.14290727706009)"><path d="M-5.5 50.08 C-3.6 49.18, -6.69 56.11, -1.29 73.59 M-7.68 47.72 C-4.54 54.9, -3.34 61.13, 3.02 73.11" stroke="#000000" stroke-width="4" fill="none"></path></g><g transform="translate(1536.8903360861032 1305.2997402157625) rotate(0 0.3758112249325336 38.14290727706009)"><path d="M15.02 49.87 C12.69 48.7, 5.37 55.67, -1.29 73.59 M12.84 47.51 C10.72 54.39, 6.65 60.68, 3.02 73.11" stroke="#000000" stroke-width="4" fill="none"></path></g></g><g stroke-linecap="round"><g transform="translate(634.9523926404279 248.70927378889087) rotate(0 8.070142609959426 40.92193351743265)"><path d="M3.11 -2.52 C5.24 22.72, 9.77 39.29, 14.9 84.37 M1.24 -0.88 C2.32 26.84, 10.09 51.58, 14.8 81.61" stroke="#000000" stroke-width="4" fill="none"></path></g><g transform="translate(634.9523926404279 248.70927378889087) rotate(0 8.070142609959426 40.92193351743265)"><path d="M2.67 53.25 C5.45 64.88, 9.77 67.84, 13.57 85.22 M0.8 54.89 C2.65 64.71, 10.13 71.55, 13.47 82.47" stroke="#000000" stroke-width="4" fill="none"></path></g><g transform="translate(634.9523926404279 248.70927378889087) rotate(0 8.070142609959426 40.92193351743265)"><path d="M22.84 49.5 C20.57 61.7, 19.89 65.59, 13.57 85.22 M20.98 51.14 C16.17 62.4, 17.07 70.45, 13.47 82.47" stroke="#000000" stroke-width="4" fill="none"></path></g></g><g stroke-linecap="round" transform="translate(2074.547239947816 411.66666666666606) rotate(0 231.66666666666652 83.33333333333326)"><path d="M362.56 14.66 C381.65 17.35, 396.49 22.79, 410.25 28.99 C424.01 35.19, 436.66 44.65, 445.13 51.88 C453.6 59.11, 458.88 64.61, 461.08 72.37 C463.28 80.12, 461.7 90.35, 458.35 98.41 C455 106.47, 450.68 114.02, 440.97 120.73 C431.25 127.44, 415.05 132.79, 400.06 138.67 C385.06 144.54, 369.58 151.98, 350.98 155.99 C332.38 159.99, 309.7 160.89, 288.44 162.71 C267.18 164.53, 245.14 166.62, 223.43 166.91 C201.71 167.2, 178.9 167.16, 158.15 164.45 C137.4 161.75, 116.77 155.74, 98.91 150.68 C81.06 145.63, 64.22 139.89, 51 134.11 C37.78 128.33, 27.97 123.03, 19.61 116.01 C11.24 109, 3.63 100.08, 0.82 92.02 C-1.99 83.97, -1.24 75.02, 2.73 67.68 C6.7 60.34, 14.69 55.11, 24.62 47.97 C34.55 40.84, 47.81 31.05, 62.3 24.86 C76.79 18.67, 92.98 14.56, 111.55 10.82 C130.11 7.08, 152.41 3.9, 173.68 2.4 C194.95 0.9, 217.23 1.46, 239.19 1.82 C261.15 2.19, 282.91 2.26, 305.46 4.6 C328.01 6.93, 361.91 12.69, 374.49 15.81 C387.06 18.93, 383.27 21.69, 380.92 23.32 M62.41 26.14 C73.93 19.88, 98.71 16.99, 117.85 13.22 C136.99 9.46, 155.97 5.81, 177.27 3.54 C198.57 1.27, 223.33 -0.98, 245.64 -0.41 C267.94 0.16, 290.55 4.35, 311.09 6.96 C331.64 9.56, 352.02 11.38, 368.9 15.21 C385.79 19.05, 399.74 23.52, 412.42 29.96 C425.1 36.4, 436.26 46.07, 444.99 53.86 C453.72 61.65, 462.53 69.26, 464.8 76.7 C467.08 84.14, 463.69 91.35, 458.64 98.52 C453.59 105.69, 444.76 112.77, 434.5 119.71 C424.24 126.65, 412.14 134.21, 397.1 140.15 C382.06 146.08, 363.08 150.77, 344.27 155.3 C325.45 159.83, 304.97 165.02, 284.22 167.34 C263.48 169.65, 241.57 170.15, 219.77 169.19 C197.96 168.23, 174.12 164.94, 153.4 161.57 C132.68 158.19, 112.48 153.79, 95.43 148.94 C78.38 144.09, 64.21 138.65, 51.08 132.49 C37.94 126.33, 24.7 118.96, 16.63 112 C8.56 105.03, 4.37 98.51, 2.64 90.7 C0.92 82.89, 1.93 73.26, 6.29 65.13 C10.64 57.01, 18.83 48.18, 28.75 41.95 C38.67 35.71, 58.82 30.46, 65.82 27.71 C72.82 24.95, 68.35 25.22, 70.73 25.42" stroke="#000000" stroke-width="4" fill="none"></path></g><g transform="translate(2115.2139066144823 473.2499999999993) rotate(0 191 22)"><text x="191" y="35" font-family="Cascadia, Segoe UI Emoji" font-size="36px" fill="#000000" text-anchor="middle" style="white-space: pre;" direction="ltr">create new pokemon</text></g><g stroke-linecap="round" transform="translate(2142.8805732811475 1544.9999999999986) rotate(0 231.66666666666652 83.33333333333326)"><path d="M145.5 7.86 C163.6 4.22, 188.8 3.23, 210.41 2.14 C232.01 1.05, 253.91 0.33, 275.13 1.31 C296.34 2.29, 317.99 4.6, 337.7 8.02 C357.41 11.44, 377.54 16.4, 393.4 21.83 C409.25 27.25, 422.07 33.58, 432.84 40.57 C443.61 47.57, 452.79 56.2, 458.02 63.8 C463.25 71.4, 465.24 78.64, 464.24 86.16 C463.24 93.67, 459.26 101.04, 452 108.89 C444.74 116.74, 433.31 126.74, 420.68 133.28 C408.04 139.82, 393.56 143.81, 376.19 148.14 C358.81 152.46, 336.67 156.46, 316.42 159.21 C296.17 161.97, 275.92 163.8, 254.67 164.67 C233.41 165.54, 210.5 165.95, 188.9 164.43 C167.31 162.92, 144.84 158.71, 125.09 155.57 C105.33 152.42, 85.82 150.89, 70.38 145.57 C54.94 140.25, 43.38 130.92, 32.45 123.63 C21.52 116.34, 9.85 109.38, 4.81 101.85 C-0.23 94.32, 0.64 86.27, 2.21 78.44 C3.77 70.62, 7.1 62.12, 14.19 54.91 C21.27 47.69, 32.09 41.19, 44.72 35.15 C57.34 29.12, 69.19 23.72, 89.96 18.7 C110.73 13.67, 151.78 7.57, 169.35 4.99 C186.93 2.41, 194.57 1.95, 195.41 3.22 M83.52 21.55 C97.1 15.86, 119.31 7.64, 139 4.38 C158.7 1.13, 179.65 2.44, 201.69 2.03 C223.73 1.61, 249.61 0.63, 271.26 1.89 C292.92 3.15, 311.95 5.82, 331.6 9.59 C351.25 13.36, 372.71 19.05, 389.18 24.52 C405.65 29.98, 419.62 36.32, 430.44 42.38 C441.27 48.44, 448.46 53.21, 454.15 60.85 C459.85 68.48, 465.33 80.51, 464.61 88.2 C463.88 95.89, 456.83 99.89, 449.8 106.98 C442.77 114.06, 434.09 123.61, 422.43 130.71 C410.76 137.81, 396.77 145.17, 379.8 149.56 C362.83 153.94, 340.8 154.02, 320.6 157.01 C300.4 160, 280.16 166.17, 258.6 167.52 C237.03 168.88, 212.46 166.88, 191.2 165.13 C169.94 163.38, 150.49 160.2, 131.04 157.02 C111.59 153.85, 90.8 151.52, 74.5 146.06 C58.21 140.61, 44.2 131.07, 33.27 124.28 C22.35 117.49, 14.37 112.39, 8.95 105.31 C3.54 98.23, 0.53 89.72, 0.76 81.8 C0.99 73.89, 4.18 65.42, 10.31 57.83 C16.45 50.23, 24.97 42.36, 37.56 36.22 C50.14 30.08, 77.64 23.97, 85.8 20.99 C93.97 18.01, 84.82 17.54, 86.55 18.34" stroke="#000000" stroke-width="4" fill="none"></path></g><g stroke-linecap="round" transform="translate(2064.547239947815 674.9999999999993) rotate(0 263.3333333333335 63.33333333333337)"><path d="M0.55 1.31 C179.09 -4.51, 360.22 -2.48, 525.29 -0.9 M0.53 -0.64 C136.57 -0.92, 275.08 -1.31, 526.56 0.13 M525.8 -3.29 C526.82 33.03, 526.39 65.65, 525.81 126.42 M527.92 -0.31 C524.92 27.07, 526.47 55.75, 526.85 127.67 M525.77 127.17 C354.18 125, 178.39 122.66, -1.23 126.06 M526.56 126 C403.76 128.71, 280.07 129.19, -0.54 126.39 M3.55 123.29 C-0.7 76.03, -2.38 30.85, -2.35 0.9 M0.27 126.01 C0.58 85.96, 2.86 45.55, 1.19 -0.15" stroke="#000000" stroke-width="4" fill="none"></path></g><g transform="translate(2221.3805732811484 716.5833333333326) rotate(0 106.5 22)"><text x="106.5" y="35" font-family="Cascadia, Segoe UI Emoji" font-size="36px" fill="#000000" text-anchor="middle" style="white-space: pre;" direction="ltr">set a name</text></g><g stroke-linecap="round" transform="translate(2074.5472399478153 881.6666666666656) rotate(0 263.3333333333335 63.33333333333337)"><path d="M1.06 1.29 C106.1 -2.9, 210.1 -4.21, 526.7 -0.74 M0.69 0.51 C158.27 2.66, 315.36 1.95, 526.97 -0.28 M525.63 0.49 C525.83 38.41, 526.87 79.57, 527.15 129.7 M525.11 0.54 C527.71 50.49, 529.48 100.87, 528.45 128.43 M528.08 127.72 C354.22 126.61, 178.01 127.25, 0.57 125.07 M526.68 126.51 C348.18 126.57, 168.34 127.58, 0.11 126.21 M-0.04 127.84 C-2.86 86, 2.69 43.31, -3.45 -2.77 M1.75 125.41 C3.21 90.25, 1.56 50.63, 0.73 -1.15" stroke="#000000" stroke-width="4" fill="none"></path></g><g transform="translate(2210.380573281149 923.2499999999991) rotate(0 127.5 22)"><text x="127.5" y="35" font-family="Cascadia, Segoe UI Emoji" font-size="36px" fill="#000000" text-anchor="middle" style="white-space: pre;" direction="ltr">set a colour</text></g><g stroke-linecap="round" transform="translate(2084.5472399478163 1112.6666666666658) rotate(0 263.3333333333335 63.33333333333337)"><path d="M0.14 1.49 C156.94 0.53, 313.8 1.82, 525.87 0.92 M0.34 0.12 C203.39 -3.81, 407.52 -4.85, 526.88 0.03 M524.29 2.64 C526.66 30.82, 524.55 63.6, 529.97 127.51 M525.06 -1.47 C524.45 44.65, 525.44 86.7, 527.35 128.21 M526.89 128.19 C367.68 127.83, 209.31 129.64, -0.74 125.8 M526.02 126.1 C318.65 124.28, 108.88 125.21, -0.35 125.87 M-3.86 127.71 C0.31 95.11, -0.45 73.86, -1.05 -2 M0.2 126.52 C-0.8 82.83, 0.35 37.59, 0.75 -1.33" stroke="#000000" stroke-width="4" fill="none"></path></g><g transform="translate(2156.8805732811497 1154.249999999999) rotate(0 191 22)"><text x="191" y="35" font-family="Cascadia, Segoe UI Emoji" font-size="36px" fill="#000000" text-anchor="middle" style="white-space: pre;" direction="ltr">push pokemon to DB</text></g><g stroke-linecap="round" transform="translate(2097.8805732811484 1338.3333333333321) rotate(0 263.3333333333335 63.33333333333337)"><path d="M0.6 1.46 C115.16 -2.85, 233.07 -4.24, 526.23 -0.46 M-0.16 0.78 C153.57 -4, 306.91 -4.48, 527.31 0.58 M526.35 -1.94 C528.86 47.24, 525.89 90.18, 524.56 122.75 M528.01 -1.93 C527.65 27.05, 524.75 57.89, 527.79 125.39 M527.29 126.04 C391.93 122.52, 254.44 123.36, -0.7 125.35 M526.69 127.17 C324.86 129.35, 122.22 130.07, 0.16 127.01 M-2.42 126.68 C5.16 87.45, -0.52 47.04, -1.25 -1.63 M-1.03 128.12 C0.45 77.7, 1.86 29.78, -1.16 0.89" stroke="#000000" stroke-width="4" fill="none"></path></g><g transform="translate(2128.213906614482 1379.9166666666656) rotate(0 233 22)"><text x="233" y="35" font-family="Cascadia, Segoe UI Emoji" font-size="36px" fill="#000000" text-anchor="middle" style="white-space: pre;" direction="ltr">puts "pokemon created"</text></g><g stroke-linecap="round"><g transform="translate(2311.213906614482 581.6666666666661) rotate(0 -0.0929674242904639 39.360804070718586)"><path d="M-0.84 -0.77 C0.72 21.18, -3.01 49.1, -0.88 78.61 M-0.2 0.04 C1.53 17.88, 2.13 40.18, 0.05 79.49" stroke="#000000" stroke-width="4" fill="none"></path></g><g transform="translate(2311.213906614482 581.6666666666661) rotate(0 -0.0929674242904639 39.360804070718586)"><path d="M-9.97 50.16 C-5.21 57.01, -6.27 69.98, -0.84 78.11 M-9.33 50.97 C-5.54 56.54, -2.73 66.45, 0.09 78.99" stroke="#000000" stroke-width="4" fill="none"></path></g><g transform="translate(2311.213906614482 581.6666666666661) rotate(0 -0.0929674242904639 39.360804070718586)"><path d="M10.54 50.95 C9.34 57.87, 2.32 70.6, -0.84 78.11 M11.18 51.75 C10.02 56.86, 7.89 66.57, 0.09 78.99" stroke="#000000" stroke-width="4" fill="none"></path></g></g><g stroke-linecap="round"><g transform="translate(2337.9735407054395 805.6391959292805) rotate(0 -0.9639889402315021 39.03373351227492)"><path d="M-3.81 -0.75 C2.37 24.65, -1.66 55.03, -3.32 76.91 M1.88 -0.67 C-0.24 31.58, 0.07 63.4, 0.19 78.82" stroke="#000000" stroke-width="4" fill="none"></path></g><g transform="translate(2337.9735407054395 805.6391959292805) rotate(0 -0.9639889402315021 39.03373351227492)"><path d="M-14.02 49.93 C-4.75 58.02, -5.31 71.14, -3.13 75.73 M-8.33 50 C-5.99 62.07, -1.66 73.85, 0.38 77.63" stroke="#000000" stroke-width="4" fill="none"></path></g><g transform="translate(2337.9735407054395 805.6391959292805) rotate(0 -0.9639889402315021 39.03373351227492)"><path d="M6.5 49.83 C8.94 58.04, 1.55 71.19, -3.13 75.73 M12.19 49.9 C6.6 62.3, 3 74.11, 0.38 77.63" stroke="#000000" stroke-width="4" fill="none"></path></g></g><g stroke-linecap="round"><g transform="translate(2337.9735407054395 1022.3058625959475) rotate(0 0.4469050536536088 39.759637172333896)"><path d="M1.81 -1.98 C-3.74 27.44, -4.84 48.25, 3.46 78.29 M0.45 0.67 C2.26 31.22, 1.69 58.11, 0.9 81.5" stroke="#000000" stroke-width="4" fill="none"></path></g><g transform="translate(2337.9735407054395 1022.3058625959475) rotate(0 0.4469050536536088 39.759637172333896)"><path d="M-6.79 51.06 C-8.31 63.98, -6.36 68.25, 4.35 79.78 M-8.15 53.7 C-3.79 65.22, -0.84 73.01, 1.79 82.99" stroke="#000000" stroke-width="4" fill="none"></path></g><g transform="translate(2337.9735407054395 1022.3058625959475) rotate(0 0.4469050536536088 39.759637172333896)"><path d="M13.72 51.62 C5.63 64.28, 1 68.37, 4.35 79.78 M12.36 54.26 C9.11 65.43, 4.46 73.02, 1.79 82.99" stroke="#000000" stroke-width="4" fill="none"></path></g></g><g stroke-linecap="round"><g transform="translate(2374.6402073721056 1248.9725292626135) rotate(0 0.3860883592093387 42.667220945470035)"><path d="M-2.22 1.77 C-2.59 19.42, 4.18 43.29, 2.82 83.76 M0.76 1.57 C0.55 20.13, 1.25 44.12, 1.11 80.72" stroke="#000000" stroke-width="4" fill="none"></path></g><g transform="translate(2374.6402073721056 1248.9725292626135) rotate(0 0.3860883592093387 42.667220945470035)"><path d="M-11.42 54.32 C-9.36 57.49, 0.31 66.79, 3.93 84.48 M-8.45 54.12 C-6.14 58.8, -2.69 68.99, 2.22 81.44" stroke="#000000" stroke-width="4" fill="none"></path></g><g transform="translate(2374.6402073721056 1248.9725292626135) rotate(0 0.3860883592093387 42.667220945470035)"><path d="M9.1 54.28 C5.38 57.26, 9.29 66.57, 3.93 84.48 M12.07 54.08 C8.91 58.91, 6.9 69.11, 2.22 81.44" stroke="#000000" stroke-width="4" fill="none"></path></g></g><g stroke-linecap="round"><g transform="translate(2374.6402073721056 1475.6391959292803) rotate(0 -1.0114746444056664 39.1042524529621)"><path d="M-3.32 -3.09 C2.57 18.33, 1.94 43.85, -1.34 80.89 M0.19 -1.18 C1.5 28.17, 1.71 54.06, 0.46 81.29" stroke="#000000" stroke-width="4" fill="none"></path></g><g transform="translate(2374.6402073721056 1475.6391959292803) rotate(0 -1.0114746444056664 39.1042524529621)"><path d="M-12.25 49.72 C-3.44 58.14, -1.72 70.76, -0.89 82.19 M-8.75 51.62 C-4.69 63.65, -1.35 72.37, 0.92 82.59" stroke="#000000" stroke-width="4" fill="none"></path></g><g transform="translate(2374.6402073721056 1475.6391959292803) rotate(0 -1.0114746444056664 39.1042524529621)"><path d="M8.26 50.34 C11.94 58.8, 8.52 71.26, -0.89 82.19 M11.77 52.25 C8.98 64.39, 5.48 72.9, 0.92 82.59" stroke="#000000" stroke-width="4" fill="none"></path></g></g><g stroke-linecap="round" transform="translate(327.88057328114894 1843.3333333333326) rotate(0 263.3333333333335 63.33333333333337)"><path d="M0.37 1.04 C196.83 -1.99, 394.76 -2.87, 525.18 -1.56 M-0.01 0.17 C163.98 3.4, 326.47 3.33, 526.49 0.48 M530.47 -1.64 C532.11 40.68, 529.37 75.13, 524.23 125.38 M526.5 -0.95 C523.85 28.49, 526.81 58.99, 525.08 127.75 M527.54 127.7 C330.12 128.62, 134.07 130.83, -0.81 127.68 M525.9 126.99 C417.52 127.55, 306.86 127.38, 0.15 127.23 M-1.68 124.67 C-1.02 78.03, -2.96 32.7, 0.58 0.14 M1.93 124.8 C1.29 90.32, -1.62 57.75, 0.52 1.88" stroke="#000000" stroke-width="4" fill="none"></path></g><g transform="translate(410.7139066144824 1884.9166666666658) rotate(0 180.5 22)"><text x="180.5" y="35" font-family="Cascadia, Segoe UI Emoji" font-size="36px" fill="#000000" text-anchor="middle" style="white-space: pre;" direction="ltr">show all pokemons</text></g><g stroke-linecap="round"><g transform="translate(191.2139066144822 529.9999999999995) rotate(0 119.79794678801352 648.9202577425165)"><path d="M-2.32 -2.21 C-59.2 2.53, -120.13 0.28, -176.78 -2.94 M1.95 -1.04 C-50.13 -0.16, -99.82 -0.43, -179.65 -0.62 M-179.51 1.11 C-181.34 296.84, -181.48 593.98, -180.57 1187.49 M-180.43 0.49 C-178.34 395.39, -178.4 789.38, -180.66 1186.88 M-181.21 1185.38 C-56.98 1183.6, 64.78 1183.17, 418.08 1184.24 M-179.77 1187.29 C-45.18 1188.59, 88.68 1188.36, 416.42 1183.58 M419.31 1181.68 C416.5 1211.97, 417.26 1233.58, 416.22 1300.21 M416.83 1185.08 C418.28 1207.73, 416.33 1233.62, 420.81 1300.78" stroke="#000000" stroke-width="4" fill="none"></path></g><g transform="translate(191.2139066144822 529.9999999999995) rotate(0 119.79794678801352 648.9202577425165)"><path d="M406.81 1270.94 C412.72 1283.36, 414.57 1290.16, 424.03 1297.84 M411.07 1272.1 C411.85 1281.9, 414.63 1289.19, 421.16 1300.16" stroke="#000000" stroke-width="4" fill="none"></path></g><g transform="translate(191.2139066144822 529.9999999999995) rotate(0 119.79794678801352 648.9202577425165)"><path d="M427.31 1269.9 C426.5 1282.8, 421.64 1289.94, 424.03 1297.84 M431.57 1271.06 C426.75 1280.99, 423.92 1288.58, 421.16 1300.16" stroke="#000000" stroke-width="4" fill="none"></path></g></g><g stroke-linecap="round"><g transform="translate(1554.547239947815 1579.999999999999) rotate(0 -468.67749135345196 69.49504594734118)"><path d="M3.14 -3.27 C-3.47 37.69, -1.02 73.5, 2.39 137.93 M-1.94 -1.97 C0.66 45.32, 0.71 88.25, -1.82 141.48 M0.39 140.88 C-213.79 138.88, -423.19 141.28, -940.11 141.1 M-0.59 140.71 C-282.71 142.65, -564 143.34, -940.49 139.3" stroke="#000000" stroke-width="4" fill="none"></path></g><g transform="translate(1554.547239947815 1579.999999999999) rotate(0 -468.67749135345196 69.49504594734118)"><path d="M-909.09 125.99 C-921.92 131.02, -927.2 131.31, -938.1 137.23 M-914.16 127.29 C-922.13 133.15, -931.15 134.38, -942.31 140.77" stroke="#000000" stroke-width="4" fill="none"></path></g><g transform="translate(1554.547239947815 1579.999999999999) rotate(0 -468.67749135345196 69.49504594734118)"><path d="M-909.24 146.51 C-921.8 145.93, -927.03 140.61, -938.1 137.23 M-914.32 147.81 C-922.48 147.09, -931.44 141.72, -942.31 140.77" stroke="#000000" stroke-width="4" fill="none"></path></g></g><g stroke-linecap="round"><g transform="translate(600.8380953895495 1975.1904260562724) rotate(0 -1.726661116346146 38.03974110012257)"><path d="M-1.27 -0.13 C0.47 16.72, 0.39 29.17, -3.36 76.21 M-0.11 -0.11 C0.01 20.12, -0.82 38.35, -1.37 75.54" stroke="#000000" stroke-width="4" fill="none"></path></g><g transform="translate(600.8380953895495 1975.1904260562724) rotate(0 -1.726661116346146 38.03974110012257)"><path d="M-12.37 47.03 C-7.78 53.95, -5.85 56.44, -4.73 75.08 M-11.21 47.06 C-9.09 55.01, -7.44 60.93, -2.74 74.41" stroke="#000000" stroke-width="4" fill="none"></path></g><g transform="translate(600.8380953895495 1975.1904260562724) rotate(0 -1.726661116346146 38.03974110012257)"><path d="M8.15 47.41 C8.51 54.19, 6.21 56.6, -4.73 75.08 M9.3 47.44 C6.19 55.19, 2.61 61.01, -2.74 74.41" stroke="#000000" stroke-width="4" fill="none"></path></g></g><g transform="translate(1312.380573281148 151.517094017094) rotate(0 209.66666666666652 61.82478632478626)"><text x="209.66666666666652" y="86.64957264957255" font-family="Virgil, Segoe UI Emoji" font-size="96.76923076923067px" fill="#000000" text-anchor="middle" style="white-space: pre;" direction="ltr">pokemons</text></g></svg>